<?xml version="1.0"?>
<Project_Data Version="8.00">
<Project_Settings>
<ProfileName></ProfileName>
<ProjectWidth>1364</ProjectWidth>
<ProjectHeight>768</ProjectHeight>
<IsCustomProject>1</IsCustomProject>
<SavedProjectSettings>1</SavedProjectSettings>
<LastFlashTemplate>-1</LastFlashTemplate>
</Project_Settings>


<AutoSaveFile>C:\Users\Sriyank Siddhartha\AppData\Local\TechSmith\Camtasia Studio\8.0\Auto-Saves\Untitled6c68db23.autosave.camproj</AutoSaveFile>

<ProjectID>4FFD0D71-44D0-4D6E-AB0E-BEE319160145</ProjectID>

<PowerPointProject>0</PowerPointProject>

<PowerPointFilename></PowerPointFilename>


<Project_Notes>
</Project_Notes>

<Project_MetaData>
<Project_MetaData_Object>
<FieldArrayKey>8</FieldArrayKey>
<Value>Untitled</Value>
</Project_MetaData_Object>
<Project_MetaData_Object>
<FieldArrayKey>13</FieldArrayKey>
<Value>2015-04-19 09:37:13 AM</Value>
</Project_MetaData_Object>
<Project_MetaData_Object>
<FieldArrayKey>16</FieldArrayKey>
<Value>ENU</Value>
</Project_MetaData_Object>
</Project_MetaData>

<CSMLData>
<GoProject id="1" version="3.0" >
 <Project id="2" editRate="30/1" version="3.0" >
  <Author></Author>
  <Comment></Comment>
  <System></System>
  <SourceBin id="3"  >
    <Source id="4" src="C:\Users\Sriyank Siddhartha\Desktop\capture-1.trec" lastMod="20150419T041654" rect="(0,0,1364,768)" >
      <SourceTrack range="(0,4176)" type="0" editRate="15/1" trackRect="(0,0,1364,768)" sampleRate="0/1" bitDepth="0" numChannels="0" filename="capture-1.trec!Strack0.tsc2" metaData="capture-1.trec;" />
      <SourceTrack range="(0,12282880)" type="2" editRate="44100/1" trackRect="(0,0,0,0)" sampleRate="44100/1" bitDepth="16" numChannels="2" filename="capture-1.trec!Maudio1.mp4" metaData="" />
    </Source>
    <Source id="5" src="D:\docs\SmartHerd\Logo\LogoATLast.mp4" lastMod="20141017T143338" rect="(0,0,1364,768)" >
      <SourceTrack range="(0,508000000)" type="0" editRate="10000000/1" trackRect="(0,0,1364,768)" sampleRate="10000000/333333" bitDepth="24" numChannels="0" filename="" metaData="" />
      <SourceTrack range="(0,508000000)" type="2" editRate="10000000/1" trackRect="(0,0,0,0)" sampleRate="44100/1" bitDepth="16" numChannels="2" filename="" metaData="" />
    </Source>
    <Source id="6" src="D:\docs\SmartHerd\Logo\Non Mixed.png" lastMod="20140531T182347" rect="(0,0,975,403)" >
      <SourceTrack range="(0,1)" type="1" editRate="10000000/1" trackRect="(0,0,975,403)" sampleRate="0/1" bitDepth="32" numChannels="0" filename="" metaData="" />
    </Source>
  </SourceBin>
  <Timeline id="7"  >
   <Attributes>
    <Attribute id="8" value="1364" name="width"/>
    <Attribute id="9" value="768" name="height"/>
    <Attribute id="10" value="(0,0,0,255)" name="backgroundColor"/>
   </Attributes>
    <GenericMixer id="11"  name="Unified Mixer">
     <MetaData>
      <entry key="MixerType" val="TimelineMixer"/>
     </MetaData>
     <Tracks>
      <GenericTrack id="12"  >
       <Attributes>
        <Attribute id="13" value="" name="ident"/>
        <Attribute id="14" value="0" name="audioMuted"/>
        <Attribute id="15" value="0" name="videoHidden"/>
       </Attributes>
       <MetaData>
        <entry key="IsLocked" val="False"/>
        <entry key="WinTrackHeight" val="89"/>
       </MetaData>
       <Medias>
        <StitchedMedia id="16" start="0" duration="5279" scalar="1/1" mediaStart="26/1" mediaDuration="5279/1" minMediaStart="0/1" >
         <Transformer>
          <VectorParam id="17"  name="translation">
           <InterpolatingParam id="18" interp="linr"  time="-9999999/1" value="0" leadInLength="0/1"  interpolater="leadin-linr"  />
           <InterpolatingParam id="19" interp="linr"  time="-9999999/1" value="0" leadInLength="0/1"  interpolater="leadin-linr"  />
           <InterpolatingParam id="20" interp="linr"  time="-9999999/1" value="0" leadInLength="0/1"  interpolater="leadin-linr"  />
          </VectorParam>
          <VectorParam id="21"  name="rotation">
           <InterpolatingParam id="22" interp="linr"  time="-9999999/1" value="0" leadInLength="0/1"  interpolater="leadin-linr"  />
           <InterpolatingParam id="23" interp="linr"  time="-9999999/1" value="0" leadInLength="0/1"  interpolater="leadin-linr"  />
           <InterpolatingParam id="24" interp="linr"  time="-9999999/1" value="0" leadInLength="0/1"  interpolater="leadin-linr"  />
          </VectorParam>
          <VectorParam id="25"  name="shear">
           <InterpolatingParam id="26" interp="linr"  time="-9999999/1" value="0" leadInLength="0/1"  interpolater="leadin-linr"  />
           <InterpolatingParam id="27" interp="linr"  time="-9999999/1" value="0" leadInLength="0/1"  interpolater="leadin-linr"  />
           <InterpolatingParam id="28" interp="linr"  time="-9999999/1" value="0" leadInLength="0/1"  interpolater="leadin-linr"  />
          </VectorParam>
          <VectorParam id="29"  name="scale">
           <InterpolatingParam id="30" interp="linr"  time="-9999999/1" value="1" leadInLength="0/1"  interpolater="leadin-linr"  />
           <InterpolatingParam id="31" interp="linr"  time="-9999999/1" value="1" leadInLength="0/1"  interpolater="leadin-linr"  />
           <InterpolatingParam id="32" interp="linr"  time="-9999999/1" value="1" leadInLength="0/1"  interpolater="leadin-linr"  />
          </VectorParam>
          <VectorParam id="33"  name="anchor">
           <InterpolatingParam id="34" interp="linr"  time="0/1" value="0" leadInLength="0/1"  />
           <InterpolatingParam id="35" interp="linr"  time="0/1" value="0" leadInLength="0/1"  />
           <InterpolatingParam id="36" interp="linr"  time="0/1" value="0" leadInLength="0/1"  />
          </VectorParam>
         </Transformer>
         <Parameters>
          <VectorParam id="37"  name="sourceCrop">
           <InterpolatingParam id="38" interp="linr"  time="0/1" value="0" leadInLength="0/1"  />
           <InterpolatingParam id="39" interp="linr"  time="0/1" value="0" leadInLength="0/1"  />
           <InterpolatingParam id="40" interp="linr"  time="0/1" value="0" leadInLength="0/1"  />
           <InterpolatingParam id="41" interp="linr"  time="0/1" value="0" leadInLength="0/1"  />
          </VectorParam>
          <VectorParam id="42"  name="geometryCrop">
           <InterpolatingParam id="43" interp="linr"  time="-9999999/1" value="0" leadInLength="0/1"  interpolater="leadin-linr"  />
           <InterpolatingParam id="44" interp="linr"  time="-9999999/1" value="0" leadInLength="0/1"  interpolater="leadin-linr"  />
           <InterpolatingParam id="45" interp="linr"  time="-9999999/1" value="0" leadInLength="0/1"  interpolater="leadin-linr"  />
           <InterpolatingParam id="46" interp="linr"  time="-9999999/1" value="0" leadInLength="0/1"  interpolater="leadin-linr"  />
          </VectorParam>
          <InterpolatingParam id="47" interp="linr"  time="-9999999/1" value="1" leadInLength="0/1"  interpolater="leadin-linr"  name="opacity"/>
          <InterpolatingParam id="48" interp="linr"  time="0/1" value="1" leadInLength="0/1"  name="cursorOpacity"/>
          <InterpolatingParam id="49" interp="linr"  time="0/1" value="1" leadInLength="0/1"  name="cursorScale"/>
          <InterpolatingParam id="50" interp="linr"  time="0/1" value="0.64000000000000012" leadInLength="0/1"  name="volume"/>
          <Parameter id="51"  name="captions"/>
         </Parameters>
         <Effects>
          <GenericEffect id="52" name = "CursorBaseEffectName" >
           <Parameters>
           <InterpolatingParam id="53" interp="linr"  time="-9999999/1" value="1" leadInLength="0/1"   name="cursorSize"/>
           <InterpolatingParam id="54" interp="linr"  time="-9999999/1" value="0" leadInLength="0/1"   name="highlightBlurRadius"/>
           <InterpolatingParam id="55" interp="linr"  time="-9999999/1" value="0" leadInLength="0/1"   name="highlightColorBlue"/>
           <InterpolatingParam id="56" interp="linr"  time="-9999999/1" value="255" leadInLength="0/1"   name="highlightColorGreen"/>
           <InterpolatingParam id="57" interp="linr"  time="-9999999/1" value="255" leadInLength="0/1"   name="highlightColorRed"/>
           <InterpolatingParam id="58" interp="linr"  time="-9999999/1" value="5" leadInLength="0/1"   name="highlightFeatherSize"/>
           <InterpolatingParam id="59" interp="linr"  time="-9999999/1" value="2" leadInLength="0/1"   name="highlightMagnification"/>
           <InterpolatingParam id="60" interp="linr"  time="-9999999/1" value="1" leadInLength="0/1"   name="highlightOpacity"/>
           <InterpolatingParam id="61" interp="linr"  time="-9999999/1" value="45" leadInLength="0/1"   name="highlightSize"/>
           <Parameter id="62"   name="highlightType">
            <Keyframes>
            <Keyframe id="63"  time="-9999999/1" value="0" leadInLength="0/1"  />
            </Keyframes>
           </Parameter>
           <InterpolatingParam id="64" interp="linr"  time="-9999999/1" value="0" leadInLength="0/1"   name="leftClickColorBlue"/>
           <InterpolatingParam id="65" interp="linr"  time="-9999999/1" value="0" leadInLength="0/1"   name="leftClickColorGreen"/>
           <InterpolatingParam id="66" interp="linr"  time="-9999999/1" value="255" leadInLength="0/1"   name="leftClickColorRed"/>
           <InterpolatingParam id="67" interp="linr"  time="-9999999/1" value="0.80000000000000004" leadInLength="0/1"   name="leftClickDuration"/>
           <InterpolatingParam id="68" interp="linr"  time="-9999999/1" value="20" leadInLength="0/1"   name="leftClickSize"/>
           <Parameter id="69"   name="leftClickSoundFilename">
            <Keyframes>
            <Keyframe id="70"  time="-9999999/1" value="" leadInLength="0/1"  />
            </Keyframes>
           </Parameter>
           <InterpolatingParam id="71" interp="linr"  time="-9999999/1" value="1" leadInLength="0/1"   name="leftClickSoundVolume"/>
           <Parameter id="72"   name="leftClickType">
            <Keyframes>
            <Keyframe id="73"  time="-9999999/1" value="0" leadInLength="0/1"  />
            </Keyframes>
           </Parameter>
           <InterpolatingParam id="74" interp="linr"  time="-9999999/1" value="1" leadInLength="0/1"   name="opacity"/>
           <InterpolatingParam id="75" interp="linr"  time="-9999999/1" value="255" leadInLength="0/1"   name="rightClickColorBlue"/>
           <InterpolatingParam id="76" interp="linr"  time="-9999999/1" value="0" leadInLength="0/1"   name="rightClickColorGreen"/>
           <InterpolatingParam id="77" interp="linr"  time="-9999999/1" value="0" leadInLength="0/1"   name="rightClickColorRed"/>
           <InterpolatingParam id="78" interp="linr"  time="-9999999/1" value="0.80000000000000004" leadInLength="0/1"   name="rightClickDuration"/>
           <InterpolatingParam id="79" interp="linr"  time="-9999999/1" value="20" leadInLength="0/1"   name="rightClickSize"/>
           <Parameter id="80"   name="rightClickSoundFilename">
            <Keyframes>
            <Keyframe id="81"  time="-9999999/1" value="" leadInLength="0/1"  />
            </Keyframes>
           </Parameter>
           <InterpolatingParam id="82" interp="linr"  time="-9999999/1" value="1" leadInLength="0/1"   name="rightClickSoundVolume"/>
           <Parameter id="83"   name="rightClickType">
            <Keyframes>
            <Keyframe id="84"  time="-9999999/1" value="0" leadInLength="0/1"  />
            </Keyframes>
           </Parameter>
           </Parameters>
           <MetaData>
            <entry key="effectIndex" val="0"/>
           </MetaData>
          </GenericEffect>
          <GenericEffect id="85" name = "NoiseReduction" >
           <Parameters>
           <InterpolatingParam id="86" interp="linr"  time="0/1" value="20" leadInLength="0/1"   name="denoiserAmount"/>
           <InterpolatingParam id="87" interp="linr"  time="0/1" value="0" leadInLength="0/1"   name="denoiserThreshold"/>
           <Parameter id="88"   name="noiseProfile">
            <Keyframes>
            <Keyframe id="89"  time="0/1" value="FBAAAAIAAABErAAAAQIAAPvs88GDZerB17E5wt9Ue8KgKIrCRAiMwlTwisJooIfC/CGNwoSjkcJ3&#xD;&#xa;aZLC75aQwntZj8Kh6pHCXMSRwuz8kcIyd5HCzXeVwns6mMJC5pbC6aeWwiDklcKxL5XCeUCWwtz9&#xD;&#xa;l8I985jC8pKYwrzclsIIv5fCQ2qZwrTUlsLh1JTCZkqVwsCclsLzJ5XCTf6TwuculsJtdZbC3/aW&#xD;&#xa;wr3ymMI2HZrCFoGbwj5VnsKMBJzCN0qbwoJFnsJeB57CuxWbwtugmsI6B57Cf5qfwp2qnsJTYZ/C&#xD;&#xa;+g+fwtPKn8IKaZ3C8hicwo7PnMIk9JzCtJWewssPocL2oaHCyz+fwhhSnsI2a5/Cl++fwm57n8LZ&#xD;&#xa;h57CpOifwin0n8JPSp/CGLOewqA5ncLsMZ7CJneewoyhn8KMGZ/C5fadwggHnsJ0HZ7CDwucwqJL&#xD;&#xa;msKZtZrCeTWbwqSRncKOHJ/C5E2fwlA8oMLeUZ/CSmSfwozmoMKSrqLC0iagwsBJncKD357CDSKg&#xD;&#xa;wnw1oMLsWp/CPrmfwmsQoMIgBaHCum+iwjvhn8Jk4p3C7xCdwgYcnMK3u53C35WfwkY8ncJ7LpnC&#xD;&#xa;AriXwuw0mcJcsJjCW8eWwh+ulcI70JbCqDmawrYGnMIqmZvC1Imdwg4WncJEjJ3CNt2gwtJcocKs&#xD;&#xa;AqHC0bKfwrxKoMIijaLCRHGiwsuIoMKw95/CdYCgwnOGoMK9VJ7C6ymewq9Nn8IXVp7CtTiewoYx&#xD;&#xa;n8J4fZ/Cz0mcwu4ZncKL2J7CIq6fwrP2ocI24qHCXK2iwqOUosJ/iKHCSOmkwsBFpMJ2IKTCHMan&#xD;&#xa;wjNaqMJIPajCyQiqwl4nq8KQp6rCDweqwhDCqsJZKarCOECpwmcQq8I0b6zCjqGtwqKlrcIYLa3C&#xD;&#xa;QoiswijLq8IsDK3CBbWuwhP3rcJvnazCkp+swg+rrcI8/a3C73Ovwk7Nr8JfQq/CBu6twsOWrcKw&#xD;&#xa;KK7CgjGtwqP0q8IrwqrCCZqnwuF3pMLeUKjCPHSSwtfAicKF55PCbfypwowXrcK2D67CPHetwh/A&#xD;&#xa;rMLMfK3C3NOuwi/ursKAbK7Cp3Guwg9VrsLWw6/Cgm2uwq5lrcLmQK7C6C6uwurCrsIAAK/CuIeu&#xD;&#xa;wrYCscJqPrDC2rqwwrM1sMImOLDCbh2xwpkOsMIP/q/CMNOwwsQ6sMIpL7HC6GixwrJjscJs67DC&#xD;&#xa;cC6xwrzNscIhiLHCDsOwwlrYscKGH7HCiFCwwgYYssKC4rDCPfiwwozWscILvrHCgA6ywvfcscJa&#xD;&#xa;7rDC8iGwwpKLsMIRabHCIQqxwimXscJyXLHCso2wwpCoscIhnbDCzhKwwhfJsMLkb6/CBbSwwm8a&#xD;&#xa;ssLE6LHCNOixwh6KscJSSLHCEhKwwpt3sMLMxLDCczSwwhkIscJVRLLCdTazwmZpscJwPrLCU7Sz&#xD;&#xa;wqxutMKDerPCzt2ywpQYs8JEtLLCdn6ywmZ9ssJsbbDC8y2wwnbbscLwbbHCqvOwwrwRscLGfrHC&#xD;&#xa;KtSywuUhssJd2bDCbp6wwrmGscJEYrHCdFOxwjgTssKFZrLCRq6xwmphscL4M7PCctK0wja6s8Ju&#xD;&#xa;PrTCMv60wm0ItcIuQrTCLNCywh7AssLl7LPCPf20wsgws8JfPrHCLsGwwjmwscK9V7LCzEaywuQr&#xD;&#xa;s8KI0bPCHeS0wlWossKx7rLCWja1wm7AtcKYr7TCRqaywtgassKiN7PCxTO0wliRs8JrcLTCozu1&#xD;&#xa;wofDtMJ65LLC/TSywgCessKiyrPC+oS0wqY9tMKUK7XCKHa0wrgJssLamLLCKwazwto0s8LgSLPC&#xD;&#xa;9Z2zwuJLs8KTNbHC0neywkROtMLcC7TCUNezwldis8KUWbPC8u6ywmbEssJHmrPClZazwnuMs8IX&#xD;&#xa;BLPCXYuywnNessKOU7PCeo60wmi/s8Iw7rPCEIG0wnbZs8KScrPCC62ywnUWtMKw6LTCugWzwkeD&#xD;&#xa;scKVHbHCRsaxwoIls8JbRLLCBo6wwsIgscJoJqzCO8yWwoL1k8L14KPCgUOvwj9XsMKXRK/CTJOf&#xD;&#xa;wqJHksKQypfCOs6uwqkWtMKeWbXCQoezwsiascKWC7HCJOWwwoaUscJcnrHC0IiwwrYsscIcqLLC&#xD;&#xa;DZmxwuyKs8IKCrTCxFqxwhHps8LKxLPC5JeywjXnscJmJrHCap6xwhqmscLG7rHCcxOzwhIAs8J+&#xD;&#xa;vLLCf6OywvfZs8KF0rTCjrSzwmOnssIRhbPCTQm0wsDlscJIebDCGASxwrmQs8LSXLPCePqywgOf&#xD;&#xa;ssKqCbPCp5OxwjWNscKgerDCxK2xwlsjtMIqMLLCeG+ywqD0tMJl8bTC5EmzwqCPs8L4y7PCy0Sz&#xD;&#xa;wuqussLaCLPC+3y0wuhxtsJuPLXCGiCzwm7tssL3ZLLCqBy0wksQt8JIO7jCTxC0wntIscIiQ7PC&#xD;&#xa;dp+1wux9tcJD/bHC7Yuxwu+ts8I9P7HC6MyxwpjHs8IEdrTCbjy0wowPtcKeTbbCSV61wmYqs8Ji&#xD;&#xa;jrPCHIC2wk5ztcLiUbLCSo6ywpZbtcLsarXCrg+1whoWtsIKA7TCK+2zwgkktMIKL7TCqhu3wtJS&#xD;&#xa;ucIEnrrClaK4wqJwtMIPqbXCQCi4wg8Bt8LKy7bCZP25wth2usJ0qrfClpi1wrj3tcK1W7bCc3G3&#xD;&#xa;wnubucKeXLvCdKu9woRov8Lusb7C9rC9wgk1vMLQkrnChSe5wg0Hu8KOeb7Cu9bDwtfFv8JyCLrC&#xD;&#xa;8Vy4wsoCvML+aMDCRrjOwt4lG8LmChbCV9FUwqqUe8KxD4rCWjeMwrwai8JctIfCgEONwvrNkcLV&#xD;&#xa;ipLCQoGQwq9bj8LmN5LCHxCSwuVBksKEl5HCm26Vwu8smMI3rpbCenqWwgr3lcJnM5XC7iWWwm4R&#xD;&#xa;mMLgWJnCXHqYwjrGlsJ6mZfC1z6ZwsiXlsIig5TCPiWVwrS4lsIMTpXCdu6TwjYHlsJDTZbCWOGW&#xD;&#xa;wn0ZmcLYTJrCzpqbwsZRnsIHEJzCMRKbwskQnsLx+J3CiSGbwiOvmsJoH57CV1SfwoYqnsLy/57C&#xD;&#xa;5/+ewkntn8KKyp3CXHecwkQHncJkFJ3CAeaewlZfocLb7qHCcVGfwqk+nsJDkJ/CTw2gwpCXn8JX&#xD;&#xa;oZ7C7+WfwpwZoMKnb5/CJPGewqFyncLGGJ7CK4eewgL2n8KCZp/CR92dwq+SncJA1Z3CnOKbwg5T&#xD;&#xa;msKKxJrC1TCbwqOvncISEZ/CbCWfwtM5oMLmNp/CCB2fwkj3oMLA3qLCiD6gwvRdncKbFZ/CUpug&#xD;&#xa;wphNoMLvUZ/C78WfwuXsn8Kb4KDC6yCiwqWnn8KgqZ3C4sOcwkq4m8I4TJ3Cr2KfwsQrncJENpnC&#xD;&#xa;HdSXws9HmcIAxZjCnNuWwqCelcIm2ZbCbkSawqgNnMK/cpvCeJedwjI7ncJAip3Cc8OgwuqbocKw&#xD;&#xa;YKHCItmfwuuAoMJQbaLC0BKiwjNEoMLytZ/CmFSgwuNuoMImW57Cql6ewrj6nsIqJ57CljCewjcq&#xD;&#xa;n8Lafp/ClzKcwgYNncJr6J7C4smfwhoposKuLaLC0uGiwhV6osI2TqHCcVikwiXoo8IWGaTC7Mqn&#xD;&#xa;wrULqMKlIKjCOvapwjqPq8K47arCzSuqwhUAq8Leo6rCh6upwpUWq8IDYKzCe12twsrkrcLB7K3C&#xD;&#xa;gDStwj4QrMJtsazCajiuwuDSrsJYqa3Ctqatwv8DrsJe6q3CQuGuwrl6r8Jo8a7C3retwoeorcI9&#xD;&#xa;Aa7CEu+swomaq8It1arCNdanwi6wpMLJLqjCTH+Swk7NicLU9ZPCSDmqwuL6rMJ/ya3CkButwvPt&#xD;&#xa;rMKdr63CBJiuwh39rsKUbK7CUtytwhDlrcKHCq/CDPCtwriQrcKPd67CzAOuwrsKrsLkDK7CXO+t&#xD;&#xa;wrn1r8I9Eq/CwN2vwrSsr8JsNLDCkVCywrI7scIaL7DC3JewwuiNsMLmM7HCdnCxwpBascK9ArHC&#xD;&#xa;KGOxwjGqscLOZ7HCZZGxwj1vssJkHLLC3rqxwohFssLfga/CTkmwwrcJssJlMLLCGz6ywveyscJc&#xD;&#xa;YLHC9IuwwoNrsMJLy7DCHvKwwo8gssKO9bHC8JewwhY9scLENbDCCjywwtK+sMKy2K/CN5uwwrTp&#xD;&#xa;scL0Q7HChKCxwttXscKuyrDCkFmwwmfosMJo97DC0p6wwlAWscJRkLLChVazwtN4scIUa7HCJo2y&#xD;&#xa;wsihs8LcN7PCMY+ywtE6ssIw77HC++uywka8ssIDFrDCGhiwwnwfssKA87HC/I6wwqxJsMIyOrHC&#xD;&#xa;K4aywtm8scLsTbHCUsmwwnvescKa5bHCRdixwulussI7hbLCAnyxwraSscKFj7PCPpW0wsxls8KW&#xD;&#xa;VrTCHze1wqUvtcJX/rPCNJaywhcvssIU8rLC6JS0wpoys8IAj7HCfwaxwvWQscJ+SrLCdUWywty0&#xD;&#xa;ssKScLPCvhK1wpccs8IVQrPCAPu0wiGKtcLsnLTCcjOywve4scKgFrPC1je0wv6os8KSSrTCJSS1&#xD;&#xa;wtLMtMJE8rLC8dCxwt5LssLufbPCvju0wqD6s8KEx7TC+kK0wtYussIUzrLCshezwo9Bs8ILSrPC&#xD;&#xa;DquzwkRZs8KcbbHCO7Oywp1vtMLaAbTC+9Szwu0xs8L89rLCF9KywnyMssLYiLPCKdezwsjIs8LE&#xD;&#xa;NLPC6ZSywllfssLwSLPCooa0wrm0s8LC6bPCnn+0wrXSs8KnYrPCBqOywiwFtMKvzLTCGPKywqqA&#xD;&#xa;scKfHbHCLdCxwgYus8LYQrLC6YuwwuUlscJuJKzCicuWwvD0k8Ko4KPC7EGvwsZXsMKgO6/CaJOf&#xD;&#xa;wt9HksLjypfCxs2uwh4DtMIxVrXCDIezwpqPscIXCbHCV+awwnSXscLQjLHC8HawwtAdscKapLLC&#xD;&#xa;HJexwjOCs8LYAbTCLlKxwg/hs8KcwLPCBJWywjrescJBHbHCeJqxwm6oscLR9LHCFBSzwvfwssJy&#xD;&#xa;rbLCJ6Oywsjes8Jk4bTCCbSzwoKfssLYbrPCpQG0wijvscI2grDCmg+xwpSbs8JjYLPCpvGywr2X&#xD;&#xa;ssIkDLPCyJGxwmGGscJfdbDCDqOxwv8GtMKWJ7LC02aywkjitML17LTC8EezwvSXs8JqzrPCSj+z&#xD;&#xa;whK0ssKH/bLCinG0wiRztsL9V7XCEzOzwj7yssKwWbLCpBa0wrr8tsJxJ7jCcRu0wlthscIZSLPC&#xD;&#xa;FaG1wkV8tcJnB7LCXpOxwqmms8JENLHCUtKxwjHis8JjdbTCXDi0wqgStcLLQrbCel+1whQxs8Jc&#xD;&#xa;mrPC2oy2wkl8tcJvULLCco6ywiBptcLCbrXCshS1wvATtsJCAbTCovOzwn4ntMJSL7TC0hW3wlBV&#xD;&#xa;ucLtp7rC0rC4wqiDtMJitbXC5x24wsj+tsLexLbCxNq5wkxausK9p7fCqpu1wh7utcKIVbbCZlu3&#xD;&#xa;wqiKucKdWrvC1qm9whJZv8Lrq77CBLe9wgw6vMLajrnCdTC5woIVu8IBkL7C0/zDwufKv8LeArrC&#xD;&#xa;elO4wrIAvMI3XMDC8J7O" leadInLength="0/1"  />
            </Keyframes>
           </Parameter>
           </Parameters>
           <MetaData>
            <entry key="effectIndex" val="1"/>
           </MetaData>
          </GenericEffect>
         </Effects>
         <Attributes>
          <Attribute id="90" value="" name="ident"/>
          <Attribute id="91" value="0" name="mixToMono"/>
         </Attributes>
         <MetaData>
          <entry key="AutoAppliedSmartFocus" val="False"/>
          <entry key="WinSubProjectDisplayName" val=""/>
         </MetaData>
         <ExtraData>
          <Entry key="ZoomPanBin">
           <ZoomPanBin id="92"  >
            <ZoomPanKeyframes>
             <ZoomPanKeyframe id="93" timeRangeEnd="-9999999/1" timeRangeDuration="0/1" interpolaterName="linr"  />
            </ZoomPanKeyframes>
           </ZoomPanBin>
          </Entry>
          <Entry key="CursorEffectBin">
           <CursorEffectBin id="94"  >
            <CursorEffectKeyframes>
             <CursorEffectKeyframe id="95" timeRangeEnd="-9999999/1" timeRangeDuration="0/1" interpolaterName=""  />
            </CursorEffectKeyframes>
           </CursorEffectBin>
          </Entry>
         </ExtraData>
         <GenericTrack id="96"  >
          <Attributes>
           <Attribute id="97" value="" name="ident"/>
           <Attribute id="98" value="0" name="audioMuted"/>
           <Attribute id="99" value="0" name="videoHidden"/>
          </Attributes>
          <MetaData>
           <entry key="IsLocked" val="False"/>
           <entry key="WinTrackHeight" val="0"/>
          </MetaData>
          <Medias>
           <UnifiedMedia id="100"  >
            <AMFile id="101" start="0" duration="406" scalar="1/1" mediaStart="0/1" mediaDuration="406/1" trackNumber="1" src="4" channelNumber="0,1" >
             <Parameters>
              <InterpolatingParam id="102" interp="linr"  time="0/1" value="1" leadInLength="0/1"  name="volume"/>
              <Parameter id="103"  name="captions"/>
             </Parameters>
             <Attributes>
              <Attribute id="104" value="" name="ident"/>
              <Attribute id="105" value="44100" name="sampleRate"/>
              <Attribute id="106" value="16" name="bitDepth"/>
              <Attribute id="107" value="1" name="gain"/>
              <Attribute id="108" value="0" name="mixToMono"/>
             </Attributes>
            </AMFile>
            <ScreenVMFile id="109" start="0" duration="406" scalar="1/1" mediaStart="0/1" mediaDuration="406/1" trackNumber="0" src="4" >
             <Transformer>
              <VectorParam id="110"  name="translation">
               <InterpolatingParam id="111" interp="linr"  time="-9999999/1" value="0" leadInLength="0/1"  />
               <InterpolatingParam id="112" interp="linr"  time="-9999999/1" value="0" leadInLength="0/1"  />
               <InterpolatingParam id="113" interp="linr"  time="-9999999/1" value="0" leadInLength="0/1"  />
              </VectorParam>
              <VectorParam id="114"  name="rotation">
               <InterpolatingParam id="115" interp="linr"  time="-9999999/1" value="0" leadInLength="0/1"  />
               <InterpolatingParam id="116" interp="linr"  time="-9999999/1" value="0" leadInLength="0/1"  />
               <InterpolatingParam id="117" interp="linr"  time="-9999999/1" value="0" leadInLength="0/1"  />
              </VectorParam>
              <VectorParam id="118"  name="shear">
               <InterpolatingParam id="119" interp="linr"  time="-9999999/1" value="0" leadInLength="0/1"  />
               <InterpolatingParam id="120" interp="linr"  time="-9999999/1" value="0" leadInLength="0/1"  />
               <InterpolatingParam id="121" interp="linr"  time="-9999999/1" value="0" leadInLength="0/1"  />
              </VectorParam>
              <VectorParam id="122"  name="scale">
               <InterpolatingParam id="123" interp="linr"  time="-9999999/1" value="1" leadInLength="0/1"  />
               <InterpolatingParam id="124" interp="linr"  time="-9999999/1" value="1" leadInLength="0/1"  />
               <InterpolatingParam id="125" interp="linr"  time="-9999999/1" value="1" leadInLength="0/1"  />
              </VectorParam>
              <VectorParam id="126"  name="anchor">
               <InterpolatingParam id="127" interp="linr"  time="0/1" value="0" leadInLength="0/1"  />
               <InterpolatingParam id="128" interp="linr"  time="0/1" value="0" leadInLength="0/1"  />
               <InterpolatingParam id="129" interp="linr"  time="0/1" value="0" leadInLength="0/1"  />
              </VectorParam>
             </Transformer>
             <Parameters>
              <VectorParam id="130"  name="sourceCrop">
               <InterpolatingParam id="131" interp="linr"  time="0/1" value="0" leadInLength="0/1"  />
               <InterpolatingParam id="132" interp="linr"  time="0/1" value="0" leadInLength="0/1"  />
               <InterpolatingParam id="133" interp="linr"  time="0/1" value="0" leadInLength="0/1"  />
               <InterpolatingParam id="134" interp="linr"  time="0/1" value="0" leadInLength="0/1"  />
              </VectorParam>
              <VectorParam id="135"  name="geometryCrop">
               <InterpolatingParam id="136" interp="linr"  time="-9999999/1" value="0" leadInLength="0/1"  />
               <InterpolatingParam id="137" interp="linr"  time="-9999999/1" value="0" leadInLength="0/1"  />
               <InterpolatingParam id="138" interp="linr"  time="-9999999/1" value="0" leadInLength="0/1"  />
               <InterpolatingParam id="139" interp="linr"  time="-9999999/1" value="0" leadInLength="0/1"  />
              </VectorParam>
              <InterpolatingParam id="140" interp="linr"  time="-9999999/1" value="1" leadInLength="0/1"  name="opacity"/>
              <InterpolatingParam id="141" interp="linr"  time="0/1" value="0" leadInLength="0/1"  name="cursorOpacity"/>
              <InterpolatingParam id="142" interp="linr"  time="0/1" value="0" leadInLength="0/1"  name="cursorScale"/>
             </Parameters>
             <Attributes>
              <Attribute id="143" value="" name="ident"/>
             </Attributes>
             <ExtraData>
              <Entry key="ZoomPanBin">
               <ZoomPanBin id="144"  >
                <ZoomPanKeyframes>
                 <ZoomPanKeyframe id="145" timeRangeEnd="-9999999/1" timeRangeDuration="0/1" interpolaterName=""  />
                </ZoomPanKeyframes>
               </ZoomPanBin>
              </Entry>
              <Entry key="CursorEffectBin">
               <CursorEffectBin id="146"  >
                <CursorEffectKeyframes>
                </CursorEffectKeyframes>
               </CursorEffectBin>
              </Entry>
             </ExtraData>
            </ScreenVMFile>
            <MetaData>
             <entry key="AutoAppliedSmartFocus" val="False"/>
             <entry key="WinSubProjectDisplayName" val=""/>
            </MetaData>
           </UnifiedMedia>
           <UnifiedMedia id="147"  >
            <AMFile id="148" start="406" duration="146" scalar="1/1" mediaStart="421/1" mediaDuration="146/1" trackNumber="1" src="4" channelNumber="0,1" >
             <Parameters>
              <InterpolatingParam id="149" interp="linr"  time="0/1" value="1" leadInLength="0/1"  name="volume"/>
              <Parameter id="150"  name="captions"/>
             </Parameters>
             <Attributes>
              <Attribute id="151" value="" name="ident"/>
              <Attribute id="152" value="44100" name="sampleRate"/>
              <Attribute id="153" value="16" name="bitDepth"/>
              <Attribute id="154" value="1" name="gain"/>
              <Attribute id="155" value="0" name="mixToMono"/>
             </Attributes>
            </AMFile>
            <ScreenVMFile id="156" start="406" duration="146" scalar="1/1" mediaStart="421/1" mediaDuration="146/1" trackNumber="0" src="4" >
             <Transformer>
              <VectorParam id="157"  name="translation">
               <InterpolatingParam id="158" interp="linr"  time="-9999999/1" value="0" leadInLength="0/1"  />
               <InterpolatingParam id="159" interp="linr"  time="-9999999/1" value="0" leadInLength="0/1"  />
               <InterpolatingParam id="160" interp="linr"  time="-9999999/1" value="0" leadInLength="0/1"  />
              </VectorParam>
              <VectorParam id="161"  name="rotation">
               <InterpolatingParam id="162" interp="linr"  time="-9999999/1" value="0" leadInLength="0/1"  />
               <InterpolatingParam id="163" interp="linr"  time="-9999999/1" value="0" leadInLength="0/1"  />
               <InterpolatingParam id="164" interp="linr"  time="-9999999/1" value="0" leadInLength="0/1"  />
              </VectorParam>
              <VectorParam id="165"  name="shear">
               <InterpolatingParam id="166" interp="linr"  time="-9999999/1" value="0" leadInLength="0/1"  />
               <InterpolatingParam id="167" interp="linr"  time="-9999999/1" value="0" leadInLength="0/1"  />
               <InterpolatingParam id="168" interp="linr"  time="-9999999/1" value="0" leadInLength="0/1"  />
              </VectorParam>
              <VectorParam id="169"  name="scale">
               <InterpolatingParam id="170" interp="linr"  time="-9999999/1" value="1" leadInLength="0/1"  />
               <InterpolatingParam id="171" interp="linr"  time="-9999999/1" value="1" leadInLength="0/1"  />
               <InterpolatingParam id="172" interp="linr"  time="-9999999/1" value="1" leadInLength="0/1"  />
              </VectorParam>
              <VectorParam id="173"  name="anchor">
               <InterpolatingParam id="174" interp="linr"  time="0/1" value="0" leadInLength="0/1"  />
               <InterpolatingParam id="175" interp="linr"  time="0/1" value="0" leadInLength="0/1"  />
               <InterpolatingParam id="176" interp="linr"  time="0/1" value="0" leadInLength="0/1"  />
              </VectorParam>
             </Transformer>
             <Parameters>
              <VectorParam id="177"  name="sourceCrop">
               <InterpolatingParam id="178" interp="linr"  time="0/1" value="0" leadInLength="0/1"  />
               <InterpolatingParam id="179" interp="linr"  time="0/1" value="0" leadInLength="0/1"  />
               <InterpolatingParam id="180" interp="linr"  time="0/1" value="0" leadInLength="0/1"  />
               <InterpolatingParam id="181" interp="linr"  time="0/1" value="0" leadInLength="0/1"  />
              </VectorParam>
              <VectorParam id="182"  name="geometryCrop">
               <InterpolatingParam id="183" interp="linr"  time="-9999999/1" value="0" leadInLength="0/1"  />
               <InterpolatingParam id="184" interp="linr"  time="-9999999/1" value="0" leadInLength="0/1"  />
               <InterpolatingParam id="185" interp="linr"  time="-9999999/1" value="0" leadInLength="0/1"  />
               <InterpolatingParam id="186" interp="linr"  time="-9999999/1" value="0" leadInLength="0/1"  />
              </VectorParam>
              <InterpolatingParam id="187" interp="linr"  time="-9999999/1" value="1" leadInLength="0/1"  name="opacity"/>
              <InterpolatingParam id="188" interp="linr"  time="0/1" value="0" leadInLength="0/1"  name="cursorOpacity"/>
              <InterpolatingParam id="189" interp="linr"  time="0/1" value="0" leadInLength="0/1"  name="cursorScale"/>
             </Parameters>
             <Attributes>
              <Attribute id="190" value="" name="ident"/>
             </Attributes>
             <ExtraData>
              <Entry key="ZoomPanBin">
               <ZoomPanBin id="191"  >
                <ZoomPanKeyframes>
                 <ZoomPanKeyframe id="192" timeRangeEnd="-9999999/1" timeRangeDuration="0/1" interpolaterName=""  />
                </ZoomPanKeyframes>
               </ZoomPanBin>
              </Entry>
              <Entry key="CursorEffectBin">
               <CursorEffectBin id="193"  >
                <CursorEffectKeyframes>
                </CursorEffectKeyframes>
               </CursorEffectBin>
              </Entry>
             </ExtraData>
            </ScreenVMFile>
            <MetaData>
             <entry key="AutoAppliedSmartFocus" val="False"/>
             <entry key="WinSubProjectDisplayName" val=""/>
            </MetaData>
           </UnifiedMedia>
           <UnifiedMedia id="194"  >
            <AMFile id="195" start="552" duration="216" scalar="1/1" mediaStart="938/1" mediaDuration="216/1" trackNumber="1" src="4" channelNumber="0,1" >
             <Parameters>
              <InterpolatingParam id="196" interp="linr"  time="0/1" value="1" leadInLength="0/1"  name="volume"/>
              <Parameter id="197"  name="captions"/>
             </Parameters>
             <Attributes>
              <Attribute id="198" value="" name="ident"/>
              <Attribute id="199" value="44100" name="sampleRate"/>
              <Attribute id="200" value="16" name="bitDepth"/>
              <Attribute id="201" value="1" name="gain"/>
              <Attribute id="202" value="0" name="mixToMono"/>
             </Attributes>
            </AMFile>
            <ScreenVMFile id="203" start="552" duration="216" scalar="1/1" mediaStart="938/1" mediaDuration="216/1" trackNumber="0" src="4" >
             <Transformer>
              <VectorParam id="204"  name="translation">
               <InterpolatingParam id="205" interp="linr"  time="-9999999/1" value="0" leadInLength="0/1"  />
               <InterpolatingParam id="206" interp="linr"  time="-9999999/1" value="0" leadInLength="0/1"  />
               <InterpolatingParam id="207" interp="linr"  time="-9999999/1" value="0" leadInLength="0/1"  />
              </VectorParam>
              <VectorParam id="208"  name="rotation">
               <InterpolatingParam id="209" interp="linr"  time="-9999999/1" value="0" leadInLength="0/1"  />
               <InterpolatingParam id="210" interp="linr"  time="-9999999/1" value="0" leadInLength="0/1"  />
               <InterpolatingParam id="211" interp="linr"  time="-9999999/1" value="0" leadInLength="0/1"  />
              </VectorParam>
              <VectorParam id="212"  name="shear">
               <InterpolatingParam id="213" interp="linr"  time="-9999999/1" value="0" leadInLength="0/1"  />
               <InterpolatingParam id="214" interp="linr"  time="-9999999/1" value="0" leadInLength="0/1"  />
               <InterpolatingParam id="215" interp="linr"  time="-9999999/1" value="0" leadInLength="0/1"  />
              </VectorParam>
              <VectorParam id="216"  name="scale">
               <InterpolatingParam id="217" interp="linr"  time="-9999999/1" value="1" leadInLength="0/1"  />
               <InterpolatingParam id="218" interp="linr"  time="-9999999/1" value="1" leadInLength="0/1"  />
               <InterpolatingParam id="219" interp="linr"  time="-9999999/1" value="1" leadInLength="0/1"  />
              </VectorParam>
              <VectorParam id="220"  name="anchor">
               <InterpolatingParam id="221" interp="linr"  time="0/1" value="0" leadInLength="0/1"  />
               <InterpolatingParam id="222" interp="linr"  time="0/1" value="0" leadInLength="0/1"  />
               <InterpolatingParam id="223" interp="linr"  time="0/1" value="0" leadInLength="0/1"  />
              </VectorParam>
             </Transformer>
             <Parameters>
              <VectorParam id="224"  name="sourceCrop">
               <InterpolatingParam id="225" interp="linr"  time="0/1" value="0" leadInLength="0/1"  />
               <InterpolatingParam id="226" interp="linr"  time="0/1" value="0" leadInLength="0/1"  />
               <InterpolatingParam id="227" interp="linr"  time="0/1" value="0" leadInLength="0/1"  />
               <InterpolatingParam id="228" interp="linr"  time="0/1" value="0" leadInLength="0/1"  />
              </VectorParam>
              <VectorParam id="229"  name="geometryCrop">
               <InterpolatingParam id="230" interp="linr"  time="-9999999/1" value="0" leadInLength="0/1"  />
               <InterpolatingParam id="231" interp="linr"  time="-9999999/1" value="0" leadInLength="0/1"  />
               <InterpolatingParam id="232" interp="linr"  time="-9999999/1" value="0" leadInLength="0/1"  />
               <InterpolatingParam id="233" interp="linr"  time="-9999999/1" value="0" leadInLength="0/1"  />
              </VectorParam>
              <InterpolatingParam id="234" interp="linr"  time="-9999999/1" value="1" leadInLength="0/1"  name="opacity"/>
              <InterpolatingParam id="235" interp="linr"  time="0/1" value="0" leadInLength="0/1"  name="cursorOpacity"/>
              <InterpolatingParam id="236" interp="linr"  time="0/1" value="0" leadInLength="0/1"  name="cursorScale"/>
             </Parameters>
             <Attributes>
              <Attribute id="237" value="" name="ident"/>
             </Attributes>
             <ExtraData>
              <Entry key="ZoomPanBin">
               <ZoomPanBin id="238"  >
                <ZoomPanKeyframes>
                 <ZoomPanKeyframe id="239" timeRangeEnd="-9999999/1" timeRangeDuration="0/1" interpolaterName=""  />
                </ZoomPanKeyframes>
               </ZoomPanBin>
              </Entry>
              <Entry key="CursorEffectBin">
               <CursorEffectBin id="240"  >
                <CursorEffectKeyframes>
                </CursorEffectKeyframes>
               </CursorEffectBin>
              </Entry>
             </ExtraData>
            </ScreenVMFile>
            <MetaData>
             <entry key="AutoAppliedSmartFocus" val="False"/>
             <entry key="WinSubProjectDisplayName" val=""/>
            </MetaData>
           </UnifiedMedia>
           <UnifiedMedia id="241"  >
            <AMFile id="242" start="768" duration="132" scalar="1/1" mediaStart="1255/1" mediaDuration="132/1" trackNumber="1" src="4" channelNumber="0,1" >
             <Parameters>
              <InterpolatingParam id="243" interp="linr"  time="0/1" value="1" leadInLength="0/1"  name="volume"/>
              <Parameter id="244"  name="captions"/>
             </Parameters>
             <Attributes>
              <Attribute id="245" value="" name="ident"/>
              <Attribute id="246" value="44100" name="sampleRate"/>
              <Attribute id="247" value="16" name="bitDepth"/>
              <Attribute id="248" value="1" name="gain"/>
              <Attribute id="249" value="0" name="mixToMono"/>
             </Attributes>
            </AMFile>
            <ScreenVMFile id="250" start="768" duration="132" scalar="1/1" mediaStart="1255/1" mediaDuration="132/1" trackNumber="0" src="4" >
             <Transformer>
              <VectorParam id="251"  name="translation">
               <InterpolatingParam id="252" interp="linr"  time="-9999999/1" value="0" leadInLength="0/1"  />
               <InterpolatingParam id="253" interp="linr"  time="-9999999/1" value="0" leadInLength="0/1"  />
               <InterpolatingParam id="254" interp="linr"  time="-9999999/1" value="0" leadInLength="0/1"  />
              </VectorParam>
              <VectorParam id="255"  name="rotation">
               <InterpolatingParam id="256" interp="linr"  time="-9999999/1" value="0" leadInLength="0/1"  />
               <InterpolatingParam id="257" interp="linr"  time="-9999999/1" value="0" leadInLength="0/1"  />
               <InterpolatingParam id="258" interp="linr"  time="-9999999/1" value="0" leadInLength="0/1"  />
              </VectorParam>
              <VectorParam id="259"  name="shear">
               <InterpolatingParam id="260" interp="linr"  time="-9999999/1" value="0" leadInLength="0/1"  />
               <InterpolatingParam id="261" interp="linr"  time="-9999999/1" value="0" leadInLength="0/1"  />
               <InterpolatingParam id="262" interp="linr"  time="-9999999/1" value="0" leadInLength="0/1"  />
              </VectorParam>
              <VectorParam id="263"  name="scale">
               <InterpolatingParam id="264" interp="linr"  time="-9999999/1" value="1" leadInLength="0/1"  />
               <InterpolatingParam id="265" interp="linr"  time="-9999999/1" value="1" leadInLength="0/1"  />
               <InterpolatingParam id="266" interp="linr"  time="-9999999/1" value="1" leadInLength="0/1"  />
              </VectorParam>
              <VectorParam id="267"  name="anchor">
               <InterpolatingParam id="268" interp="linr"  time="0/1" value="0" leadInLength="0/1"  />
               <InterpolatingParam id="269" interp="linr"  time="0/1" value="0" leadInLength="0/1"  />
               <InterpolatingParam id="270" interp="linr"  time="0/1" value="0" leadInLength="0/1"  />
              </VectorParam>
             </Transformer>
             <Parameters>
              <VectorParam id="271"  name="sourceCrop">
               <InterpolatingParam id="272" interp="linr"  time="0/1" value="0" leadInLength="0/1"  />
               <InterpolatingParam id="273" interp="linr"  time="0/1" value="0" leadInLength="0/1"  />
               <InterpolatingParam id="274" interp="linr"  time="0/1" value="0" leadInLength="0/1"  />
               <InterpolatingParam id="275" interp="linr"  time="0/1" value="0" leadInLength="0/1"  />
              </VectorParam>
              <VectorParam id="276"  name="geometryCrop">
               <InterpolatingParam id="277" interp="linr"  time="-9999999/1" value="0" leadInLength="0/1"  />
               <InterpolatingParam id="278" interp="linr"  time="-9999999/1" value="0" leadInLength="0/1"  />
               <InterpolatingParam id="279" interp="linr"  time="-9999999/1" value="0" leadInLength="0/1"  />
               <InterpolatingParam id="280" interp="linr"  time="-9999999/1" value="0" leadInLength="0/1"  />
              </VectorParam>
              <InterpolatingParam id="281" interp="linr"  time="-9999999/1" value="1" leadInLength="0/1"  name="opacity"/>
              <InterpolatingParam id="282" interp="linr"  time="0/1" value="0" leadInLength="0/1"  name="cursorOpacity"/>
              <InterpolatingParam id="283" interp="linr"  time="0/1" value="0" leadInLength="0/1"  name="cursorScale"/>
             </Parameters>
             <Attributes>
              <Attribute id="284" value="" name="ident"/>
             </Attributes>
             <ExtraData>
              <Entry key="ZoomPanBin">
               <ZoomPanBin id="285"  >
                <ZoomPanKeyframes>
                 <ZoomPanKeyframe id="286" timeRangeEnd="-9999999/1" timeRangeDuration="0/1" interpolaterName=""  />
                </ZoomPanKeyframes>
               </ZoomPanBin>
              </Entry>
              <Entry key="CursorEffectBin">
               <CursorEffectBin id="287"  >
                <CursorEffectKeyframes>
                </CursorEffectKeyframes>
               </CursorEffectBin>
              </Entry>
             </ExtraData>
            </ScreenVMFile>
            <MetaData>
             <entry key="AutoAppliedSmartFocus" val="False"/>
             <entry key="WinSubProjectDisplayName" val=""/>
            </MetaData>
           </UnifiedMedia>
           <UnifiedMedia id="288"  >
            <AMFile id="289" start="900" duration="72" scalar="1/1" mediaStart="1442/1" mediaDuration="72/1" trackNumber="1" src="4" channelNumber="0,1" >
             <Parameters>
              <InterpolatingParam id="290" interp="linr"  time="0/1" value="1" leadInLength="0/1"  name="volume"/>
              <Parameter id="291"  name="captions"/>
             </Parameters>
             <Attributes>
              <Attribute id="292" value="" name="ident"/>
              <Attribute id="293" value="44100" name="sampleRate"/>
              <Attribute id="294" value="16" name="bitDepth"/>
              <Attribute id="295" value="1" name="gain"/>
              <Attribute id="296" value="0" name="mixToMono"/>
             </Attributes>
            </AMFile>
            <ScreenVMFile id="297" start="900" duration="72" scalar="1/1" mediaStart="1442/1" mediaDuration="72/1" trackNumber="0" src="4" >
             <Transformer>
              <VectorParam id="298"  name="translation">
               <InterpolatingParam id="299" interp="linr"  time="-9999999/1" value="0" leadInLength="0/1"  />
               <InterpolatingParam id="300" interp="linr"  time="-9999999/1" value="0" leadInLength="0/1"  />
               <InterpolatingParam id="301" interp="linr"  time="-9999999/1" value="0" leadInLength="0/1"  />
              </VectorParam>
              <VectorParam id="302"  name="rotation">
               <InterpolatingParam id="303" interp="linr"  time="-9999999/1" value="0" leadInLength="0/1"  />
               <InterpolatingParam id="304" interp="linr"  time="-9999999/1" value="0" leadInLength="0/1"  />
               <InterpolatingParam id="305" interp="linr"  time="-9999999/1" value="0" leadInLength="0/1"  />
              </VectorParam>
              <VectorParam id="306"  name="shear">
               <InterpolatingParam id="307" interp="linr"  time="-9999999/1" value="0" leadInLength="0/1"  />
               <InterpolatingParam id="308" interp="linr"  time="-9999999/1" value="0" leadInLength="0/1"  />
               <InterpolatingParam id="309" interp="linr"  time="-9999999/1" value="0" leadInLength="0/1"  />
              </VectorParam>
              <VectorParam id="310"  name="scale">
               <InterpolatingParam id="311" interp="linr"  time="-9999999/1" value="1" leadInLength="0/1"  />
               <InterpolatingParam id="312" interp="linr"  time="-9999999/1" value="1" leadInLength="0/1"  />
               <InterpolatingParam id="313" interp="linr"  time="-9999999/1" value="1" leadInLength="0/1"  />
              </VectorParam>
              <VectorParam id="314"  name="anchor">
               <InterpolatingParam id="315" interp="linr"  time="0/1" value="0" leadInLength="0/1"  />
               <InterpolatingParam id="316" interp="linr"  time="0/1" value="0" leadInLength="0/1"  />
               <InterpolatingParam id="317" interp="linr"  time="0/1" value="0" leadInLength="0/1"  />
              </VectorParam>
             </Transformer>
             <Parameters>
              <VectorParam id="318"  name="sourceCrop">
               <InterpolatingParam id="319" interp="linr"  time="0/1" value="0" leadInLength="0/1"  />
               <InterpolatingParam id="320" interp="linr"  time="0/1" value="0" leadInLength="0/1"  />
               <InterpolatingParam id="321" interp="linr"  time="0/1" value="0" leadInLength="0/1"  />
               <InterpolatingParam id="322" interp="linr"  time="0/1" value="0" leadInLength="0/1"  />
              </VectorParam>
              <VectorParam id="323"  name="geometryCrop">
               <InterpolatingParam id="324" interp="linr"  time="-9999999/1" value="0" leadInLength="0/1"  />
               <InterpolatingParam id="325" interp="linr"  time="-9999999/1" value="0" leadInLength="0/1"  />
               <InterpolatingParam id="326" interp="linr"  time="-9999999/1" value="0" leadInLength="0/1"  />
               <InterpolatingParam id="327" interp="linr"  time="-9999999/1" value="0" leadInLength="0/1"  />
              </VectorParam>
              <InterpolatingParam id="328" interp="linr"  time="-9999999/1" value="1" leadInLength="0/1"  name="opacity"/>
              <InterpolatingParam id="329" interp="linr"  time="0/1" value="0" leadInLength="0/1"  name="cursorOpacity"/>
              <InterpolatingParam id="330" interp="linr"  time="0/1" value="0" leadInLength="0/1"  name="cursorScale"/>
             </Parameters>
             <Attributes>
              <Attribute id="331" value="" name="ident"/>
             </Attributes>
             <ExtraData>
              <Entry key="ZoomPanBin">
               <ZoomPanBin id="332"  >
                <ZoomPanKeyframes>
                 <ZoomPanKeyframe id="333" timeRangeEnd="-9999999/1" timeRangeDuration="0/1" interpolaterName=""  />
                </ZoomPanKeyframes>
               </ZoomPanBin>
              </Entry>
              <Entry key="CursorEffectBin">
               <CursorEffectBin id="334"  >
                <CursorEffectKeyframes>
                </CursorEffectKeyframes>
               </CursorEffectBin>
              </Entry>
             </ExtraData>
            </ScreenVMFile>
            <MetaData>
             <entry key="AutoAppliedSmartFocus" val="False"/>
             <entry key="WinSubProjectDisplayName" val=""/>
            </MetaData>
           </UnifiedMedia>
           <UnifiedMedia id="335"  >
            <AMFile id="336" start="972" duration="128" scalar="1/1" mediaStart="1568/1" mediaDuration="128/1" trackNumber="1" src="4" channelNumber="0,1" >
             <Parameters>
              <InterpolatingParam id="337" interp="linr"  time="0/1" value="1" leadInLength="0/1"  name="volume"/>
              <Parameter id="338"  name="captions"/>
             </Parameters>
             <Attributes>
              <Attribute id="339" value="" name="ident"/>
              <Attribute id="340" value="44100" name="sampleRate"/>
              <Attribute id="341" value="16" name="bitDepth"/>
              <Attribute id="342" value="1" name="gain"/>
              <Attribute id="343" value="0" name="mixToMono"/>
             </Attributes>
            </AMFile>
            <ScreenVMFile id="344" start="972" duration="128" scalar="1/1" mediaStart="1568/1" mediaDuration="128/1" trackNumber="0" src="4" >
             <Transformer>
              <VectorParam id="345"  name="translation">
               <InterpolatingParam id="346" interp="linr"  time="-9999999/1" value="0" leadInLength="0/1"  />
               <InterpolatingParam id="347" interp="linr"  time="-9999999/1" value="0" leadInLength="0/1"  />
               <InterpolatingParam id="348" interp="linr"  time="-9999999/1" value="0" leadInLength="0/1"  />
              </VectorParam>
              <VectorParam id="349"  name="rotation">
               <InterpolatingParam id="350" interp="linr"  time="-9999999/1" value="0" leadInLength="0/1"  />
               <InterpolatingParam id="351" interp="linr"  time="-9999999/1" value="0" leadInLength="0/1"  />
               <InterpolatingParam id="352" interp="linr"  time="-9999999/1" value="0" leadInLength="0/1"  />
              </VectorParam>
              <VectorParam id="353"  name="shear">
               <InterpolatingParam id="354" interp="linr"  time="-9999999/1" value="0" leadInLength="0/1"  />
               <InterpolatingParam id="355" interp="linr"  time="-9999999/1" value="0" leadInLength="0/1"  />
               <InterpolatingParam id="356" interp="linr"  time="-9999999/1" value="0" leadInLength="0/1"  />
              </VectorParam>
              <VectorParam id="357"  name="scale">
               <InterpolatingParam id="358" interp="linr"  time="-9999999/1" value="1" leadInLength="0/1"  />
               <InterpolatingParam id="359" interp="linr"  time="-9999999/1" value="1" leadInLength="0/1"  />
               <InterpolatingParam id="360" interp="linr"  time="-9999999/1" value="1" leadInLength="0/1"  />
              </VectorParam>
              <VectorParam id="361"  name="anchor">
               <InterpolatingParam id="362" interp="linr"  time="0/1" value="0" leadInLength="0/1"  />
               <InterpolatingParam id="363" interp="linr"  time="0/1" value="0" leadInLength="0/1"  />
               <InterpolatingParam id="364" interp="linr"  time="0/1" value="0" leadInLength="0/1"  />
              </VectorParam>
             </Transformer>
             <Parameters>
              <VectorParam id="365"  name="sourceCrop">
               <InterpolatingParam id="366" interp="linr"  time="0/1" value="0" leadInLength="0/1"  />
               <InterpolatingParam id="367" interp="linr"  time="0/1" value="0" leadInLength="0/1"  />
               <InterpolatingParam id="368" interp="linr"  time="0/1" value="0" leadInLength="0/1"  />
               <InterpolatingParam id="369" interp="linr"  time="0/1" value="0" leadInLength="0/1"  />
              </VectorParam>
              <VectorParam id="370"  name="geometryCrop">
               <InterpolatingParam id="371" interp="linr"  time="-9999999/1" value="0" leadInLength="0/1"  />
               <InterpolatingParam id="372" interp="linr"  time="-9999999/1" value="0" leadInLength="0/1"  />
               <InterpolatingParam id="373" interp="linr"  time="-9999999/1" value="0" leadInLength="0/1"  />
               <InterpolatingParam id="374" interp="linr"  time="-9999999/1" value="0" leadInLength="0/1"  />
              </VectorParam>
              <InterpolatingParam id="375" interp="linr"  time="-9999999/1" value="1" leadInLength="0/1"  name="opacity"/>
              <InterpolatingParam id="376" interp="linr"  time="0/1" value="0" leadInLength="0/1"  name="cursorOpacity"/>
              <InterpolatingParam id="377" interp="linr"  time="0/1" value="0" leadInLength="0/1"  name="cursorScale"/>
             </Parameters>
             <Attributes>
              <Attribute id="378" value="" name="ident"/>
             </Attributes>
             <ExtraData>
              <Entry key="ZoomPanBin">
               <ZoomPanBin id="379"  >
                <ZoomPanKeyframes>
                 <ZoomPanKeyframe id="380" timeRangeEnd="-9999999/1" timeRangeDuration="0/1" interpolaterName=""  />
                </ZoomPanKeyframes>
               </ZoomPanBin>
              </Entry>
              <Entry key="CursorEffectBin">
               <CursorEffectBin id="381"  >
                <CursorEffectKeyframes>
                </CursorEffectKeyframes>
               </CursorEffectBin>
              </Entry>
             </ExtraData>
            </ScreenVMFile>
            <MetaData>
             <entry key="AutoAppliedSmartFocus" val="False"/>
             <entry key="WinSubProjectDisplayName" val=""/>
            </MetaData>
           </UnifiedMedia>
           <UnifiedMedia id="382"  >
            <AMFile id="383" start="1100" duration="3" scalar="1/1" mediaStart="1786/1" mediaDuration="3/1" trackNumber="1" src="4" channelNumber="0,1" >
             <Parameters>
              <InterpolatingParam id="384" interp="linr"  time="0/1" value="1" leadInLength="0/1"  name="volume"/>
              <Parameter id="385"  name="captions"/>
             </Parameters>
             <Attributes>
              <Attribute id="386" value="" name="ident"/>
              <Attribute id="387" value="44100" name="sampleRate"/>
              <Attribute id="388" value="16" name="bitDepth"/>
              <Attribute id="389" value="1" name="gain"/>
              <Attribute id="390" value="0" name="mixToMono"/>
             </Attributes>
            </AMFile>
            <ScreenVMFile id="391" start="1100" duration="3" scalar="1/1" mediaStart="1786/1" mediaDuration="3/1" trackNumber="0" src="4" >
             <Transformer>
              <VectorParam id="392"  name="translation">
               <InterpolatingParam id="393" interp="linr"  time="-9999999/1" value="0" leadInLength="0/1"  />
               <InterpolatingParam id="394" interp="linr"  time="-9999999/1" value="0" leadInLength="0/1"  />
               <InterpolatingParam id="395" interp="linr"  time="-9999999/1" value="0" leadInLength="0/1"  />
              </VectorParam>
              <VectorParam id="396"  name="rotation">
               <InterpolatingParam id="397" interp="linr"  time="-9999999/1" value="0" leadInLength="0/1"  />
               <InterpolatingParam id="398" interp="linr"  time="-9999999/1" value="0" leadInLength="0/1"  />
               <InterpolatingParam id="399" interp="linr"  time="-9999999/1" value="0" leadInLength="0/1"  />
              </VectorParam>
              <VectorParam id="400"  name="shear">
               <InterpolatingParam id="401" interp="linr"  time="-9999999/1" value="0" leadInLength="0/1"  />
               <InterpolatingParam id="402" interp="linr"  time="-9999999/1" value="0" leadInLength="0/1"  />
               <InterpolatingParam id="403" interp="linr"  time="-9999999/1" value="0" leadInLength="0/1"  />
              </VectorParam>
              <VectorParam id="404"  name="scale">
               <InterpolatingParam id="405" interp="linr"  time="-9999999/1" value="1" leadInLength="0/1"  />
               <InterpolatingParam id="406" interp="linr"  time="-9999999/1" value="1" leadInLength="0/1"  />
               <InterpolatingParam id="407" interp="linr"  time="-9999999/1" value="1" leadInLength="0/1"  />
              </VectorParam>
              <VectorParam id="408"  name="anchor">
               <InterpolatingParam id="409" interp="linr"  time="0/1" value="0" leadInLength="0/1"  />
               <InterpolatingParam id="410" interp="linr"  time="0/1" value="0" leadInLength="0/1"  />
               <InterpolatingParam id="411" interp="linr"  time="0/1" value="0" leadInLength="0/1"  />
              </VectorParam>
             </Transformer>
             <Parameters>
              <VectorParam id="412"  name="sourceCrop">
               <InterpolatingParam id="413" interp="linr"  time="0/1" value="0" leadInLength="0/1"  />
               <InterpolatingParam id="414" interp="linr"  time="0/1" value="0" leadInLength="0/1"  />
               <InterpolatingParam id="415" interp="linr"  time="0/1" value="0" leadInLength="0/1"  />
               <InterpolatingParam id="416" interp="linr"  time="0/1" value="0" leadInLength="0/1"  />
              </VectorParam>
              <VectorParam id="417"  name="geometryCrop">
               <InterpolatingParam id="418" interp="linr"  time="-9999999/1" value="0" leadInLength="0/1"  />
               <InterpolatingParam id="419" interp="linr"  time="-9999999/1" value="0" leadInLength="0/1"  />
               <InterpolatingParam id="420" interp="linr"  time="-9999999/1" value="0" leadInLength="0/1"  />
               <InterpolatingParam id="421" interp="linr"  time="-9999999/1" value="0" leadInLength="0/1"  />
              </VectorParam>
              <InterpolatingParam id="422" interp="linr"  time="-9999999/1" value="1" leadInLength="0/1"  name="opacity"/>
              <InterpolatingParam id="423" interp="linr"  time="0/1" value="0" leadInLength="0/1"  name="cursorOpacity"/>
              <InterpolatingParam id="424" interp="linr"  time="0/1" value="0" leadInLength="0/1"  name="cursorScale"/>
             </Parameters>
             <Attributes>
              <Attribute id="425" value="" name="ident"/>
             </Attributes>
             <ExtraData>
              <Entry key="ZoomPanBin">
               <ZoomPanBin id="426"  >
                <ZoomPanKeyframes>
                 <ZoomPanKeyframe id="427" timeRangeEnd="-9999999/1" timeRangeDuration="0/1" interpolaterName=""  />
                </ZoomPanKeyframes>
               </ZoomPanBin>
              </Entry>
              <Entry key="CursorEffectBin">
               <CursorEffectBin id="428"  >
                <CursorEffectKeyframes>
                </CursorEffectKeyframes>
               </CursorEffectBin>
              </Entry>
             </ExtraData>
            </ScreenVMFile>
            <MetaData>
             <entry key="AutoAppliedSmartFocus" val="False"/>
             <entry key="WinSubProjectDisplayName" val=""/>
            </MetaData>
           </UnifiedMedia>
           <UnifiedMedia id="429"  >
            <AMFile id="430" start="1103" duration="116" scalar="1/1" mediaStart="2397/1" mediaDuration="116/1" trackNumber="1" src="4" channelNumber="0,1" >
             <Parameters>
              <InterpolatingParam id="431" interp="linr"  time="0/1" value="1" leadInLength="0/1"  name="volume"/>
              <Parameter id="432"  name="captions"/>
             </Parameters>
             <Attributes>
              <Attribute id="433" value="" name="ident"/>
              <Attribute id="434" value="44100" name="sampleRate"/>
              <Attribute id="435" value="16" name="bitDepth"/>
              <Attribute id="436" value="1" name="gain"/>
              <Attribute id="437" value="0" name="mixToMono"/>
             </Attributes>
            </AMFile>
            <ScreenVMFile id="438" start="1103" duration="116" scalar="1/1" mediaStart="2397/1" mediaDuration="116/1" trackNumber="0" src="4" >
             <Transformer>
              <VectorParam id="439"  name="translation">
               <InterpolatingParam id="440" interp="linr"  time="-9999999/1" value="0" leadInLength="0/1"  />
               <InterpolatingParam id="441" interp="linr"  time="-9999999/1" value="0" leadInLength="0/1"  />
               <InterpolatingParam id="442" interp="linr"  time="-9999999/1" value="0" leadInLength="0/1"  />
              </VectorParam>
              <VectorParam id="443"  name="rotation">
               <InterpolatingParam id="444" interp="linr"  time="-9999999/1" value="0" leadInLength="0/1"  />
               <InterpolatingParam id="445" interp="linr"  time="-9999999/1" value="0" leadInLength="0/1"  />
               <InterpolatingParam id="446" interp="linr"  time="-9999999/1" value="0" leadInLength="0/1"  />
              </VectorParam>
              <VectorParam id="447"  name="shear">
               <InterpolatingParam id="448" interp="linr"  time="-9999999/1" value="0" leadInLength="0/1"  />
               <InterpolatingParam id="449" interp="linr"  time="-9999999/1" value="0" leadInLength="0/1"  />
               <InterpolatingParam id="450" interp="linr"  time="-9999999/1" value="0" leadInLength="0/1"  />
              </VectorParam>
              <VectorParam id="451"  name="scale">
               <InterpolatingParam id="452" interp="linr"  time="-9999999/1" value="1" leadInLength="0/1"  />
               <InterpolatingParam id="453" interp="linr"  time="-9999999/1" value="1" leadInLength="0/1"  />
               <InterpolatingParam id="454" interp="linr"  time="-9999999/1" value="1" leadInLength="0/1"  />
              </VectorParam>
              <VectorParam id="455"  name="anchor">
               <InterpolatingParam id="456" interp="linr"  time="0/1" value="0" leadInLength="0/1"  />
               <InterpolatingParam id="457" interp="linr"  time="0/1" value="0" leadInLength="0/1"  />
               <InterpolatingParam id="458" interp="linr"  time="0/1" value="0" leadInLength="0/1"  />
              </VectorParam>
             </Transformer>
             <Parameters>
              <VectorParam id="459"  name="sourceCrop">
               <InterpolatingParam id="460" interp="linr"  time="0/1" value="0" leadInLength="0/1"  />
               <InterpolatingParam id="461" interp="linr"  time="0/1" value="0" leadInLength="0/1"  />
               <InterpolatingParam id="462" interp="linr"  time="0/1" value="0" leadInLength="0/1"  />
               <InterpolatingParam id="463" interp="linr"  time="0/1" value="0" leadInLength="0/1"  />
              </VectorParam>
              <VectorParam id="464"  name="geometryCrop">
               <InterpolatingParam id="465" interp="linr"  time="-9999999/1" value="0" leadInLength="0/1"  />
               <InterpolatingParam id="466" interp="linr"  time="-9999999/1" value="0" leadInLength="0/1"  />
               <InterpolatingParam id="467" interp="linr"  time="-9999999/1" value="0" leadInLength="0/1"  />
               <InterpolatingParam id="468" interp="linr"  time="-9999999/1" value="0" leadInLength="0/1"  />
              </VectorParam>
              <InterpolatingParam id="469" interp="linr"  time="-9999999/1" value="1" leadInLength="0/1"  name="opacity"/>
              <InterpolatingParam id="470" interp="linr"  time="0/1" value="0" leadInLength="0/1"  name="cursorOpacity"/>
              <InterpolatingParam id="471" interp="linr"  time="0/1" value="0" leadInLength="0/1"  name="cursorScale"/>
             </Parameters>
             <Attributes>
              <Attribute id="472" value="" name="ident"/>
             </Attributes>
             <ExtraData>
              <Entry key="ZoomPanBin">
               <ZoomPanBin id="473"  >
                <ZoomPanKeyframes>
                 <ZoomPanKeyframe id="474" timeRangeEnd="-9999999/1" timeRangeDuration="0/1" interpolaterName=""  />
                </ZoomPanKeyframes>
               </ZoomPanBin>
              </Entry>
              <Entry key="CursorEffectBin">
               <CursorEffectBin id="475"  >
                <CursorEffectKeyframes>
                </CursorEffectKeyframes>
               </CursorEffectBin>
              </Entry>
             </ExtraData>
            </ScreenVMFile>
            <MetaData>
             <entry key="AutoAppliedSmartFocus" val="False"/>
             <entry key="WinSubProjectDisplayName" val=""/>
            </MetaData>
           </UnifiedMedia>
           <UnifiedMedia id="476"  >
            <AMFile id="477" start="1219" duration="51" scalar="1/1" mediaStart="2560/1" mediaDuration="51/1" trackNumber="1" src="4" channelNumber="0,1" >
             <Parameters>
              <InterpolatingParam id="478" interp="linr"  time="0/1" value="1" leadInLength="0/1"  name="volume"/>
              <Parameter id="479"  name="captions"/>
             </Parameters>
             <Attributes>
              <Attribute id="480" value="" name="ident"/>
              <Attribute id="481" value="44100" name="sampleRate"/>
              <Attribute id="482" value="16" name="bitDepth"/>
              <Attribute id="483" value="1" name="gain"/>
              <Attribute id="484" value="0" name="mixToMono"/>
             </Attributes>
            </AMFile>
            <ScreenVMFile id="485" start="1219" duration="51" scalar="1/1" mediaStart="2560/1" mediaDuration="51/1" trackNumber="0" src="4" >
             <Transformer>
              <VectorParam id="486"  name="translation">
               <InterpolatingParam id="487" interp="linr"  time="-9999999/1" value="0" leadInLength="0/1"  />
               <InterpolatingParam id="488" interp="linr"  time="-9999999/1" value="0" leadInLength="0/1"  />
               <InterpolatingParam id="489" interp="linr"  time="-9999999/1" value="0" leadInLength="0/1"  />
              </VectorParam>
              <VectorParam id="490"  name="rotation">
               <InterpolatingParam id="491" interp="linr"  time="-9999999/1" value="0" leadInLength="0/1"  />
               <InterpolatingParam id="492" interp="linr"  time="-9999999/1" value="0" leadInLength="0/1"  />
               <InterpolatingParam id="493" interp="linr"  time="-9999999/1" value="0" leadInLength="0/1"  />
              </VectorParam>
              <VectorParam id="494"  name="shear">
               <InterpolatingParam id="495" interp="linr"  time="-9999999/1" value="0" leadInLength="0/1"  />
               <InterpolatingParam id="496" interp="linr"  time="-9999999/1" value="0" leadInLength="0/1"  />
               <InterpolatingParam id="497" interp="linr"  time="-9999999/1" value="0" leadInLength="0/1"  />
              </VectorParam>
              <VectorParam id="498"  name="scale">
               <InterpolatingParam id="499" interp="linr"  time="-9999999/1" value="1" leadInLength="0/1"  />
               <InterpolatingParam id="500" interp="linr"  time="-9999999/1" value="1" leadInLength="0/1"  />
               <InterpolatingParam id="501" interp="linr"  time="-9999999/1" value="1" leadInLength="0/1"  />
              </VectorParam>
              <VectorParam id="502"  name="anchor">
               <InterpolatingParam id="503" interp="linr"  time="0/1" value="0" leadInLength="0/1"  />
               <InterpolatingParam id="504" interp="linr"  time="0/1" value="0" leadInLength="0/1"  />
               <InterpolatingParam id="505" interp="linr"  time="0/1" value="0" leadInLength="0/1"  />
              </VectorParam>
             </Transformer>
             <Parameters>
              <VectorParam id="506"  name="sourceCrop">
               <InterpolatingParam id="507" interp="linr"  time="0/1" value="0" leadInLength="0/1"  />
               <InterpolatingParam id="508" interp="linr"  time="0/1" value="0" leadInLength="0/1"  />
               <InterpolatingParam id="509" interp="linr"  time="0/1" value="0" leadInLength="0/1"  />
               <InterpolatingParam id="510" interp="linr"  time="0/1" value="0" leadInLength="0/1"  />
              </VectorParam>
              <VectorParam id="511"  name="geometryCrop">
               <InterpolatingParam id="512" interp="linr"  time="-9999999/1" value="0" leadInLength="0/1"  />
               <InterpolatingParam id="513" interp="linr"  time="-9999999/1" value="0" leadInLength="0/1"  />
               <InterpolatingParam id="514" interp="linr"  time="-9999999/1" value="0" leadInLength="0/1"  />
               <InterpolatingParam id="515" interp="linr"  time="-9999999/1" value="0" leadInLength="0/1"  />
              </VectorParam>
              <InterpolatingParam id="516" interp="linr"  time="-9999999/1" value="1" leadInLength="0/1"  name="opacity"/>
              <InterpolatingParam id="517" interp="linr"  time="0/1" value="0" leadInLength="0/1"  name="cursorOpacity"/>
              <InterpolatingParam id="518" interp="linr"  time="0/1" value="0" leadInLength="0/1"  name="cursorScale"/>
             </Parameters>
             <Attributes>
              <Attribute id="519" value="" name="ident"/>
             </Attributes>
             <ExtraData>
              <Entry key="ZoomPanBin">
               <ZoomPanBin id="520"  >
                <ZoomPanKeyframes>
                 <ZoomPanKeyframe id="521" timeRangeEnd="-9999999/1" timeRangeDuration="0/1" interpolaterName=""  />
                </ZoomPanKeyframes>
               </ZoomPanBin>
              </Entry>
              <Entry key="CursorEffectBin">
               <CursorEffectBin id="522"  >
                <CursorEffectKeyframes>
                </CursorEffectKeyframes>
               </CursorEffectBin>
              </Entry>
             </ExtraData>
            </ScreenVMFile>
            <MetaData>
             <entry key="AutoAppliedSmartFocus" val="False"/>
             <entry key="WinSubProjectDisplayName" val=""/>
            </MetaData>
           </UnifiedMedia>
           <UnifiedMedia id="523"  >
            <AMFile id="524" start="1270" duration="287" scalar="1/1" mediaStart="2647/1" mediaDuration="287/1" trackNumber="1" src="4" channelNumber="0,1" >
             <Parameters>
              <InterpolatingParam id="525" interp="linr"  time="0/1" value="1" leadInLength="0/1"  name="volume"/>
              <Parameter id="526"  name="captions"/>
             </Parameters>
             <Attributes>
              <Attribute id="527" value="" name="ident"/>
              <Attribute id="528" value="44100" name="sampleRate"/>
              <Attribute id="529" value="16" name="bitDepth"/>
              <Attribute id="530" value="1" name="gain"/>
              <Attribute id="531" value="0" name="mixToMono"/>
             </Attributes>
            </AMFile>
            <ScreenVMFile id="532" start="1270" duration="287" scalar="1/1" mediaStart="2647/1" mediaDuration="287/1" trackNumber="0" src="4" >
             <Transformer>
              <VectorParam id="533"  name="translation">
               <InterpolatingParam id="534" interp="linr"  time="-9999999/1" value="0" leadInLength="0/1"  />
               <InterpolatingParam id="535" interp="linr"  time="-9999999/1" value="0" leadInLength="0/1"  />
               <InterpolatingParam id="536" interp="linr"  time="-9999999/1" value="0" leadInLength="0/1"  />
              </VectorParam>
              <VectorParam id="537"  name="rotation">
               <InterpolatingParam id="538" interp="linr"  time="-9999999/1" value="0" leadInLength="0/1"  />
               <InterpolatingParam id="539" interp="linr"  time="-9999999/1" value="0" leadInLength="0/1"  />
               <InterpolatingParam id="540" interp="linr"  time="-9999999/1" value="0" leadInLength="0/1"  />
              </VectorParam>
              <VectorParam id="541"  name="shear">
               <InterpolatingParam id="542" interp="linr"  time="-9999999/1" value="0" leadInLength="0/1"  />
               <InterpolatingParam id="543" interp="linr"  time="-9999999/1" value="0" leadInLength="0/1"  />
               <InterpolatingParam id="544" interp="linr"  time="-9999999/1" value="0" leadInLength="0/1"  />
              </VectorParam>
              <VectorParam id="545"  name="scale">
               <InterpolatingParam id="546" interp="linr"  time="-9999999/1" value="1" leadInLength="0/1"  />
               <InterpolatingParam id="547" interp="linr"  time="-9999999/1" value="1" leadInLength="0/1"  />
               <InterpolatingParam id="548" interp="linr"  time="-9999999/1" value="1" leadInLength="0/1"  />
              </VectorParam>
              <VectorParam id="549"  name="anchor">
               <InterpolatingParam id="550" interp="linr"  time="0/1" value="0" leadInLength="0/1"  />
               <InterpolatingParam id="551" interp="linr"  time="0/1" value="0" leadInLength="0/1"  />
               <InterpolatingParam id="552" interp="linr"  time="0/1" value="0" leadInLength="0/1"  />
              </VectorParam>
             </Transformer>
             <Parameters>
              <VectorParam id="553"  name="sourceCrop">
               <InterpolatingParam id="554" interp="linr"  time="0/1" value="0" leadInLength="0/1"  />
               <InterpolatingParam id="555" interp="linr"  time="0/1" value="0" leadInLength="0/1"  />
               <InterpolatingParam id="556" interp="linr"  time="0/1" value="0" leadInLength="0/1"  />
               <InterpolatingParam id="557" interp="linr"  time="0/1" value="0" leadInLength="0/1"  />
              </VectorParam>
              <VectorParam id="558"  name="geometryCrop">
               <InterpolatingParam id="559" interp="linr"  time="-9999999/1" value="0" leadInLength="0/1"  />
               <InterpolatingParam id="560" interp="linr"  time="-9999999/1" value="0" leadInLength="0/1"  />
               <InterpolatingParam id="561" interp="linr"  time="-9999999/1" value="0" leadInLength="0/1"  />
               <InterpolatingParam id="562" interp="linr"  time="-9999999/1" value="0" leadInLength="0/1"  />
              </VectorParam>
              <InterpolatingParam id="563" interp="linr"  time="-9999999/1" value="1" leadInLength="0/1"  name="opacity"/>
              <InterpolatingParam id="564" interp="linr"  time="0/1" value="0" leadInLength="0/1"  name="cursorOpacity"/>
              <InterpolatingParam id="565" interp="linr"  time="0/1" value="0" leadInLength="0/1"  name="cursorScale"/>
             </Parameters>
             <Attributes>
              <Attribute id="566" value="" name="ident"/>
             </Attributes>
             <ExtraData>
              <Entry key="ZoomPanBin">
               <ZoomPanBin id="567"  >
                <ZoomPanKeyframes>
                 <ZoomPanKeyframe id="568" timeRangeEnd="-9999999/1" timeRangeDuration="0/1" interpolaterName=""  />
                </ZoomPanKeyframes>
               </ZoomPanBin>
              </Entry>
              <Entry key="CursorEffectBin">
               <CursorEffectBin id="569"  >
                <CursorEffectKeyframes>
                </CursorEffectKeyframes>
               </CursorEffectBin>
              </Entry>
             </ExtraData>
            </ScreenVMFile>
            <MetaData>
             <entry key="AutoAppliedSmartFocus" val="False"/>
             <entry key="WinSubProjectDisplayName" val=""/>
            </MetaData>
           </UnifiedMedia>
           <UnifiedMedia id="570"  >
            <AMFile id="571" start="1557" duration="416" scalar="1/1" mediaStart="3025/1" mediaDuration="416/1" trackNumber="1" src="4" channelNumber="0,1" >
             <Parameters>
              <InterpolatingParam id="572" interp="linr"  time="0/1" value="1" leadInLength="0/1"  name="volume"/>
              <Parameter id="573"  name="captions"/>
             </Parameters>
             <Attributes>
              <Attribute id="574" value="" name="ident"/>
              <Attribute id="575" value="44100" name="sampleRate"/>
              <Attribute id="576" value="16" name="bitDepth"/>
              <Attribute id="577" value="1" name="gain"/>
              <Attribute id="578" value="0" name="mixToMono"/>
             </Attributes>
            </AMFile>
            <ScreenVMFile id="579" start="1557" duration="416" scalar="1/1" mediaStart="3025/1" mediaDuration="416/1" trackNumber="0" src="4" >
             <Transformer>
              <VectorParam id="580"  name="translation">
               <InterpolatingParam id="581" interp="linr"  time="-9999999/1" value="0" leadInLength="0/1"  />
               <InterpolatingParam id="582" interp="linr"  time="-9999999/1" value="0" leadInLength="0/1"  />
               <InterpolatingParam id="583" interp="linr"  time="-9999999/1" value="0" leadInLength="0/1"  />
              </VectorParam>
              <VectorParam id="584"  name="rotation">
               <InterpolatingParam id="585" interp="linr"  time="-9999999/1" value="0" leadInLength="0/1"  />
               <InterpolatingParam id="586" interp="linr"  time="-9999999/1" value="0" leadInLength="0/1"  />
               <InterpolatingParam id="587" interp="linr"  time="-9999999/1" value="0" leadInLength="0/1"  />
              </VectorParam>
              <VectorParam id="588"  name="shear">
               <InterpolatingParam id="589" interp="linr"  time="-9999999/1" value="0" leadInLength="0/1"  />
               <InterpolatingParam id="590" interp="linr"  time="-9999999/1" value="0" leadInLength="0/1"  />
               <InterpolatingParam id="591" interp="linr"  time="-9999999/1" value="0" leadInLength="0/1"  />
              </VectorParam>
              <VectorParam id="592"  name="scale">
               <InterpolatingParam id="593" interp="linr"  time="-9999999/1" value="1" leadInLength="0/1"  />
               <InterpolatingParam id="594" interp="linr"  time="-9999999/1" value="1" leadInLength="0/1"  />
               <InterpolatingParam id="595" interp="linr"  time="-9999999/1" value="1" leadInLength="0/1"  />
              </VectorParam>
              <VectorParam id="596"  name="anchor">
               <InterpolatingParam id="597" interp="linr"  time="0/1" value="0" leadInLength="0/1"  />
               <InterpolatingParam id="598" interp="linr"  time="0/1" value="0" leadInLength="0/1"  />
               <InterpolatingParam id="599" interp="linr"  time="0/1" value="0" leadInLength="0/1"  />
              </VectorParam>
             </Transformer>
             <Parameters>
              <VectorParam id="600"  name="sourceCrop">
               <InterpolatingParam id="601" interp="linr"  time="0/1" value="0" leadInLength="0/1"  />
               <InterpolatingParam id="602" interp="linr"  time="0/1" value="0" leadInLength="0/1"  />
               <InterpolatingParam id="603" interp="linr"  time="0/1" value="0" leadInLength="0/1"  />
               <InterpolatingParam id="604" interp="linr"  time="0/1" value="0" leadInLength="0/1"  />
              </VectorParam>
              <VectorParam id="605"  name="geometryCrop">
               <InterpolatingParam id="606" interp="linr"  time="-9999999/1" value="0" leadInLength="0/1"  />
               <InterpolatingParam id="607" interp="linr"  time="-9999999/1" value="0" leadInLength="0/1"  />
               <InterpolatingParam id="608" interp="linr"  time="-9999999/1" value="0" leadInLength="0/1"  />
               <InterpolatingParam id="609" interp="linr"  time="-9999999/1" value="0" leadInLength="0/1"  />
              </VectorParam>
              <InterpolatingParam id="610" interp="linr"  time="-9999999/1" value="1" leadInLength="0/1"  name="opacity"/>
              <InterpolatingParam id="611" interp="linr"  time="0/1" value="0" leadInLength="0/1"  name="cursorOpacity"/>
              <InterpolatingParam id="612" interp="linr"  time="0/1" value="0" leadInLength="0/1"  name="cursorScale"/>
             </Parameters>
             <Attributes>
              <Attribute id="613" value="" name="ident"/>
             </Attributes>
             <ExtraData>
              <Entry key="ZoomPanBin">
               <ZoomPanBin id="614"  >
                <ZoomPanKeyframes>
                 <ZoomPanKeyframe id="615" timeRangeEnd="-9999999/1" timeRangeDuration="0/1" interpolaterName=""  />
                </ZoomPanKeyframes>
               </ZoomPanBin>
              </Entry>
              <Entry key="CursorEffectBin">
               <CursorEffectBin id="616"  >
                <CursorEffectKeyframes>
                </CursorEffectKeyframes>
               </CursorEffectBin>
              </Entry>
             </ExtraData>
            </ScreenVMFile>
            <MetaData>
             <entry key="AutoAppliedSmartFocus" val="False"/>
             <entry key="WinSubProjectDisplayName" val=""/>
            </MetaData>
           </UnifiedMedia>
           <UnifiedMedia id="617"  >
            <AMFile id="618" start="1973" duration="185" scalar="1/1" mediaStart="3566/1" mediaDuration="185/1" trackNumber="1" src="4" channelNumber="0,1" >
             <Parameters>
              <InterpolatingParam id="619" interp="linr"  time="0/1" value="1" leadInLength="0/1"  name="volume"/>
              <Parameter id="620"  name="captions"/>
             </Parameters>
             <Attributes>
              <Attribute id="621" value="" name="ident"/>
              <Attribute id="622" value="44100" name="sampleRate"/>
              <Attribute id="623" value="16" name="bitDepth"/>
              <Attribute id="624" value="1" name="gain"/>
              <Attribute id="625" value="0" name="mixToMono"/>
             </Attributes>
            </AMFile>
            <ScreenVMFile id="626" start="1973" duration="185" scalar="1/1" mediaStart="3566/1" mediaDuration="185/1" trackNumber="0" src="4" >
             <Transformer>
              <VectorParam id="627"  name="translation">
               <InterpolatingParam id="628" interp="linr"  time="-9999999/1" value="0" leadInLength="0/1"  />
               <InterpolatingParam id="629" interp="linr"  time="-9999999/1" value="0" leadInLength="0/1"  />
               <InterpolatingParam id="630" interp="linr"  time="-9999999/1" value="0" leadInLength="0/1"  />
              </VectorParam>
              <VectorParam id="631"  name="rotation">
               <InterpolatingParam id="632" interp="linr"  time="-9999999/1" value="0" leadInLength="0/1"  />
               <InterpolatingParam id="633" interp="linr"  time="-9999999/1" value="0" leadInLength="0/1"  />
               <InterpolatingParam id="634" interp="linr"  time="-9999999/1" value="0" leadInLength="0/1"  />
              </VectorParam>
              <VectorParam id="635"  name="shear">
               <InterpolatingParam id="636" interp="linr"  time="-9999999/1" value="0" leadInLength="0/1"  />
               <InterpolatingParam id="637" interp="linr"  time="-9999999/1" value="0" leadInLength="0/1"  />
               <InterpolatingParam id="638" interp="linr"  time="-9999999/1" value="0" leadInLength="0/1"  />
              </VectorParam>
              <VectorParam id="639"  name="scale">
               <InterpolatingParam id="640" interp="linr"  time="-9999999/1" value="1" leadInLength="0/1"  />
               <InterpolatingParam id="641" interp="linr"  time="-9999999/1" value="1" leadInLength="0/1"  />
               <InterpolatingParam id="642" interp="linr"  time="-9999999/1" value="1" leadInLength="0/1"  />
              </VectorParam>
              <VectorParam id="643"  name="anchor">
               <InterpolatingParam id="644" interp="linr"  time="0/1" value="0" leadInLength="0/1"  />
               <InterpolatingParam id="645" interp="linr"  time="0/1" value="0" leadInLength="0/1"  />
               <InterpolatingParam id="646" interp="linr"  time="0/1" value="0" leadInLength="0/1"  />
              </VectorParam>
             </Transformer>
             <Parameters>
              <VectorParam id="647"  name="sourceCrop">
               <InterpolatingParam id="648" interp="linr"  time="0/1" value="0" leadInLength="0/1"  />
               <InterpolatingParam id="649" interp="linr"  time="0/1" value="0" leadInLength="0/1"  />
               <InterpolatingParam id="650" interp="linr"  time="0/1" value="0" leadInLength="0/1"  />
               <InterpolatingParam id="651" interp="linr"  time="0/1" value="0" leadInLength="0/1"  />
              </VectorParam>
              <VectorParam id="652"  name="geometryCrop">
               <InterpolatingParam id="653" interp="linr"  time="-9999999/1" value="0" leadInLength="0/1"  />
               <InterpolatingParam id="654" interp="linr"  time="-9999999/1" value="0" leadInLength="0/1"  />
               <InterpolatingParam id="655" interp="linr"  time="-9999999/1" value="0" leadInLength="0/1"  />
               <InterpolatingParam id="656" interp="linr"  time="-9999999/1" value="0" leadInLength="0/1"  />
              </VectorParam>
              <InterpolatingParam id="657" interp="linr"  time="-9999999/1" value="1" leadInLength="0/1"  name="opacity"/>
              <InterpolatingParam id="658" interp="linr"  time="0/1" value="0" leadInLength="0/1"  name="cursorOpacity"/>
              <InterpolatingParam id="659" interp="linr"  time="0/1" value="0" leadInLength="0/1"  name="cursorScale"/>
             </Parameters>
             <Attributes>
              <Attribute id="660" value="" name="ident"/>
             </Attributes>
             <ExtraData>
              <Entry key="ZoomPanBin">
               <ZoomPanBin id="661"  >
                <ZoomPanKeyframes>
                 <ZoomPanKeyframe id="662" timeRangeEnd="-9999999/1" timeRangeDuration="0/1" interpolaterName=""  />
                </ZoomPanKeyframes>
               </ZoomPanBin>
              </Entry>
              <Entry key="CursorEffectBin">
               <CursorEffectBin id="663"  >
                <CursorEffectKeyframes>
                </CursorEffectKeyframes>
               </CursorEffectBin>
              </Entry>
             </ExtraData>
            </ScreenVMFile>
            <MetaData>
             <entry key="AutoAppliedSmartFocus" val="False"/>
             <entry key="WinSubProjectDisplayName" val=""/>
            </MetaData>
           </UnifiedMedia>
           <UnifiedMedia id="664"  >
            <AMFile id="665" start="2158" duration="206" scalar="1/1" mediaStart="3903/1" mediaDuration="206/1" trackNumber="1" src="4" channelNumber="0,1" >
             <Parameters>
              <InterpolatingParam id="666" interp="linr"  time="0/1" value="1" leadInLength="0/1"  name="volume"/>
              <Parameter id="667"  name="captions"/>
             </Parameters>
             <Attributes>
              <Attribute id="668" value="" name="ident"/>
              <Attribute id="669" value="44100" name="sampleRate"/>
              <Attribute id="670" value="16" name="bitDepth"/>
              <Attribute id="671" value="1" name="gain"/>
              <Attribute id="672" value="0" name="mixToMono"/>
             </Attributes>
            </AMFile>
            <ScreenVMFile id="673" start="2158" duration="206" scalar="1/1" mediaStart="3903/1" mediaDuration="206/1" trackNumber="0" src="4" >
             <Transformer>
              <VectorParam id="674"  name="translation">
               <InterpolatingParam id="675" interp="linr"  time="-9999999/1" value="0" leadInLength="0/1"  />
               <InterpolatingParam id="676" interp="linr"  time="-9999999/1" value="0" leadInLength="0/1"  />
               <InterpolatingParam id="677" interp="linr"  time="-9999999/1" value="0" leadInLength="0/1"  />
              </VectorParam>
              <VectorParam id="678"  name="rotation">
               <InterpolatingParam id="679" interp="linr"  time="-9999999/1" value="0" leadInLength="0/1"  />
               <InterpolatingParam id="680" interp="linr"  time="-9999999/1" value="0" leadInLength="0/1"  />
               <InterpolatingParam id="681" interp="linr"  time="-9999999/1" value="0" leadInLength="0/1"  />
              </VectorParam>
              <VectorParam id="682"  name="shear">
               <InterpolatingParam id="683" interp="linr"  time="-9999999/1" value="0" leadInLength="0/1"  />
               <InterpolatingParam id="684" interp="linr"  time="-9999999/1" value="0" leadInLength="0/1"  />
               <InterpolatingParam id="685" interp="linr"  time="-9999999/1" value="0" leadInLength="0/1"  />
              </VectorParam>
              <VectorParam id="686"  name="scale">
               <InterpolatingParam id="687" interp="linr"  time="-9999999/1" value="1" leadInLength="0/1"  />
               <InterpolatingParam id="688" interp="linr"  time="-9999999/1" value="1" leadInLength="0/1"  />
               <InterpolatingParam id="689" interp="linr"  time="-9999999/1" value="1" leadInLength="0/1"  />
              </VectorParam>
              <VectorParam id="690"  name="anchor">
               <InterpolatingParam id="691" interp="linr"  time="0/1" value="0" leadInLength="0/1"  />
               <InterpolatingParam id="692" interp="linr"  time="0/1" value="0" leadInLength="0/1"  />
               <InterpolatingParam id="693" interp="linr"  time="0/1" value="0" leadInLength="0/1"  />
              </VectorParam>
             </Transformer>
             <Parameters>
              <VectorParam id="694"  name="sourceCrop">
               <InterpolatingParam id="695" interp="linr"  time="0/1" value="0" leadInLength="0/1"  />
               <InterpolatingParam id="696" interp="linr"  time="0/1" value="0" leadInLength="0/1"  />
               <InterpolatingParam id="697" interp="linr"  time="0/1" value="0" leadInLength="0/1"  />
               <InterpolatingParam id="698" interp="linr"  time="0/1" value="0" leadInLength="0/1"  />
              </VectorParam>
              <VectorParam id="699"  name="geometryCrop">
               <InterpolatingParam id="700" interp="linr"  time="-9999999/1" value="0" leadInLength="0/1"  />
               <InterpolatingParam id="701" interp="linr"  time="-9999999/1" value="0" leadInLength="0/1"  />
               <InterpolatingParam id="702" interp="linr"  time="-9999999/1" value="0" leadInLength="0/1"  />
               <InterpolatingParam id="703" interp="linr"  time="-9999999/1" value="0" leadInLength="0/1"  />
              </VectorParam>
              <InterpolatingParam id="704" interp="linr"  time="-9999999/1" value="1" leadInLength="0/1"  name="opacity"/>
              <InterpolatingParam id="705" interp="linr"  time="0/1" value="0" leadInLength="0/1"  name="cursorOpacity"/>
              <InterpolatingParam id="706" interp="linr"  time="0/1" value="0" leadInLength="0/1"  name="cursorScale"/>
             </Parameters>
             <Attributes>
              <Attribute id="707" value="" name="ident"/>
             </Attributes>
             <ExtraData>
              <Entry key="ZoomPanBin">
               <ZoomPanBin id="708"  >
                <ZoomPanKeyframes>
                 <ZoomPanKeyframe id="709" timeRangeEnd="-9999999/1" timeRangeDuration="0/1" interpolaterName=""  />
                </ZoomPanKeyframes>
               </ZoomPanBin>
              </Entry>
              <Entry key="CursorEffectBin">
               <CursorEffectBin id="710"  >
                <CursorEffectKeyframes>
                </CursorEffectKeyframes>
               </CursorEffectBin>
              </Entry>
             </ExtraData>
            </ScreenVMFile>
            <MetaData>
             <entry key="AutoAppliedSmartFocus" val="False"/>
             <entry key="WinSubProjectDisplayName" val=""/>
            </MetaData>
           </UnifiedMedia>
           <UnifiedMedia id="711"  >
            <AMFile id="712" start="2364" duration="184" scalar="1/1" mediaStart="4135/1" mediaDuration="184/1" trackNumber="1" src="4" channelNumber="0,1" >
             <Parameters>
              <InterpolatingParam id="713" interp="linr"  time="0/1" value="1" leadInLength="0/1"  name="volume"/>
              <Parameter id="714"  name="captions"/>
             </Parameters>
             <Attributes>
              <Attribute id="715" value="" name="ident"/>
              <Attribute id="716" value="44100" name="sampleRate"/>
              <Attribute id="717" value="16" name="bitDepth"/>
              <Attribute id="718" value="1" name="gain"/>
              <Attribute id="719" value="0" name="mixToMono"/>
             </Attributes>
            </AMFile>
            <ScreenVMFile id="720" start="2364" duration="184" scalar="1/1" mediaStart="4135/1" mediaDuration="184/1" trackNumber="0" src="4" >
             <Transformer>
              <VectorParam id="721"  name="translation">
               <InterpolatingParam id="722" interp="linr"  time="-9999999/1" value="0" leadInLength="0/1"  />
               <InterpolatingParam id="723" interp="linr"  time="-9999999/1" value="0" leadInLength="0/1"  />
               <InterpolatingParam id="724" interp="linr"  time="-9999999/1" value="0" leadInLength="0/1"  />
              </VectorParam>
              <VectorParam id="725"  name="rotation">
               <InterpolatingParam id="726" interp="linr"  time="-9999999/1" value="0" leadInLength="0/1"  />
               <InterpolatingParam id="727" interp="linr"  time="-9999999/1" value="0" leadInLength="0/1"  />
               <InterpolatingParam id="728" interp="linr"  time="-9999999/1" value="0" leadInLength="0/1"  />
              </VectorParam>
              <VectorParam id="729"  name="shear">
               <InterpolatingParam id="730" interp="linr"  time="-9999999/1" value="0" leadInLength="0/1"  />
               <InterpolatingParam id="731" interp="linr"  time="-9999999/1" value="0" leadInLength="0/1"  />
               <InterpolatingParam id="732" interp="linr"  time="-9999999/1" value="0" leadInLength="0/1"  />
              </VectorParam>
              <VectorParam id="733"  name="scale">
               <InterpolatingParam id="734" interp="linr"  time="-9999999/1" value="1" leadInLength="0/1"  />
               <InterpolatingParam id="735" interp="linr"  time="-9999999/1" value="1" leadInLength="0/1"  />
               <InterpolatingParam id="736" interp="linr"  time="-9999999/1" value="1" leadInLength="0/1"  />
              </VectorParam>
              <VectorParam id="737"  name="anchor">
               <InterpolatingParam id="738" interp="linr"  time="0/1" value="0" leadInLength="0/1"  />
               <InterpolatingParam id="739" interp="linr"  time="0/1" value="0" leadInLength="0/1"  />
               <InterpolatingParam id="740" interp="linr"  time="0/1" value="0" leadInLength="0/1"  />
              </VectorParam>
             </Transformer>
             <Parameters>
              <VectorParam id="741"  name="sourceCrop">
               <InterpolatingParam id="742" interp="linr"  time="0/1" value="0" leadInLength="0/1"  />
               <InterpolatingParam id="743" interp="linr"  time="0/1" value="0" leadInLength="0/1"  />
               <InterpolatingParam id="744" interp="linr"  time="0/1" value="0" leadInLength="0/1"  />
               <InterpolatingParam id="745" interp="linr"  time="0/1" value="0" leadInLength="0/1"  />
              </VectorParam>
              <VectorParam id="746"  name="geometryCrop">
               <InterpolatingParam id="747" interp="linr"  time="-9999999/1" value="0" leadInLength="0/1"  />
               <InterpolatingParam id="748" interp="linr"  time="-9999999/1" value="0" leadInLength="0/1"  />
               <InterpolatingParam id="749" interp="linr"  time="-9999999/1" value="0" leadInLength="0/1"  />
               <InterpolatingParam id="750" interp="linr"  time="-9999999/1" value="0" leadInLength="0/1"  />
              </VectorParam>
              <InterpolatingParam id="751" interp="linr"  time="-9999999/1" value="1" leadInLength="0/1"  name="opacity"/>
              <InterpolatingParam id="752" interp="linr"  time="0/1" value="0" leadInLength="0/1"  name="cursorOpacity"/>
              <InterpolatingParam id="753" interp="linr"  time="0/1" value="0" leadInLength="0/1"  name="cursorScale"/>
             </Parameters>
             <Attributes>
              <Attribute id="754" value="" name="ident"/>
             </Attributes>
             <ExtraData>
              <Entry key="ZoomPanBin">
               <ZoomPanBin id="755"  >
                <ZoomPanKeyframes>
                 <ZoomPanKeyframe id="756" timeRangeEnd="-9999999/1" timeRangeDuration="0/1" interpolaterName=""  />
                </ZoomPanKeyframes>
               </ZoomPanBin>
              </Entry>
              <Entry key="CursorEffectBin">
               <CursorEffectBin id="757"  >
                <CursorEffectKeyframes>
                </CursorEffectKeyframes>
               </CursorEffectBin>
              </Entry>
             </ExtraData>
            </ScreenVMFile>
            <MetaData>
             <entry key="AutoAppliedSmartFocus" val="False"/>
             <entry key="WinSubProjectDisplayName" val=""/>
            </MetaData>
           </UnifiedMedia>
           <UnifiedMedia id="758"  >
            <AMFile id="759" start="2548" duration="284" scalar="1/1" mediaStart="4363/1" mediaDuration="284/1" trackNumber="1" src="4" channelNumber="0,1" >
             <Parameters>
              <InterpolatingParam id="760" interp="linr"  time="0/1" value="1" leadInLength="0/1"  name="volume"/>
              <Parameter id="761"  name="captions"/>
             </Parameters>
             <Attributes>
              <Attribute id="762" value="" name="ident"/>
              <Attribute id="763" value="44100" name="sampleRate"/>
              <Attribute id="764" value="16" name="bitDepth"/>
              <Attribute id="765" value="1" name="gain"/>
              <Attribute id="766" value="0" name="mixToMono"/>
             </Attributes>
            </AMFile>
            <ScreenVMFile id="767" start="2548" duration="284" scalar="1/1" mediaStart="4363/1" mediaDuration="284/1" trackNumber="0" src="4" >
             <Transformer>
              <VectorParam id="768"  name="translation">
               <InterpolatingParam id="769" interp="linr"  time="-9999999/1" value="0" leadInLength="0/1"  />
               <InterpolatingParam id="770" interp="linr"  time="-9999999/1" value="0" leadInLength="0/1"  />
               <InterpolatingParam id="771" interp="linr"  time="-9999999/1" value="0" leadInLength="0/1"  />
              </VectorParam>
              <VectorParam id="772"  name="rotation">
               <InterpolatingParam id="773" interp="linr"  time="-9999999/1" value="0" leadInLength="0/1"  />
               <InterpolatingParam id="774" interp="linr"  time="-9999999/1" value="0" leadInLength="0/1"  />
               <InterpolatingParam id="775" interp="linr"  time="-9999999/1" value="0" leadInLength="0/1"  />
              </VectorParam>
              <VectorParam id="776"  name="shear">
               <InterpolatingParam id="777" interp="linr"  time="-9999999/1" value="0" leadInLength="0/1"  />
               <InterpolatingParam id="778" interp="linr"  time="-9999999/1" value="0" leadInLength="0/1"  />
               <InterpolatingParam id="779" interp="linr"  time="-9999999/1" value="0" leadInLength="0/1"  />
              </VectorParam>
              <VectorParam id="780"  name="scale">
               <InterpolatingParam id="781" interp="linr"  time="-9999999/1" value="1" leadInLength="0/1"  />
               <InterpolatingParam id="782" interp="linr"  time="-9999999/1" value="1" leadInLength="0/1"  />
               <InterpolatingParam id="783" interp="linr"  time="-9999999/1" value="1" leadInLength="0/1"  />
              </VectorParam>
              <VectorParam id="784"  name="anchor">
               <InterpolatingParam id="785" interp="linr"  time="0/1" value="0" leadInLength="0/1"  />
               <InterpolatingParam id="786" interp="linr"  time="0/1" value="0" leadInLength="0/1"  />
               <InterpolatingParam id="787" interp="linr"  time="0/1" value="0" leadInLength="0/1"  />
              </VectorParam>
             </Transformer>
             <Parameters>
              <VectorParam id="788"  name="sourceCrop">
               <InterpolatingParam id="789" interp="linr"  time="0/1" value="0" leadInLength="0/1"  />
               <InterpolatingParam id="790" interp="linr"  time="0/1" value="0" leadInLength="0/1"  />
               <InterpolatingParam id="791" interp="linr"  time="0/1" value="0" leadInLength="0/1"  />
               <InterpolatingParam id="792" interp="linr"  time="0/1" value="0" leadInLength="0/1"  />
              </VectorParam>
              <VectorParam id="793"  name="geometryCrop">
               <InterpolatingParam id="794" interp="linr"  time="-9999999/1" value="0" leadInLength="0/1"  />
               <InterpolatingParam id="795" interp="linr"  time="-9999999/1" value="0" leadInLength="0/1"  />
               <InterpolatingParam id="796" interp="linr"  time="-9999999/1" value="0" leadInLength="0/1"  />
               <InterpolatingParam id="797" interp="linr"  time="-9999999/1" value="0" leadInLength="0/1"  />
              </VectorParam>
              <InterpolatingParam id="798" interp="linr"  time="-9999999/1" value="1" leadInLength="0/1"  name="opacity"/>
              <InterpolatingParam id="799" interp="linr"  time="0/1" value="0" leadInLength="0/1"  name="cursorOpacity"/>
              <InterpolatingParam id="800" interp="linr"  time="0/1" value="0" leadInLength="0/1"  name="cursorScale"/>
             </Parameters>
             <Attributes>
              <Attribute id="801" value="" name="ident"/>
             </Attributes>
             <ExtraData>
              <Entry key="ZoomPanBin">
               <ZoomPanBin id="802"  >
                <ZoomPanKeyframes>
                 <ZoomPanKeyframe id="803" timeRangeEnd="-9999999/1" timeRangeDuration="0/1" interpolaterName=""  />
                </ZoomPanKeyframes>
               </ZoomPanBin>
              </Entry>
              <Entry key="CursorEffectBin">
               <CursorEffectBin id="804"  >
                <CursorEffectKeyframes>
                </CursorEffectKeyframes>
               </CursorEffectBin>
              </Entry>
             </ExtraData>
            </ScreenVMFile>
            <MetaData>
             <entry key="AutoAppliedSmartFocus" val="False"/>
             <entry key="WinSubProjectDisplayName" val=""/>
            </MetaData>
           </UnifiedMedia>
           <UnifiedMedia id="805"  >
            <AMFile id="806" start="2832" duration="48" scalar="1/1" mediaStart="4677/1" mediaDuration="48/1" trackNumber="1" src="4" channelNumber="0,1" >
             <Parameters>
              <InterpolatingParam id="807" interp="linr"  time="0/1" value="1" leadInLength="0/1"  name="volume"/>
              <Parameter id="808"  name="captions"/>
             </Parameters>
             <Attributes>
              <Attribute id="809" value="" name="ident"/>
              <Attribute id="810" value="44100" name="sampleRate"/>
              <Attribute id="811" value="16" name="bitDepth"/>
              <Attribute id="812" value="1" name="gain"/>
              <Attribute id="813" value="0" name="mixToMono"/>
             </Attributes>
            </AMFile>
            <ScreenVMFile id="814" start="2832" duration="48" scalar="1/1" mediaStart="4677/1" mediaDuration="48/1" trackNumber="0" src="4" >
             <Transformer>
              <VectorParam id="815"  name="translation">
               <InterpolatingParam id="816" interp="linr"  time="-9999999/1" value="0" leadInLength="0/1"  />
               <InterpolatingParam id="817" interp="linr"  time="-9999999/1" value="0" leadInLength="0/1"  />
               <InterpolatingParam id="818" interp="linr"  time="-9999999/1" value="0" leadInLength="0/1"  />
              </VectorParam>
              <VectorParam id="819"  name="rotation">
               <InterpolatingParam id="820" interp="linr"  time="-9999999/1" value="0" leadInLength="0/1"  />
               <InterpolatingParam id="821" interp="linr"  time="-9999999/1" value="0" leadInLength="0/1"  />
               <InterpolatingParam id="822" interp="linr"  time="-9999999/1" value="0" leadInLength="0/1"  />
              </VectorParam>
              <VectorParam id="823"  name="shear">
               <InterpolatingParam id="824" interp="linr"  time="-9999999/1" value="0" leadInLength="0/1"  />
               <InterpolatingParam id="825" interp="linr"  time="-9999999/1" value="0" leadInLength="0/1"  />
               <InterpolatingParam id="826" interp="linr"  time="-9999999/1" value="0" leadInLength="0/1"  />
              </VectorParam>
              <VectorParam id="827"  name="scale">
               <InterpolatingParam id="828" interp="linr"  time="-9999999/1" value="1" leadInLength="0/1"  />
               <InterpolatingParam id="829" interp="linr"  time="-9999999/1" value="1" leadInLength="0/1"  />
               <InterpolatingParam id="830" interp="linr"  time="-9999999/1" value="1" leadInLength="0/1"  />
              </VectorParam>
              <VectorParam id="831"  name="anchor">
               <InterpolatingParam id="832" interp="linr"  time="0/1" value="0" leadInLength="0/1"  />
               <InterpolatingParam id="833" interp="linr"  time="0/1" value="0" leadInLength="0/1"  />
               <InterpolatingParam id="834" interp="linr"  time="0/1" value="0" leadInLength="0/1"  />
              </VectorParam>
             </Transformer>
             <Parameters>
              <VectorParam id="835"  name="sourceCrop">
               <InterpolatingParam id="836" interp="linr"  time="0/1" value="0" leadInLength="0/1"  />
               <InterpolatingParam id="837" interp="linr"  time="0/1" value="0" leadInLength="0/1"  />
               <InterpolatingParam id="838" interp="linr"  time="0/1" value="0" leadInLength="0/1"  />
               <InterpolatingParam id="839" interp="linr"  time="0/1" value="0" leadInLength="0/1"  />
              </VectorParam>
              <VectorParam id="840"  name="geometryCrop">
               <InterpolatingParam id="841" interp="linr"  time="-9999999/1" value="0" leadInLength="0/1"  />
               <InterpolatingParam id="842" interp="linr"  time="-9999999/1" value="0" leadInLength="0/1"  />
               <InterpolatingParam id="843" interp="linr"  time="-9999999/1" value="0" leadInLength="0/1"  />
               <InterpolatingParam id="844" interp="linr"  time="-9999999/1" value="0" leadInLength="0/1"  />
              </VectorParam>
              <InterpolatingParam id="845" interp="linr"  time="-9999999/1" value="1" leadInLength="0/1"  name="opacity"/>
              <InterpolatingParam id="846" interp="linr"  time="0/1" value="0" leadInLength="0/1"  name="cursorOpacity"/>
              <InterpolatingParam id="847" interp="linr"  time="0/1" value="0" leadInLength="0/1"  name="cursorScale"/>
             </Parameters>
             <Attributes>
              <Attribute id="848" value="" name="ident"/>
             </Attributes>
             <ExtraData>
              <Entry key="ZoomPanBin">
               <ZoomPanBin id="849"  >
                <ZoomPanKeyframes>
                 <ZoomPanKeyframe id="850" timeRangeEnd="-9999999/1" timeRangeDuration="0/1" interpolaterName=""  />
                </ZoomPanKeyframes>
               </ZoomPanBin>
              </Entry>
              <Entry key="CursorEffectBin">
               <CursorEffectBin id="851"  >
                <CursorEffectKeyframes>
                </CursorEffectKeyframes>
               </CursorEffectBin>
              </Entry>
             </ExtraData>
            </ScreenVMFile>
            <MetaData>
             <entry key="AutoAppliedSmartFocus" val="False"/>
             <entry key="WinSubProjectDisplayName" val=""/>
            </MetaData>
           </UnifiedMedia>
           <UnifiedMedia id="852"  >
            <AMFile id="853" start="2880" duration="53" scalar="1/1" mediaStart="4852/1" mediaDuration="53/1" trackNumber="1" src="4" channelNumber="0,1" >
             <Parameters>
              <InterpolatingParam id="854" interp="linr"  time="0/1" value="1" leadInLength="0/1"  name="volume"/>
              <Parameter id="855"  name="captions"/>
             </Parameters>
             <Attributes>
              <Attribute id="856" value="" name="ident"/>
              <Attribute id="857" value="44100" name="sampleRate"/>
              <Attribute id="858" value="16" name="bitDepth"/>
              <Attribute id="859" value="1" name="gain"/>
              <Attribute id="860" value="0" name="mixToMono"/>
             </Attributes>
            </AMFile>
            <ScreenVMFile id="861" start="2880" duration="53" scalar="1/1" mediaStart="4852/1" mediaDuration="53/1" trackNumber="0" src="4" >
             <Transformer>
              <VectorParam id="862"  name="translation">
               <InterpolatingParam id="863" interp="linr"  time="-9999999/1" value="0" leadInLength="0/1"  />
               <InterpolatingParam id="864" interp="linr"  time="-9999999/1" value="0" leadInLength="0/1"  />
               <InterpolatingParam id="865" interp="linr"  time="-9999999/1" value="0" leadInLength="0/1"  />
              </VectorParam>
              <VectorParam id="866"  name="rotation">
               <InterpolatingParam id="867" interp="linr"  time="-9999999/1" value="0" leadInLength="0/1"  />
               <InterpolatingParam id="868" interp="linr"  time="-9999999/1" value="0" leadInLength="0/1"  />
               <InterpolatingParam id="869" interp="linr"  time="-9999999/1" value="0" leadInLength="0/1"  />
              </VectorParam>
              <VectorParam id="870"  name="shear">
               <InterpolatingParam id="871" interp="linr"  time="-9999999/1" value="0" leadInLength="0/1"  />
               <InterpolatingParam id="872" interp="linr"  time="-9999999/1" value="0" leadInLength="0/1"  />
               <InterpolatingParam id="873" interp="linr"  time="-9999999/1" value="0" leadInLength="0/1"  />
              </VectorParam>
              <VectorParam id="874"  name="scale">
               <InterpolatingParam id="875" interp="linr"  time="-9999999/1" value="1" leadInLength="0/1"  />
               <InterpolatingParam id="876" interp="linr"  time="-9999999/1" value="1" leadInLength="0/1"  />
               <InterpolatingParam id="877" interp="linr"  time="-9999999/1" value="1" leadInLength="0/1"  />
              </VectorParam>
              <VectorParam id="878"  name="anchor">
               <InterpolatingParam id="879" interp="linr"  time="0/1" value="0" leadInLength="0/1"  />
               <InterpolatingParam id="880" interp="linr"  time="0/1" value="0" leadInLength="0/1"  />
               <InterpolatingParam id="881" interp="linr"  time="0/1" value="0" leadInLength="0/1"  />
              </VectorParam>
             </Transformer>
             <Parameters>
              <VectorParam id="882"  name="sourceCrop">
               <InterpolatingParam id="883" interp="linr"  time="0/1" value="0" leadInLength="0/1"  />
               <InterpolatingParam id="884" interp="linr"  time="0/1" value="0" leadInLength="0/1"  />
               <InterpolatingParam id="885" interp="linr"  time="0/1" value="0" leadInLength="0/1"  />
               <InterpolatingParam id="886" interp="linr"  time="0/1" value="0" leadInLength="0/1"  />
              </VectorParam>
              <VectorParam id="887"  name="geometryCrop">
               <InterpolatingParam id="888" interp="linr"  time="-9999999/1" value="0" leadInLength="0/1"  />
               <InterpolatingParam id="889" interp="linr"  time="-9999999/1" value="0" leadInLength="0/1"  />
               <InterpolatingParam id="890" interp="linr"  time="-9999999/1" value="0" leadInLength="0/1"  />
               <InterpolatingParam id="891" interp="linr"  time="-9999999/1" value="0" leadInLength="0/1"  />
              </VectorParam>
              <InterpolatingParam id="892" interp="linr"  time="-9999999/1" value="1" leadInLength="0/1"  name="opacity"/>
              <InterpolatingParam id="893" interp="linr"  time="0/1" value="0" leadInLength="0/1"  name="cursorOpacity"/>
              <InterpolatingParam id="894" interp="linr"  time="0/1" value="0" leadInLength="0/1"  name="cursorScale"/>
             </Parameters>
             <Attributes>
              <Attribute id="895" value="" name="ident"/>
             </Attributes>
             <ExtraData>
              <Entry key="ZoomPanBin">
               <ZoomPanBin id="896"  >
                <ZoomPanKeyframes>
                 <ZoomPanKeyframe id="897" timeRangeEnd="-9999999/1" timeRangeDuration="0/1" interpolaterName=""  />
                </ZoomPanKeyframes>
               </ZoomPanBin>
              </Entry>
              <Entry key="CursorEffectBin">
               <CursorEffectBin id="898"  >
                <CursorEffectKeyframes>
                </CursorEffectKeyframes>
               </CursorEffectBin>
              </Entry>
             </ExtraData>
            </ScreenVMFile>
            <MetaData>
             <entry key="AutoAppliedSmartFocus" val="False"/>
             <entry key="WinSubProjectDisplayName" val=""/>
            </MetaData>
           </UnifiedMedia>
           <UnifiedMedia id="899"  >
            <AMFile id="900" start="2933" duration="312" scalar="1/1" mediaStart="4949/1" mediaDuration="312/1" trackNumber="1" src="4" channelNumber="0,1" >
             <Parameters>
              <InterpolatingParam id="901" interp="linr"  time="0/1" value="1" leadInLength="0/1"  name="volume"/>
              <Parameter id="902"  name="captions"/>
             </Parameters>
             <Attributes>
              <Attribute id="903" value="" name="ident"/>
              <Attribute id="904" value="44100" name="sampleRate"/>
              <Attribute id="905" value="16" name="bitDepth"/>
              <Attribute id="906" value="1" name="gain"/>
              <Attribute id="907" value="0" name="mixToMono"/>
             </Attributes>
            </AMFile>
            <ScreenVMFile id="908" start="2933" duration="312" scalar="1/1" mediaStart="4949/1" mediaDuration="312/1" trackNumber="0" src="4" >
             <Transformer>
              <VectorParam id="909"  name="translation">
               <InterpolatingParam id="910" interp="linr"  time="-9999999/1" value="0" leadInLength="0/1"  />
               <InterpolatingParam id="911" interp="linr"  time="-9999999/1" value="0" leadInLength="0/1"  />
               <InterpolatingParam id="912" interp="linr"  time="-9999999/1" value="0" leadInLength="0/1"  />
              </VectorParam>
              <VectorParam id="913"  name="rotation">
               <InterpolatingParam id="914" interp="linr"  time="-9999999/1" value="0" leadInLength="0/1"  />
               <InterpolatingParam id="915" interp="linr"  time="-9999999/1" value="0" leadInLength="0/1"  />
               <InterpolatingParam id="916" interp="linr"  time="-9999999/1" value="0" leadInLength="0/1"  />
              </VectorParam>
              <VectorParam id="917"  name="shear">
               <InterpolatingParam id="918" interp="linr"  time="-9999999/1" value="0" leadInLength="0/1"  />
               <InterpolatingParam id="919" interp="linr"  time="-9999999/1" value="0" leadInLength="0/1"  />
               <InterpolatingParam id="920" interp="linr"  time="-9999999/1" value="0" leadInLength="0/1"  />
              </VectorParam>
              <VectorParam id="921"  name="scale">
               <InterpolatingParam id="922" interp="linr"  time="-9999999/1" value="1" leadInLength="0/1"  />
               <InterpolatingParam id="923" interp="linr"  time="-9999999/1" value="1" leadInLength="0/1"  />
               <InterpolatingParam id="924" interp="linr"  time="-9999999/1" value="1" leadInLength="0/1"  />
              </VectorParam>
              <VectorParam id="925"  name="anchor">
               <InterpolatingParam id="926" interp="linr"  time="0/1" value="0" leadInLength="0/1"  />
               <InterpolatingParam id="927" interp="linr"  time="0/1" value="0" leadInLength="0/1"  />
               <InterpolatingParam id="928" interp="linr"  time="0/1" value="0" leadInLength="0/1"  />
              </VectorParam>
             </Transformer>
             <Parameters>
              <VectorParam id="929"  name="sourceCrop">
               <InterpolatingParam id="930" interp="linr"  time="0/1" value="0" leadInLength="0/1"  />
               <InterpolatingParam id="931" interp="linr"  time="0/1" value="0" leadInLength="0/1"  />
               <InterpolatingParam id="932" interp="linr"  time="0/1" value="0" leadInLength="0/1"  />
               <InterpolatingParam id="933" interp="linr"  time="0/1" value="0" leadInLength="0/1"  />
              </VectorParam>
              <VectorParam id="934"  name="geometryCrop">
               <InterpolatingParam id="935" interp="linr"  time="-9999999/1" value="0" leadInLength="0/1"  />
               <InterpolatingParam id="936" interp="linr"  time="-9999999/1" value="0" leadInLength="0/1"  />
               <InterpolatingParam id="937" interp="linr"  time="-9999999/1" value="0" leadInLength="0/1"  />
               <InterpolatingParam id="938" interp="linr"  time="-9999999/1" value="0" leadInLength="0/1"  />
              </VectorParam>
              <InterpolatingParam id="939" interp="linr"  time="-9999999/1" value="1" leadInLength="0/1"  name="opacity"/>
              <InterpolatingParam id="940" interp="linr"  time="0/1" value="0" leadInLength="0/1"  name="cursorOpacity"/>
              <InterpolatingParam id="941" interp="linr"  time="0/1" value="0" leadInLength="0/1"  name="cursorScale"/>
             </Parameters>
             <Attributes>
              <Attribute id="942" value="" name="ident"/>
             </Attributes>
             <ExtraData>
              <Entry key="ZoomPanBin">
               <ZoomPanBin id="943"  >
                <ZoomPanKeyframes>
                 <ZoomPanKeyframe id="944" timeRangeEnd="-9999999/1" timeRangeDuration="0/1" interpolaterName=""  />
                </ZoomPanKeyframes>
               </ZoomPanBin>
              </Entry>
              <Entry key="CursorEffectBin">
               <CursorEffectBin id="945"  >
                <CursorEffectKeyframes>
                </CursorEffectKeyframes>
               </CursorEffectBin>
              </Entry>
             </ExtraData>
            </ScreenVMFile>
            <MetaData>
             <entry key="AutoAppliedSmartFocus" val="False"/>
             <entry key="WinSubProjectDisplayName" val=""/>
            </MetaData>
           </UnifiedMedia>
           <UnifiedMedia id="946"  >
            <AMFile id="947" start="3245" duration="89" scalar="1/1" mediaStart="5293/1" mediaDuration="89/1" trackNumber="1" src="4" channelNumber="0,1" >
             <Parameters>
              <InterpolatingParam id="948" interp="linr"  time="0/1" value="1" leadInLength="0/1"  name="volume"/>
              <Parameter id="949"  name="captions"/>
             </Parameters>
             <Attributes>
              <Attribute id="950" value="" name="ident"/>
              <Attribute id="951" value="44100" name="sampleRate"/>
              <Attribute id="952" value="16" name="bitDepth"/>
              <Attribute id="953" value="1" name="gain"/>
              <Attribute id="954" value="0" name="mixToMono"/>
             </Attributes>
            </AMFile>
            <ScreenVMFile id="955" start="3245" duration="89" scalar="1/1" mediaStart="5293/1" mediaDuration="89/1" trackNumber="0" src="4" >
             <Transformer>
              <VectorParam id="956"  name="translation">
               <InterpolatingParam id="957" interp="linr"  time="-9999999/1" value="0" leadInLength="0/1"  />
               <InterpolatingParam id="958" interp="linr"  time="-9999999/1" value="0" leadInLength="0/1"  />
               <InterpolatingParam id="959" interp="linr"  time="-9999999/1" value="0" leadInLength="0/1"  />
              </VectorParam>
              <VectorParam id="960"  name="rotation">
               <InterpolatingParam id="961" interp="linr"  time="-9999999/1" value="0" leadInLength="0/1"  />
               <InterpolatingParam id="962" interp="linr"  time="-9999999/1" value="0" leadInLength="0/1"  />
               <InterpolatingParam id="963" interp="linr"  time="-9999999/1" value="0" leadInLength="0/1"  />
              </VectorParam>
              <VectorParam id="964"  name="shear">
               <InterpolatingParam id="965" interp="linr"  time="-9999999/1" value="0" leadInLength="0/1"  />
               <InterpolatingParam id="966" interp="linr"  time="-9999999/1" value="0" leadInLength="0/1"  />
               <InterpolatingParam id="967" interp="linr"  time="-9999999/1" value="0" leadInLength="0/1"  />
              </VectorParam>
              <VectorParam id="968"  name="scale">
               <InterpolatingParam id="969" interp="linr"  time="-9999999/1" value="1" leadInLength="0/1"  />
               <InterpolatingParam id="970" interp="linr"  time="-9999999/1" value="1" leadInLength="0/1"  />
               <InterpolatingParam id="971" interp="linr"  time="-9999999/1" value="1" leadInLength="0/1"  />
              </VectorParam>
              <VectorParam id="972"  name="anchor">
               <InterpolatingParam id="973" interp="linr"  time="0/1" value="0" leadInLength="0/1"  />
               <InterpolatingParam id="974" interp="linr"  time="0/1" value="0" leadInLength="0/1"  />
               <InterpolatingParam id="975" interp="linr"  time="0/1" value="0" leadInLength="0/1"  />
              </VectorParam>
             </Transformer>
             <Parameters>
              <VectorParam id="976"  name="sourceCrop">
               <InterpolatingParam id="977" interp="linr"  time="0/1" value="0" leadInLength="0/1"  />
               <InterpolatingParam id="978" interp="linr"  time="0/1" value="0" leadInLength="0/1"  />
               <InterpolatingParam id="979" interp="linr"  time="0/1" value="0" leadInLength="0/1"  />
               <InterpolatingParam id="980" interp="linr"  time="0/1" value="0" leadInLength="0/1"  />
              </VectorParam>
              <VectorParam id="981"  name="geometryCrop">
               <InterpolatingParam id="982" interp="linr"  time="-9999999/1" value="0" leadInLength="0/1"  />
               <InterpolatingParam id="983" interp="linr"  time="-9999999/1" value="0" leadInLength="0/1"  />
               <InterpolatingParam id="984" interp="linr"  time="-9999999/1" value="0" leadInLength="0/1"  />
               <InterpolatingParam id="985" interp="linr"  time="-9999999/1" value="0" leadInLength="0/1"  />
              </VectorParam>
              <InterpolatingParam id="986" interp="linr"  time="-9999999/1" value="1" leadInLength="0/1"  name="opacity"/>
              <InterpolatingParam id="987" interp="linr"  time="0/1" value="0" leadInLength="0/1"  name="cursorOpacity"/>
              <InterpolatingParam id="988" interp="linr"  time="0/1" value="0" leadInLength="0/1"  name="cursorScale"/>
             </Parameters>
             <Attributes>
              <Attribute id="989" value="" name="ident"/>
             </Attributes>
             <ExtraData>
              <Entry key="ZoomPanBin">
               <ZoomPanBin id="990"  >
                <ZoomPanKeyframes>
                 <ZoomPanKeyframe id="991" timeRangeEnd="-9999999/1" timeRangeDuration="0/1" interpolaterName=""  />
                </ZoomPanKeyframes>
               </ZoomPanBin>
              </Entry>
              <Entry key="CursorEffectBin">
               <CursorEffectBin id="992"  >
                <CursorEffectKeyframes>
                </CursorEffectKeyframes>
               </CursorEffectBin>
              </Entry>
             </ExtraData>
            </ScreenVMFile>
            <MetaData>
             <entry key="AutoAppliedSmartFocus" val="False"/>
             <entry key="WinSubProjectDisplayName" val=""/>
            </MetaData>
           </UnifiedMedia>
           <UnifiedMedia id="993"  >
            <AMFile id="994" start="3334" duration="395" scalar="1/1" mediaStart="5478/1" mediaDuration="395/1" trackNumber="1" src="4" channelNumber="0,1" >
             <Parameters>
              <InterpolatingParam id="995" interp="linr"  time="0/1" value="1" leadInLength="0/1"  name="volume"/>
              <Parameter id="996"  name="captions"/>
             </Parameters>
             <Attributes>
              <Attribute id="997" value="" name="ident"/>
              <Attribute id="998" value="44100" name="sampleRate"/>
              <Attribute id="999" value="16" name="bitDepth"/>
              <Attribute id="1000" value="1" name="gain"/>
              <Attribute id="1001" value="0" name="mixToMono"/>
             </Attributes>
            </AMFile>
            <ScreenVMFile id="1002" start="3334" duration="395" scalar="1/1" mediaStart="5478/1" mediaDuration="395/1" trackNumber="0" src="4" >
             <Transformer>
              <VectorParam id="1003"  name="translation">
               <InterpolatingParam id="1004" interp="linr"  time="-9999999/1" value="0" leadInLength="0/1"  />
               <InterpolatingParam id="1005" interp="linr"  time="-9999999/1" value="0" leadInLength="0/1"  />
               <InterpolatingParam id="1006" interp="linr"  time="-9999999/1" value="0" leadInLength="0/1"  />
              </VectorParam>
              <VectorParam id="1007"  name="rotation">
               <InterpolatingParam id="1008" interp="linr"  time="-9999999/1" value="0" leadInLength="0/1"  />
               <InterpolatingParam id="1009" interp="linr"  time="-9999999/1" value="0" leadInLength="0/1"  />
               <InterpolatingParam id="1010" interp="linr"  time="-9999999/1" value="0" leadInLength="0/1"  />
              </VectorParam>
              <VectorParam id="1011"  name="shear">
               <InterpolatingParam id="1012" interp="linr"  time="-9999999/1" value="0" leadInLength="0/1"  />
               <InterpolatingParam id="1013" interp="linr"  time="-9999999/1" value="0" leadInLength="0/1"  />
               <InterpolatingParam id="1014" interp="linr"  time="-9999999/1" value="0" leadInLength="0/1"  />
              </VectorParam>
              <VectorParam id="1015"  name="scale">
               <InterpolatingParam id="1016" interp="linr"  time="-9999999/1" value="1" leadInLength="0/1"  />
               <InterpolatingParam id="1017" interp="linr"  time="-9999999/1" value="1" leadInLength="0/1"  />
               <InterpolatingParam id="1018" interp="linr"  time="-9999999/1" value="1" leadInLength="0/1"  />
              </VectorParam>
              <VectorParam id="1019"  name="anchor">
               <InterpolatingParam id="1020" interp="linr"  time="0/1" value="0" leadInLength="0/1"  />
               <InterpolatingParam id="1021" interp="linr"  time="0/1" value="0" leadInLength="0/1"  />
               <InterpolatingParam id="1022" interp="linr"  time="0/1" value="0" leadInLength="0/1"  />
              </VectorParam>
             </Transformer>
             <Parameters>
              <VectorParam id="1023"  name="sourceCrop">
               <InterpolatingParam id="1024" interp="linr"  time="0/1" value="0" leadInLength="0/1"  />
               <InterpolatingParam id="1025" interp="linr"  time="0/1" value="0" leadInLength="0/1"  />
               <InterpolatingParam id="1026" interp="linr"  time="0/1" value="0" leadInLength="0/1"  />
               <InterpolatingParam id="1027" interp="linr"  time="0/1" value="0" leadInLength="0/1"  />
              </VectorParam>
              <VectorParam id="1028"  name="geometryCrop">
               <InterpolatingParam id="1029" interp="linr"  time="-9999999/1" value="0" leadInLength="0/1"  />
               <InterpolatingParam id="1030" interp="linr"  time="-9999999/1" value="0" leadInLength="0/1"  />
               <InterpolatingParam id="1031" interp="linr"  time="-9999999/1" value="0" leadInLength="0/1"  />
               <InterpolatingParam id="1032" interp="linr"  time="-9999999/1" value="0" leadInLength="0/1"  />
              </VectorParam>
              <InterpolatingParam id="1033" interp="linr"  time="-9999999/1" value="1" leadInLength="0/1"  name="opacity"/>
              <InterpolatingParam id="1034" interp="linr"  time="0/1" value="0" leadInLength="0/1"  name="cursorOpacity"/>
              <InterpolatingParam id="1035" interp="linr"  time="0/1" value="0" leadInLength="0/1"  name="cursorScale"/>
             </Parameters>
             <Attributes>
              <Attribute id="1036" value="" name="ident"/>
             </Attributes>
             <ExtraData>
              <Entry key="ZoomPanBin">
               <ZoomPanBin id="1037"  >
                <ZoomPanKeyframes>
                 <ZoomPanKeyframe id="1038" timeRangeEnd="-9999999/1" timeRangeDuration="0/1" interpolaterName=""  />
                </ZoomPanKeyframes>
               </ZoomPanBin>
              </Entry>
              <Entry key="CursorEffectBin">
               <CursorEffectBin id="1039"  >
                <CursorEffectKeyframes>
                </CursorEffectKeyframes>
               </CursorEffectBin>
              </Entry>
             </ExtraData>
            </ScreenVMFile>
            <MetaData>
             <entry key="AutoAppliedSmartFocus" val="False"/>
             <entry key="WinSubProjectDisplayName" val=""/>
            </MetaData>
           </UnifiedMedia>
           <UnifiedMedia id="1040"  >
            <AMFile id="1041" start="3729" duration="96" scalar="1/1" mediaStart="6010/1" mediaDuration="96/1" trackNumber="1" src="4" channelNumber="0,1" >
             <Parameters>
              <InterpolatingParam id="1042" interp="linr"  time="0/1" value="1" leadInLength="0/1"  name="volume"/>
              <Parameter id="1043"  name="captions"/>
             </Parameters>
             <Attributes>
              <Attribute id="1044" value="" name="ident"/>
              <Attribute id="1045" value="44100" name="sampleRate"/>
              <Attribute id="1046" value="16" name="bitDepth"/>
              <Attribute id="1047" value="1" name="gain"/>
              <Attribute id="1048" value="0" name="mixToMono"/>
             </Attributes>
            </AMFile>
            <ScreenVMFile id="1049" start="3729" duration="96" scalar="1/1" mediaStart="6010/1" mediaDuration="96/1" trackNumber="0" src="4" >
             <Transformer>
              <VectorParam id="1050"  name="translation">
               <InterpolatingParam id="1051" interp="linr"  time="-9999999/1" value="0" leadInLength="0/1"  />
               <InterpolatingParam id="1052" interp="linr"  time="-9999999/1" value="0" leadInLength="0/1"  />
               <InterpolatingParam id="1053" interp="linr"  time="-9999999/1" value="0" leadInLength="0/1"  />
              </VectorParam>
              <VectorParam id="1054"  name="rotation">
               <InterpolatingParam id="1055" interp="linr"  time="-9999999/1" value="0" leadInLength="0/1"  />
               <InterpolatingParam id="1056" interp="linr"  time="-9999999/1" value="0" leadInLength="0/1"  />
               <InterpolatingParam id="1057" interp="linr"  time="-9999999/1" value="0" leadInLength="0/1"  />
              </VectorParam>
              <VectorParam id="1058"  name="shear">
               <InterpolatingParam id="1059" interp="linr"  time="-9999999/1" value="0" leadInLength="0/1"  />
               <InterpolatingParam id="1060" interp="linr"  time="-9999999/1" value="0" leadInLength="0/1"  />
               <InterpolatingParam id="1061" interp="linr"  time="-9999999/1" value="0" leadInLength="0/1"  />
              </VectorParam>
              <VectorParam id="1062"  name="scale">
               <InterpolatingParam id="1063" interp="linr"  time="-9999999/1" value="1" leadInLength="0/1"  />
               <InterpolatingParam id="1064" interp="linr"  time="-9999999/1" value="1" leadInLength="0/1"  />
               <InterpolatingParam id="1065" interp="linr"  time="-9999999/1" value="1" leadInLength="0/1"  />
              </VectorParam>
              <VectorParam id="1066"  name="anchor">
               <InterpolatingParam id="1067" interp="linr"  time="0/1" value="0" leadInLength="0/1"  />
               <InterpolatingParam id="1068" interp="linr"  time="0/1" value="0" leadInLength="0/1"  />
               <InterpolatingParam id="1069" interp="linr"  time="0/1" value="0" leadInLength="0/1"  />
              </VectorParam>
             </Transformer>
             <Parameters>
              <VectorParam id="1070"  name="sourceCrop">
               <InterpolatingParam id="1071" interp="linr"  time="0/1" value="0" leadInLength="0/1"  />
               <InterpolatingParam id="1072" interp="linr"  time="0/1" value="0" leadInLength="0/1"  />
               <InterpolatingParam id="1073" interp="linr"  time="0/1" value="0" leadInLength="0/1"  />
               <InterpolatingParam id="1074" interp="linr"  time="0/1" value="0" leadInLength="0/1"  />
              </VectorParam>
              <VectorParam id="1075"  name="geometryCrop">
               <InterpolatingParam id="1076" interp="linr"  time="-9999999/1" value="0" leadInLength="0/1"  />
               <InterpolatingParam id="1077" interp="linr"  time="-9999999/1" value="0" leadInLength="0/1"  />
               <InterpolatingParam id="1078" interp="linr"  time="-9999999/1" value="0" leadInLength="0/1"  />
               <InterpolatingParam id="1079" interp="linr"  time="-9999999/1" value="0" leadInLength="0/1"  />
              </VectorParam>
              <InterpolatingParam id="1080" interp="linr"  time="-9999999/1" value="1" leadInLength="0/1"  name="opacity"/>
              <InterpolatingParam id="1081" interp="linr"  time="0/1" value="0" leadInLength="0/1"  name="cursorOpacity"/>
              <InterpolatingParam id="1082" interp="linr"  time="0/1" value="0" leadInLength="0/1"  name="cursorScale"/>
             </Parameters>
             <Attributes>
              <Attribute id="1083" value="" name="ident"/>
             </Attributes>
             <ExtraData>
              <Entry key="ZoomPanBin">
               <ZoomPanBin id="1084"  >
                <ZoomPanKeyframes>
                 <ZoomPanKeyframe id="1085" timeRangeEnd="-9999999/1" timeRangeDuration="0/1" interpolaterName=""  />
                </ZoomPanKeyframes>
               </ZoomPanBin>
              </Entry>
              <Entry key="CursorEffectBin">
               <CursorEffectBin id="1086"  >
                <CursorEffectKeyframes>
                </CursorEffectKeyframes>
               </CursorEffectBin>
              </Entry>
             </ExtraData>
            </ScreenVMFile>
            <MetaData>
             <entry key="AutoAppliedSmartFocus" val="False"/>
             <entry key="WinSubProjectDisplayName" val=""/>
            </MetaData>
           </UnifiedMedia>
           <UnifiedMedia id="1087"  >
            <AMFile id="1088" start="3825" duration="2" scalar="1/1" mediaStart="6167/1" mediaDuration="2/1" trackNumber="1" src="4" channelNumber="0,1" >
             <Parameters>
              <InterpolatingParam id="1089" interp="linr"  time="0/1" value="1" leadInLength="0/1"  name="volume"/>
              <Parameter id="1090"  name="captions"/>
             </Parameters>
             <Attributes>
              <Attribute id="1091" value="" name="ident"/>
              <Attribute id="1092" value="44100" name="sampleRate"/>
              <Attribute id="1093" value="16" name="bitDepth"/>
              <Attribute id="1094" value="1" name="gain"/>
              <Attribute id="1095" value="0" name="mixToMono"/>
             </Attributes>
            </AMFile>
            <ScreenVMFile id="1096" start="3825" duration="2" scalar="1/1" mediaStart="6167/1" mediaDuration="2/1" trackNumber="0" src="4" >
             <Transformer>
              <VectorParam id="1097"  name="translation">
               <InterpolatingParam id="1098" interp="linr"  time="-9999999/1" value="0" leadInLength="0/1"  />
               <InterpolatingParam id="1099" interp="linr"  time="-9999999/1" value="0" leadInLength="0/1"  />
               <InterpolatingParam id="1100" interp="linr"  time="-9999999/1" value="0" leadInLength="0/1"  />
              </VectorParam>
              <VectorParam id="1101"  name="rotation">
               <InterpolatingParam id="1102" interp="linr"  time="-9999999/1" value="0" leadInLength="0/1"  />
               <InterpolatingParam id="1103" interp="linr"  time="-9999999/1" value="0" leadInLength="0/1"  />
               <InterpolatingParam id="1104" interp="linr"  time="-9999999/1" value="0" leadInLength="0/1"  />
              </VectorParam>
              <VectorParam id="1105"  name="shear">
               <InterpolatingParam id="1106" interp="linr"  time="-9999999/1" value="0" leadInLength="0/1"  />
               <InterpolatingParam id="1107" interp="linr"  time="-9999999/1" value="0" leadInLength="0/1"  />
               <InterpolatingParam id="1108" interp="linr"  time="-9999999/1" value="0" leadInLength="0/1"  />
              </VectorParam>
              <VectorParam id="1109"  name="scale">
               <InterpolatingParam id="1110" interp="linr"  time="-9999999/1" value="1" leadInLength="0/1"  />
               <InterpolatingParam id="1111" interp="linr"  time="-9999999/1" value="1" leadInLength="0/1"  />
               <InterpolatingParam id="1112" interp="linr"  time="-9999999/1" value="1" leadInLength="0/1"  />
              </VectorParam>
              <VectorParam id="1113"  name="anchor">
               <InterpolatingParam id="1114" interp="linr"  time="0/1" value="0" leadInLength="0/1"  />
               <InterpolatingParam id="1115" interp="linr"  time="0/1" value="0" leadInLength="0/1"  />
               <InterpolatingParam id="1116" interp="linr"  time="0/1" value="0" leadInLength="0/1"  />
              </VectorParam>
             </Transformer>
             <Parameters>
              <VectorParam id="1117"  name="sourceCrop">
               <InterpolatingParam id="1118" interp="linr"  time="0/1" value="0" leadInLength="0/1"  />
               <InterpolatingParam id="1119" interp="linr"  time="0/1" value="0" leadInLength="0/1"  />
               <InterpolatingParam id="1120" interp="linr"  time="0/1" value="0" leadInLength="0/1"  />
               <InterpolatingParam id="1121" interp="linr"  time="0/1" value="0" leadInLength="0/1"  />
              </VectorParam>
              <VectorParam id="1122"  name="geometryCrop">
               <InterpolatingParam id="1123" interp="linr"  time="-9999999/1" value="0" leadInLength="0/1"  />
               <InterpolatingParam id="1124" interp="linr"  time="-9999999/1" value="0" leadInLength="0/1"  />
               <InterpolatingParam id="1125" interp="linr"  time="-9999999/1" value="0" leadInLength="0/1"  />
               <InterpolatingParam id="1126" interp="linr"  time="-9999999/1" value="0" leadInLength="0/1"  />
              </VectorParam>
              <InterpolatingParam id="1127" interp="linr"  time="-9999999/1" value="1" leadInLength="0/1"  name="opacity"/>
              <InterpolatingParam id="1128" interp="linr"  time="0/1" value="0" leadInLength="0/1"  name="cursorOpacity"/>
              <InterpolatingParam id="1129" interp="linr"  time="0/1" value="0" leadInLength="0/1"  name="cursorScale"/>
             </Parameters>
             <Attributes>
              <Attribute id="1130" value="" name="ident"/>
             </Attributes>
             <ExtraData>
              <Entry key="ZoomPanBin">
               <ZoomPanBin id="1131"  >
                <ZoomPanKeyframes>
                 <ZoomPanKeyframe id="1132" timeRangeEnd="-9999999/1" timeRangeDuration="0/1" interpolaterName=""  />
                </ZoomPanKeyframes>
               </ZoomPanBin>
              </Entry>
              <Entry key="CursorEffectBin">
               <CursorEffectBin id="1133"  >
                <CursorEffectKeyframes>
                </CursorEffectKeyframes>
               </CursorEffectBin>
              </Entry>
             </ExtraData>
            </ScreenVMFile>
            <MetaData>
             <entry key="AutoAppliedSmartFocus" val="False"/>
             <entry key="WinSubProjectDisplayName" val=""/>
            </MetaData>
           </UnifiedMedia>
           <UnifiedMedia id="1134"  >
            <AMFile id="1135" start="3827" duration="150" scalar="1/1" mediaStart="6240/1" mediaDuration="150/1" trackNumber="1" src="4" channelNumber="0,1" >
             <Parameters>
              <InterpolatingParam id="1136" interp="linr"  time="0/1" value="1" leadInLength="0/1"  name="volume"/>
              <Parameter id="1137"  name="captions"/>
             </Parameters>
             <Attributes>
              <Attribute id="1138" value="" name="ident"/>
              <Attribute id="1139" value="44100" name="sampleRate"/>
              <Attribute id="1140" value="16" name="bitDepth"/>
              <Attribute id="1141" value="1" name="gain"/>
              <Attribute id="1142" value="0" name="mixToMono"/>
             </Attributes>
            </AMFile>
            <ScreenVMFile id="1143" start="3827" duration="150" scalar="1/1" mediaStart="6240/1" mediaDuration="150/1" trackNumber="0" src="4" >
             <Transformer>
              <VectorParam id="1144"  name="translation">
               <InterpolatingParam id="1145" interp="linr"  time="-9999999/1" value="0" leadInLength="0/1"  />
               <InterpolatingParam id="1146" interp="linr"  time="-9999999/1" value="0" leadInLength="0/1"  />
               <InterpolatingParam id="1147" interp="linr"  time="-9999999/1" value="0" leadInLength="0/1"  />
              </VectorParam>
              <VectorParam id="1148"  name="rotation">
               <InterpolatingParam id="1149" interp="linr"  time="-9999999/1" value="0" leadInLength="0/1"  />
               <InterpolatingParam id="1150" interp="linr"  time="-9999999/1" value="0" leadInLength="0/1"  />
               <InterpolatingParam id="1151" interp="linr"  time="-9999999/1" value="0" leadInLength="0/1"  />
              </VectorParam>
              <VectorParam id="1152"  name="shear">
               <InterpolatingParam id="1153" interp="linr"  time="-9999999/1" value="0" leadInLength="0/1"  />
               <InterpolatingParam id="1154" interp="linr"  time="-9999999/1" value="0" leadInLength="0/1"  />
               <InterpolatingParam id="1155" interp="linr"  time="-9999999/1" value="0" leadInLength="0/1"  />
              </VectorParam>
              <VectorParam id="1156"  name="scale">
               <InterpolatingParam id="1157" interp="linr"  time="-9999999/1" value="1" leadInLength="0/1"  />
               <InterpolatingParam id="1158" interp="linr"  time="-9999999/1" value="1" leadInLength="0/1"  />
               <InterpolatingParam id="1159" interp="linr"  time="-9999999/1" value="1" leadInLength="0/1"  />
              </VectorParam>
              <VectorParam id="1160"  name="anchor">
               <InterpolatingParam id="1161" interp="linr"  time="0/1" value="0" leadInLength="0/1"  />
               <InterpolatingParam id="1162" interp="linr"  time="0/1" value="0" leadInLength="0/1"  />
               <InterpolatingParam id="1163" interp="linr"  time="0/1" value="0" leadInLength="0/1"  />
              </VectorParam>
             </Transformer>
             <Parameters>
              <VectorParam id="1164"  name="sourceCrop">
               <InterpolatingParam id="1165" interp="linr"  time="0/1" value="0" leadInLength="0/1"  />
               <InterpolatingParam id="1166" interp="linr"  time="0/1" value="0" leadInLength="0/1"  />
               <InterpolatingParam id="1167" interp="linr"  time="0/1" value="0" leadInLength="0/1"  />
               <InterpolatingParam id="1168" interp="linr"  time="0/1" value="0" leadInLength="0/1"  />
              </VectorParam>
              <VectorParam id="1169"  name="geometryCrop">
               <InterpolatingParam id="1170" interp="linr"  time="-9999999/1" value="0" leadInLength="0/1"  />
               <InterpolatingParam id="1171" interp="linr"  time="-9999999/1" value="0" leadInLength="0/1"  />
               <InterpolatingParam id="1172" interp="linr"  time="-9999999/1" value="0" leadInLength="0/1"  />
               <InterpolatingParam id="1173" interp="linr"  time="-9999999/1" value="0" leadInLength="0/1"  />
              </VectorParam>
              <InterpolatingParam id="1174" interp="linr"  time="-9999999/1" value="1" leadInLength="0/1"  name="opacity"/>
              <InterpolatingParam id="1175" interp="linr"  time="0/1" value="0" leadInLength="0/1"  name="cursorOpacity"/>
              <InterpolatingParam id="1176" interp="linr"  time="0/1" value="0" leadInLength="0/1"  name="cursorScale"/>
             </Parameters>
             <Attributes>
              <Attribute id="1177" value="" name="ident"/>
             </Attributes>
             <ExtraData>
              <Entry key="ZoomPanBin">
               <ZoomPanBin id="1178"  >
                <ZoomPanKeyframes>
                 <ZoomPanKeyframe id="1179" timeRangeEnd="-9999999/1" timeRangeDuration="0/1" interpolaterName=""  />
                </ZoomPanKeyframes>
               </ZoomPanBin>
              </Entry>
              <Entry key="CursorEffectBin">
               <CursorEffectBin id="1180"  >
                <CursorEffectKeyframes>
                </CursorEffectKeyframes>
               </CursorEffectBin>
              </Entry>
             </ExtraData>
            </ScreenVMFile>
            <MetaData>
             <entry key="AutoAppliedSmartFocus" val="False"/>
             <entry key="WinSubProjectDisplayName" val=""/>
            </MetaData>
           </UnifiedMedia>
           <UnifiedMedia id="1181"  >
            <AMFile id="1182" start="3977" duration="64" scalar="1/1" mediaStart="6416/1" mediaDuration="64/1" trackNumber="1" src="4" channelNumber="0,1" >
             <Parameters>
              <InterpolatingParam id="1183" interp="linr"  time="0/1" value="1" leadInLength="0/1"  name="volume"/>
              <Parameter id="1184"  name="captions"/>
             </Parameters>
             <Attributes>
              <Attribute id="1185" value="" name="ident"/>
              <Attribute id="1186" value="44100" name="sampleRate"/>
              <Attribute id="1187" value="16" name="bitDepth"/>
              <Attribute id="1188" value="1" name="gain"/>
              <Attribute id="1189" value="0" name="mixToMono"/>
             </Attributes>
            </AMFile>
            <ScreenVMFile id="1190" start="3977" duration="64" scalar="1/1" mediaStart="6416/1" mediaDuration="64/1" trackNumber="0" src="4" >
             <Transformer>
              <VectorParam id="1191"  name="translation">
               <InterpolatingParam id="1192" interp="linr"  time="-9999999/1" value="0" leadInLength="0/1"  />
               <InterpolatingParam id="1193" interp="linr"  time="-9999999/1" value="0" leadInLength="0/1"  />
               <InterpolatingParam id="1194" interp="linr"  time="-9999999/1" value="0" leadInLength="0/1"  />
              </VectorParam>
              <VectorParam id="1195"  name="rotation">
               <InterpolatingParam id="1196" interp="linr"  time="-9999999/1" value="0" leadInLength="0/1"  />
               <InterpolatingParam id="1197" interp="linr"  time="-9999999/1" value="0" leadInLength="0/1"  />
               <InterpolatingParam id="1198" interp="linr"  time="-9999999/1" value="0" leadInLength="0/1"  />
              </VectorParam>
              <VectorParam id="1199"  name="shear">
               <InterpolatingParam id="1200" interp="linr"  time="-9999999/1" value="0" leadInLength="0/1"  />
               <InterpolatingParam id="1201" interp="linr"  time="-9999999/1" value="0" leadInLength="0/1"  />
               <InterpolatingParam id="1202" interp="linr"  time="-9999999/1" value="0" leadInLength="0/1"  />
              </VectorParam>
              <VectorParam id="1203"  name="scale">
               <InterpolatingParam id="1204" interp="linr"  time="-9999999/1" value="1" leadInLength="0/1"  />
               <InterpolatingParam id="1205" interp="linr"  time="-9999999/1" value="1" leadInLength="0/1"  />
               <InterpolatingParam id="1206" interp="linr"  time="-9999999/1" value="1" leadInLength="0/1"  />
              </VectorParam>
              <VectorParam id="1207"  name="anchor">
               <InterpolatingParam id="1208" interp="linr"  time="0/1" value="0" leadInLength="0/1"  />
               <InterpolatingParam id="1209" interp="linr"  time="0/1" value="0" leadInLength="0/1"  />
               <InterpolatingParam id="1210" interp="linr"  time="0/1" value="0" leadInLength="0/1"  />
              </VectorParam>
             </Transformer>
             <Parameters>
              <VectorParam id="1211"  name="sourceCrop">
               <InterpolatingParam id="1212" interp="linr"  time="0/1" value="0" leadInLength="0/1"  />
               <InterpolatingParam id="1213" interp="linr"  time="0/1" value="0" leadInLength="0/1"  />
               <InterpolatingParam id="1214" interp="linr"  time="0/1" value="0" leadInLength="0/1"  />
               <InterpolatingParam id="1215" interp="linr"  time="0/1" value="0" leadInLength="0/1"  />
              </VectorParam>
              <VectorParam id="1216"  name="geometryCrop">
               <InterpolatingParam id="1217" interp="linr"  time="-9999999/1" value="0" leadInLength="0/1"  />
               <InterpolatingParam id="1218" interp="linr"  time="-9999999/1" value="0" leadInLength="0/1"  />
               <InterpolatingParam id="1219" interp="linr"  time="-9999999/1" value="0" leadInLength="0/1"  />
               <InterpolatingParam id="1220" interp="linr"  time="-9999999/1" value="0" leadInLength="0/1"  />
              </VectorParam>
              <InterpolatingParam id="1221" interp="linr"  time="-9999999/1" value="1" leadInLength="0/1"  name="opacity"/>
              <InterpolatingParam id="1222" interp="linr"  time="0/1" value="0" leadInLength="0/1"  name="cursorOpacity"/>
              <InterpolatingParam id="1223" interp="linr"  time="0/1" value="0" leadInLength="0/1"  name="cursorScale"/>
             </Parameters>
             <Attributes>
              <Attribute id="1224" value="" name="ident"/>
             </Attributes>
             <ExtraData>
              <Entry key="ZoomPanBin">
               <ZoomPanBin id="1225"  >
                <ZoomPanKeyframes>
                 <ZoomPanKeyframe id="1226" timeRangeEnd="-9999999/1" timeRangeDuration="0/1" interpolaterName=""  />
                </ZoomPanKeyframes>
               </ZoomPanBin>
              </Entry>
              <Entry key="CursorEffectBin">
               <CursorEffectBin id="1227"  >
                <CursorEffectKeyframes>
                </CursorEffectKeyframes>
               </CursorEffectBin>
              </Entry>
             </ExtraData>
            </ScreenVMFile>
            <MetaData>
             <entry key="AutoAppliedSmartFocus" val="False"/>
             <entry key="WinSubProjectDisplayName" val=""/>
            </MetaData>
           </UnifiedMedia>
           <UnifiedMedia id="1228"  >
            <AMFile id="1229" start="4041" duration="250" scalar="1/1" mediaStart="6585/1" mediaDuration="250/1" trackNumber="1" src="4" channelNumber="0,1" >
             <Parameters>
              <InterpolatingParam id="1230" interp="linr"  time="0/1" value="1" leadInLength="0/1"  name="volume"/>
              <Parameter id="1231"  name="captions"/>
             </Parameters>
             <Attributes>
              <Attribute id="1232" value="" name="ident"/>
              <Attribute id="1233" value="44100" name="sampleRate"/>
              <Attribute id="1234" value="16" name="bitDepth"/>
              <Attribute id="1235" value="1" name="gain"/>
              <Attribute id="1236" value="0" name="mixToMono"/>
             </Attributes>
            </AMFile>
            <ScreenVMFile id="1237" start="4041" duration="250" scalar="1/1" mediaStart="6585/1" mediaDuration="250/1" trackNumber="0" src="4" >
             <Transformer>
              <VectorParam id="1238"  name="translation">
               <InterpolatingParam id="1239" interp="linr"  time="-9999999/1" value="0" leadInLength="0/1"  />
               <InterpolatingParam id="1240" interp="linr"  time="-9999999/1" value="0" leadInLength="0/1"  />
               <InterpolatingParam id="1241" interp="linr"  time="-9999999/1" value="0" leadInLength="0/1"  />
              </VectorParam>
              <VectorParam id="1242"  name="rotation">
               <InterpolatingParam id="1243" interp="linr"  time="-9999999/1" value="0" leadInLength="0/1"  />
               <InterpolatingParam id="1244" interp="linr"  time="-9999999/1" value="0" leadInLength="0/1"  />
               <InterpolatingParam id="1245" interp="linr"  time="-9999999/1" value="0" leadInLength="0/1"  />
              </VectorParam>
              <VectorParam id="1246"  name="shear">
               <InterpolatingParam id="1247" interp="linr"  time="-9999999/1" value="0" leadInLength="0/1"  />
               <InterpolatingParam id="1248" interp="linr"  time="-9999999/1" value="0" leadInLength="0/1"  />
               <InterpolatingParam id="1249" interp="linr"  time="-9999999/1" value="0" leadInLength="0/1"  />
              </VectorParam>
              <VectorParam id="1250"  name="scale">
               <InterpolatingParam id="1251" interp="linr"  time="-9999999/1" value="1" leadInLength="0/1"  />
               <InterpolatingParam id="1252" interp="linr"  time="-9999999/1" value="1" leadInLength="0/1"  />
               <InterpolatingParam id="1253" interp="linr"  time="-9999999/1" value="1" leadInLength="0/1"  />
              </VectorParam>
              <VectorParam id="1254"  name="anchor">
               <InterpolatingParam id="1255" interp="linr"  time="0/1" value="0" leadInLength="0/1"  />
               <InterpolatingParam id="1256" interp="linr"  time="0/1" value="0" leadInLength="0/1"  />
               <InterpolatingParam id="1257" interp="linr"  time="0/1" value="0" leadInLength="0/1"  />
              </VectorParam>
             </Transformer>
             <Parameters>
              <VectorParam id="1258"  name="sourceCrop">
               <InterpolatingParam id="1259" interp="linr"  time="0/1" value="0" leadInLength="0/1"  />
               <InterpolatingParam id="1260" interp="linr"  time="0/1" value="0" leadInLength="0/1"  />
               <InterpolatingParam id="1261" interp="linr"  time="0/1" value="0" leadInLength="0/1"  />
               <InterpolatingParam id="1262" interp="linr"  time="0/1" value="0" leadInLength="0/1"  />
              </VectorParam>
              <VectorParam id="1263"  name="geometryCrop">
               <InterpolatingParam id="1264" interp="linr"  time="-9999999/1" value="0" leadInLength="0/1"  />
               <InterpolatingParam id="1265" interp="linr"  time="-9999999/1" value="0" leadInLength="0/1"  />
               <InterpolatingParam id="1266" interp="linr"  time="-9999999/1" value="0" leadInLength="0/1"  />
               <InterpolatingParam id="1267" interp="linr"  time="-9999999/1" value="0" leadInLength="0/1"  />
              </VectorParam>
              <InterpolatingParam id="1268" interp="linr"  time="-9999999/1" value="1" leadInLength="0/1"  name="opacity"/>
              <InterpolatingParam id="1269" interp="linr"  time="0/1" value="0" leadInLength="0/1"  name="cursorOpacity"/>
              <InterpolatingParam id="1270" interp="linr"  time="0/1" value="0" leadInLength="0/1"  name="cursorScale"/>
             </Parameters>
             <Attributes>
              <Attribute id="1271" value="" name="ident"/>
             </Attributes>
             <ExtraData>
              <Entry key="ZoomPanBin">
               <ZoomPanBin id="1272"  >
                <ZoomPanKeyframes>
                 <ZoomPanKeyframe id="1273" timeRangeEnd="-9999999/1" timeRangeDuration="0/1" interpolaterName=""  />
                </ZoomPanKeyframes>
               </ZoomPanBin>
              </Entry>
              <Entry key="CursorEffectBin">
               <CursorEffectBin id="1274"  >
                <CursorEffectKeyframes>
                </CursorEffectKeyframes>
               </CursorEffectBin>
              </Entry>
             </ExtraData>
            </ScreenVMFile>
            <MetaData>
             <entry key="AutoAppliedSmartFocus" val="False"/>
             <entry key="WinSubProjectDisplayName" val=""/>
            </MetaData>
           </UnifiedMedia>
           <UnifiedMedia id="1275"  >
            <AMFile id="1276" start="4291" duration="92" scalar="1/1" mediaStart="6887/1" mediaDuration="92/1" trackNumber="1" src="4" channelNumber="0,1" >
             <Parameters>
              <InterpolatingParam id="1277" interp="linr"  time="0/1" value="1" leadInLength="0/1"  name="volume"/>
              <Parameter id="1278"  name="captions"/>
             </Parameters>
             <Attributes>
              <Attribute id="1279" value="" name="ident"/>
              <Attribute id="1280" value="44100" name="sampleRate"/>
              <Attribute id="1281" value="16" name="bitDepth"/>
              <Attribute id="1282" value="1" name="gain"/>
              <Attribute id="1283" value="0" name="mixToMono"/>
             </Attributes>
            </AMFile>
            <ScreenVMFile id="1284" start="4291" duration="92" scalar="1/1" mediaStart="6887/1" mediaDuration="92/1" trackNumber="0" src="4" >
             <Transformer>
              <VectorParam id="1285"  name="translation">
               <InterpolatingParam id="1286" interp="linr"  time="-9999999/1" value="0" leadInLength="0/1"  />
               <InterpolatingParam id="1287" interp="linr"  time="-9999999/1" value="0" leadInLength="0/1"  />
               <InterpolatingParam id="1288" interp="linr"  time="-9999999/1" value="0" leadInLength="0/1"  />
              </VectorParam>
              <VectorParam id="1289"  name="rotation">
               <InterpolatingParam id="1290" interp="linr"  time="-9999999/1" value="0" leadInLength="0/1"  />
               <InterpolatingParam id="1291" interp="linr"  time="-9999999/1" value="0" leadInLength="0/1"  />
               <InterpolatingParam id="1292" interp="linr"  time="-9999999/1" value="0" leadInLength="0/1"  />
              </VectorParam>
              <VectorParam id="1293"  name="shear">
               <InterpolatingParam id="1294" interp="linr"  time="-9999999/1" value="0" leadInLength="0/1"  />
               <InterpolatingParam id="1295" interp="linr"  time="-9999999/1" value="0" leadInLength="0/1"  />
               <InterpolatingParam id="1296" interp="linr"  time="-9999999/1" value="0" leadInLength="0/1"  />
              </VectorParam>
              <VectorParam id="1297"  name="scale">
               <InterpolatingParam id="1298" interp="linr"  time="-9999999/1" value="1" leadInLength="0/1"  />
               <InterpolatingParam id="1299" interp="linr"  time="-9999999/1" value="1" leadInLength="0/1"  />
               <InterpolatingParam id="1300" interp="linr"  time="-9999999/1" value="1" leadInLength="0/1"  />
              </VectorParam>
              <VectorParam id="1301"  name="anchor">
               <InterpolatingParam id="1302" interp="linr"  time="0/1" value="0" leadInLength="0/1"  />
               <InterpolatingParam id="1303" interp="linr"  time="0/1" value="0" leadInLength="0/1"  />
               <InterpolatingParam id="1304" interp="linr"  time="0/1" value="0" leadInLength="0/1"  />
              </VectorParam>
             </Transformer>
             <Parameters>
              <VectorParam id="1305"  name="sourceCrop">
               <InterpolatingParam id="1306" interp="linr"  time="0/1" value="0" leadInLength="0/1"  />
               <InterpolatingParam id="1307" interp="linr"  time="0/1" value="0" leadInLength="0/1"  />
               <InterpolatingParam id="1308" interp="linr"  time="0/1" value="0" leadInLength="0/1"  />
               <InterpolatingParam id="1309" interp="linr"  time="0/1" value="0" leadInLength="0/1"  />
              </VectorParam>
              <VectorParam id="1310"  name="geometryCrop">
               <InterpolatingParam id="1311" interp="linr"  time="-9999999/1" value="0" leadInLength="0/1"  />
               <InterpolatingParam id="1312" interp="linr"  time="-9999999/1" value="0" leadInLength="0/1"  />
               <InterpolatingParam id="1313" interp="linr"  time="-9999999/1" value="0" leadInLength="0/1"  />
               <InterpolatingParam id="1314" interp="linr"  time="-9999999/1" value="0" leadInLength="0/1"  />
              </VectorParam>
              <InterpolatingParam id="1315" interp="linr"  time="-9999999/1" value="1" leadInLength="0/1"  name="opacity"/>
              <InterpolatingParam id="1316" interp="linr"  time="0/1" value="0" leadInLength="0/1"  name="cursorOpacity"/>
              <InterpolatingParam id="1317" interp="linr"  time="0/1" value="0" leadInLength="0/1"  name="cursorScale"/>
             </Parameters>
             <Attributes>
              <Attribute id="1318" value="" name="ident"/>
             </Attributes>
             <ExtraData>
              <Entry key="ZoomPanBin">
               <ZoomPanBin id="1319"  >
                <ZoomPanKeyframes>
                 <ZoomPanKeyframe id="1320" timeRangeEnd="-9999999/1" timeRangeDuration="0/1" interpolaterName=""  />
                </ZoomPanKeyframes>
               </ZoomPanBin>
              </Entry>
              <Entry key="CursorEffectBin">
               <CursorEffectBin id="1321"  >
                <CursorEffectKeyframes>
                </CursorEffectKeyframes>
               </CursorEffectBin>
              </Entry>
             </ExtraData>
            </ScreenVMFile>
            <MetaData>
             <entry key="AutoAppliedSmartFocus" val="False"/>
             <entry key="WinSubProjectDisplayName" val=""/>
            </MetaData>
           </UnifiedMedia>
           <UnifiedMedia id="1322"  >
            <AMFile id="1323" start="4383" duration="315" scalar="1/1" mediaStart="7070/1" mediaDuration="315/1" trackNumber="1" src="4" channelNumber="0,1" >
             <Parameters>
              <InterpolatingParam id="1324" interp="linr"  time="0/1" value="1" leadInLength="0/1"  name="volume"/>
              <Parameter id="1325"  name="captions"/>
             </Parameters>
             <Attributes>
              <Attribute id="1326" value="" name="ident"/>
              <Attribute id="1327" value="44100" name="sampleRate"/>
              <Attribute id="1328" value="16" name="bitDepth"/>
              <Attribute id="1329" value="1" name="gain"/>
              <Attribute id="1330" value="0" name="mixToMono"/>
             </Attributes>
            </AMFile>
            <ScreenVMFile id="1331" start="4383" duration="315" scalar="1/1" mediaStart="7070/1" mediaDuration="315/1" trackNumber="0" src="4" >
             <Transformer>
              <VectorParam id="1332"  name="translation">
               <InterpolatingParam id="1333" interp="linr"  time="-9999999/1" value="0" leadInLength="0/1"  />
               <InterpolatingParam id="1334" interp="linr"  time="-9999999/1" value="0" leadInLength="0/1"  />
               <InterpolatingParam id="1335" interp="linr"  time="-9999999/1" value="0" leadInLength="0/1"  />
              </VectorParam>
              <VectorParam id="1336"  name="rotation">
               <InterpolatingParam id="1337" interp="linr"  time="-9999999/1" value="0" leadInLength="0/1"  />
               <InterpolatingParam id="1338" interp="linr"  time="-9999999/1" value="0" leadInLength="0/1"  />
               <InterpolatingParam id="1339" interp="linr"  time="-9999999/1" value="0" leadInLength="0/1"  />
              </VectorParam>
              <VectorParam id="1340"  name="shear">
               <InterpolatingParam id="1341" interp="linr"  time="-9999999/1" value="0" leadInLength="0/1"  />
               <InterpolatingParam id="1342" interp="linr"  time="-9999999/1" value="0" leadInLength="0/1"  />
               <InterpolatingParam id="1343" interp="linr"  time="-9999999/1" value="0" leadInLength="0/1"  />
              </VectorParam>
              <VectorParam id="1344"  name="scale">
               <InterpolatingParam id="1345" interp="linr"  time="-9999999/1" value="1" leadInLength="0/1"  />
               <InterpolatingParam id="1346" interp="linr"  time="-9999999/1" value="1" leadInLength="0/1"  />
               <InterpolatingParam id="1347" interp="linr"  time="-9999999/1" value="1" leadInLength="0/1"  />
              </VectorParam>
              <VectorParam id="1348"  name="anchor">
               <InterpolatingParam id="1349" interp="linr"  time="0/1" value="0" leadInLength="0/1"  />
               <InterpolatingParam id="1350" interp="linr"  time="0/1" value="0" leadInLength="0/1"  />
               <InterpolatingParam id="1351" interp="linr"  time="0/1" value="0" leadInLength="0/1"  />
              </VectorParam>
             </Transformer>
             <Parameters>
              <VectorParam id="1352"  name="sourceCrop">
               <InterpolatingParam id="1353" interp="linr"  time="0/1" value="0" leadInLength="0/1"  />
               <InterpolatingParam id="1354" interp="linr"  time="0/1" value="0" leadInLength="0/1"  />
               <InterpolatingParam id="1355" interp="linr"  time="0/1" value="0" leadInLength="0/1"  />
               <InterpolatingParam id="1356" interp="linr"  time="0/1" value="0" leadInLength="0/1"  />
              </VectorParam>
              <VectorParam id="1357"  name="geometryCrop">
               <InterpolatingParam id="1358" interp="linr"  time="-9999999/1" value="0" leadInLength="0/1"  />
               <InterpolatingParam id="1359" interp="linr"  time="-9999999/1" value="0" leadInLength="0/1"  />
               <InterpolatingParam id="1360" interp="linr"  time="-9999999/1" value="0" leadInLength="0/1"  />
               <InterpolatingParam id="1361" interp="linr"  time="-9999999/1" value="0" leadInLength="0/1"  />
              </VectorParam>
              <InterpolatingParam id="1362" interp="linr"  time="-9999999/1" value="1" leadInLength="0/1"  name="opacity"/>
              <InterpolatingParam id="1363" interp="linr"  time="0/1" value="0" leadInLength="0/1"  name="cursorOpacity"/>
              <InterpolatingParam id="1364" interp="linr"  time="0/1" value="0" leadInLength="0/1"  name="cursorScale"/>
             </Parameters>
             <Attributes>
              <Attribute id="1365" value="" name="ident"/>
             </Attributes>
             <ExtraData>
              <Entry key="ZoomPanBin">
               <ZoomPanBin id="1366"  >
                <ZoomPanKeyframes>
                 <ZoomPanKeyframe id="1367" timeRangeEnd="-9999999/1" timeRangeDuration="0/1" interpolaterName=""  />
                </ZoomPanKeyframes>
               </ZoomPanBin>
              </Entry>
              <Entry key="CursorEffectBin">
               <CursorEffectBin id="1368"  >
                <CursorEffectKeyframes>
                </CursorEffectKeyframes>
               </CursorEffectBin>
              </Entry>
             </ExtraData>
            </ScreenVMFile>
            <MetaData>
             <entry key="AutoAppliedSmartFocus" val="False"/>
             <entry key="WinSubProjectDisplayName" val=""/>
            </MetaData>
           </UnifiedMedia>
           <UnifiedMedia id="1369"  >
            <AMFile id="1370" start="4698" duration="69" scalar="1/1" mediaStart="7634/1" mediaDuration="69/1" trackNumber="1" src="4" channelNumber="0,1" >
             <Parameters>
              <InterpolatingParam id="1371" interp="linr"  time="0/1" value="1" leadInLength="0/1"  name="volume"/>
              <Parameter id="1372"  name="captions"/>
             </Parameters>
             <Attributes>
              <Attribute id="1373" value="" name="ident"/>
              <Attribute id="1374" value="44100" name="sampleRate"/>
              <Attribute id="1375" value="16" name="bitDepth"/>
              <Attribute id="1376" value="1" name="gain"/>
              <Attribute id="1377" value="0" name="mixToMono"/>
             </Attributes>
            </AMFile>
            <ScreenVMFile id="1378" start="4698" duration="69" scalar="1/1" mediaStart="7634/1" mediaDuration="69/1" trackNumber="0" src="4" >
             <Transformer>
              <VectorParam id="1379"  name="translation">
               <InterpolatingParam id="1380" interp="linr"  time="-9999999/1" value="0" leadInLength="0/1"  />
               <InterpolatingParam id="1381" interp="linr"  time="-9999999/1" value="0" leadInLength="0/1"  />
               <InterpolatingParam id="1382" interp="linr"  time="-9999999/1" value="0" leadInLength="0/1"  />
              </VectorParam>
              <VectorParam id="1383"  name="rotation">
               <InterpolatingParam id="1384" interp="linr"  time="-9999999/1" value="0" leadInLength="0/1"  />
               <InterpolatingParam id="1385" interp="linr"  time="-9999999/1" value="0" leadInLength="0/1"  />
               <InterpolatingParam id="1386" interp="linr"  time="-9999999/1" value="0" leadInLength="0/1"  />
              </VectorParam>
              <VectorParam id="1387"  name="shear">
               <InterpolatingParam id="1388" interp="linr"  time="-9999999/1" value="0" leadInLength="0/1"  />
               <InterpolatingParam id="1389" interp="linr"  time="-9999999/1" value="0" leadInLength="0/1"  />
               <InterpolatingParam id="1390" interp="linr"  time="-9999999/1" value="0" leadInLength="0/1"  />
              </VectorParam>
              <VectorParam id="1391"  name="scale">
               <InterpolatingParam id="1392" interp="linr"  time="-9999999/1" value="1" leadInLength="0/1"  />
               <InterpolatingParam id="1393" interp="linr"  time="-9999999/1" value="1" leadInLength="0/1"  />
               <InterpolatingParam id="1394" interp="linr"  time="-9999999/1" value="1" leadInLength="0/1"  />
              </VectorParam>
              <VectorParam id="1395"  name="anchor">
               <InterpolatingParam id="1396" interp="linr"  time="0/1" value="0" leadInLength="0/1"  />
               <InterpolatingParam id="1397" interp="linr"  time="0/1" value="0" leadInLength="0/1"  />
               <InterpolatingParam id="1398" interp="linr"  time="0/1" value="0" leadInLength="0/1"  />
              </VectorParam>
             </Transformer>
             <Parameters>
              <VectorParam id="1399"  name="sourceCrop">
               <InterpolatingParam id="1400" interp="linr"  time="0/1" value="0" leadInLength="0/1"  />
               <InterpolatingParam id="1401" interp="linr"  time="0/1" value="0" leadInLength="0/1"  />
               <InterpolatingParam id="1402" interp="linr"  time="0/1" value="0" leadInLength="0/1"  />
               <InterpolatingParam id="1403" interp="linr"  time="0/1" value="0" leadInLength="0/1"  />
              </VectorParam>
              <VectorParam id="1404"  name="geometryCrop">
               <InterpolatingParam id="1405" interp="linr"  time="-9999999/1" value="0" leadInLength="0/1"  />
               <InterpolatingParam id="1406" interp="linr"  time="-9999999/1" value="0" leadInLength="0/1"  />
               <InterpolatingParam id="1407" interp="linr"  time="-9999999/1" value="0" leadInLength="0/1"  />
               <InterpolatingParam id="1408" interp="linr"  time="-9999999/1" value="0" leadInLength="0/1"  />
              </VectorParam>
              <InterpolatingParam id="1409" interp="linr"  time="-9999999/1" value="1" leadInLength="0/1"  name="opacity"/>
              <InterpolatingParam id="1410" interp="linr"  time="0/1" value="0" leadInLength="0/1"  name="cursorOpacity"/>
              <InterpolatingParam id="1411" interp="linr"  time="0/1" value="0" leadInLength="0/1"  name="cursorScale"/>
             </Parameters>
             <Attributes>
              <Attribute id="1412" value="" name="ident"/>
             </Attributes>
             <ExtraData>
              <Entry key="ZoomPanBin">
               <ZoomPanBin id="1413"  >
                <ZoomPanKeyframes>
                 <ZoomPanKeyframe id="1414" timeRangeEnd="-9999999/1" timeRangeDuration="0/1" interpolaterName=""  />
                </ZoomPanKeyframes>
               </ZoomPanBin>
              </Entry>
              <Entry key="CursorEffectBin">
               <CursorEffectBin id="1415"  >
                <CursorEffectKeyframes>
                </CursorEffectKeyframes>
               </CursorEffectBin>
              </Entry>
             </ExtraData>
            </ScreenVMFile>
            <MetaData>
             <entry key="AutoAppliedSmartFocus" val="False"/>
             <entry key="WinSubProjectDisplayName" val=""/>
            </MetaData>
           </UnifiedMedia>
           <UnifiedMedia id="1416"  >
            <AMFile id="1417" start="4767" duration="423" scalar="1/1" mediaStart="7755/1" mediaDuration="423/1" trackNumber="1" src="4" channelNumber="0,1" >
             <Parameters>
              <InterpolatingParam id="1418" interp="linr"  time="0/1" value="1" leadInLength="0/1"  name="volume"/>
              <Parameter id="1419"  name="captions"/>
             </Parameters>
             <Attributes>
              <Attribute id="1420" value="" name="ident"/>
              <Attribute id="1421" value="44100" name="sampleRate"/>
              <Attribute id="1422" value="16" name="bitDepth"/>
              <Attribute id="1423" value="1" name="gain"/>
              <Attribute id="1424" value="0" name="mixToMono"/>
             </Attributes>
            </AMFile>
            <ScreenVMFile id="1425" start="4767" duration="423" scalar="1/1" mediaStart="7755/1" mediaDuration="423/1" trackNumber="0" src="4" >
             <Transformer>
              <VectorParam id="1426"  name="translation">
               <InterpolatingParam id="1427" interp="linr"  time="-9999999/1" value="0" leadInLength="0/1"  />
               <InterpolatingParam id="1428" interp="linr"  time="-9999999/1" value="0" leadInLength="0/1"  />
               <InterpolatingParam id="1429" interp="linr"  time="-9999999/1" value="0" leadInLength="0/1"  />
              </VectorParam>
              <VectorParam id="1430"  name="rotation">
               <InterpolatingParam id="1431" interp="linr"  time="-9999999/1" value="0" leadInLength="0/1"  />
               <InterpolatingParam id="1432" interp="linr"  time="-9999999/1" value="0" leadInLength="0/1"  />
               <InterpolatingParam id="1433" interp="linr"  time="-9999999/1" value="0" leadInLength="0/1"  />
              </VectorParam>
              <VectorParam id="1434"  name="shear">
               <InterpolatingParam id="1435" interp="linr"  time="-9999999/1" value="0" leadInLength="0/1"  />
               <InterpolatingParam id="1436" interp="linr"  time="-9999999/1" value="0" leadInLength="0/1"  />
               <InterpolatingParam id="1437" interp="linr"  time="-9999999/1" value="0" leadInLength="0/1"  />
              </VectorParam>
              <VectorParam id="1438"  name="scale">
               <InterpolatingParam id="1439" interp="linr"  time="-9999999/1" value="1" leadInLength="0/1"  />
               <InterpolatingParam id="1440" interp="linr"  time="-9999999/1" value="1" leadInLength="0/1"  />
               <InterpolatingParam id="1441" interp="linr"  time="-9999999/1" value="1" leadInLength="0/1"  />
              </VectorParam>
              <VectorParam id="1442"  name="anchor">
               <InterpolatingParam id="1443" interp="linr"  time="0/1" value="0" leadInLength="0/1"  />
               <InterpolatingParam id="1444" interp="linr"  time="0/1" value="0" leadInLength="0/1"  />
               <InterpolatingParam id="1445" interp="linr"  time="0/1" value="0" leadInLength="0/1"  />
              </VectorParam>
             </Transformer>
             <Parameters>
              <VectorParam id="1446"  name="sourceCrop">
               <InterpolatingParam id="1447" interp="linr"  time="0/1" value="0" leadInLength="0/1"  />
               <InterpolatingParam id="1448" interp="linr"  time="0/1" value="0" leadInLength="0/1"  />
               <InterpolatingParam id="1449" interp="linr"  time="0/1" value="0" leadInLength="0/1"  />
               <InterpolatingParam id="1450" interp="linr"  time="0/1" value="0" leadInLength="0/1"  />
              </VectorParam>
              <VectorParam id="1451"  name="geometryCrop">
               <InterpolatingParam id="1452" interp="linr"  time="-9999999/1" value="0" leadInLength="0/1"  />
               <InterpolatingParam id="1453" interp="linr"  time="-9999999/1" value="0" leadInLength="0/1"  />
               <InterpolatingParam id="1454" interp="linr"  time="-9999999/1" value="0" leadInLength="0/1"  />
               <InterpolatingParam id="1455" interp="linr"  time="-9999999/1" value="0" leadInLength="0/1"  />
              </VectorParam>
              <InterpolatingParam id="1456" interp="linr"  time="-9999999/1" value="1" leadInLength="0/1"  name="opacity"/>
              <InterpolatingParam id="1457" interp="linr"  time="0/1" value="0" leadInLength="0/1"  name="cursorOpacity"/>
              <InterpolatingParam id="1458" interp="linr"  time="0/1" value="0" leadInLength="0/1"  name="cursorScale"/>
             </Parameters>
             <Attributes>
              <Attribute id="1459" value="" name="ident"/>
             </Attributes>
             <ExtraData>
              <Entry key="ZoomPanBin">
               <ZoomPanBin id="1460"  >
                <ZoomPanKeyframes>
                 <ZoomPanKeyframe id="1461" timeRangeEnd="-9999999/1" timeRangeDuration="0/1" interpolaterName=""  />
                </ZoomPanKeyframes>
               </ZoomPanBin>
              </Entry>
              <Entry key="CursorEffectBin">
               <CursorEffectBin id="1462"  >
                <CursorEffectKeyframes>
                </CursorEffectKeyframes>
               </CursorEffectBin>
              </Entry>
             </ExtraData>
            </ScreenVMFile>
            <MetaData>
             <entry key="AutoAppliedSmartFocus" val="False"/>
             <entry key="WinSubProjectDisplayName" val=""/>
            </MetaData>
           </UnifiedMedia>
           <UnifiedMedia id="1463"  >
            <AMFile id="1464" start="5190" duration="115" scalar="1/1" mediaStart="8237/1" mediaDuration="115/1" trackNumber="1" src="4" channelNumber="0,1" >
             <Parameters>
              <InterpolatingParam id="1465" interp="linr"  time="0/1" value="1" leadInLength="0/1"  name="volume"/>
              <Parameter id="1466"  name="captions"/>
             </Parameters>
             <Attributes>
              <Attribute id="1467" value="" name="ident"/>
              <Attribute id="1468" value="44100" name="sampleRate"/>
              <Attribute id="1469" value="16" name="bitDepth"/>
              <Attribute id="1470" value="1" name="gain"/>
              <Attribute id="1471" value="0" name="mixToMono"/>
             </Attributes>
            </AMFile>
            <ScreenVMFile id="1472" start="5190" duration="115" scalar="1/1" mediaStart="8237/1" mediaDuration="115/1" trackNumber="0" src="4" >
             <Transformer>
              <VectorParam id="1473"  name="translation">
               <InterpolatingParam id="1474" interp="linr"  time="-9999999/1" value="0" leadInLength="0/1"  />
               <InterpolatingParam id="1475" interp="linr"  time="-9999999/1" value="0" leadInLength="0/1"  />
               <InterpolatingParam id="1476" interp="linr"  time="-9999999/1" value="0" leadInLength="0/1"  />
              </VectorParam>
              <VectorParam id="1477"  name="rotation">
               <InterpolatingParam id="1478" interp="linr"  time="-9999999/1" value="0" leadInLength="0/1"  />
               <InterpolatingParam id="1479" interp="linr"  time="-9999999/1" value="0" leadInLength="0/1"  />
               <InterpolatingParam id="1480" interp="linr"  time="-9999999/1" value="0" leadInLength="0/1"  />
              </VectorParam>
              <VectorParam id="1481"  name="shear">
               <InterpolatingParam id="1482" interp="linr"  time="-9999999/1" value="0" leadInLength="0/1"  />
               <InterpolatingParam id="1483" interp="linr"  time="-9999999/1" value="0" leadInLength="0/1"  />
               <InterpolatingParam id="1484" interp="linr"  time="-9999999/1" value="0" leadInLength="0/1"  />
              </VectorParam>
              <VectorParam id="1485"  name="scale">
               <InterpolatingParam id="1486" interp="linr"  time="-9999999/1" value="1" leadInLength="0/1"  />
               <InterpolatingParam id="1487" interp="linr"  time="-9999999/1" value="1" leadInLength="0/1"  />
               <InterpolatingParam id="1488" interp="linr"  time="-9999999/1" value="1" leadInLength="0/1"  />
              </VectorParam>
              <VectorParam id="1489"  name="anchor">
               <InterpolatingParam id="1490" interp="linr"  time="0/1" value="0" leadInLength="0/1"  />
               <InterpolatingParam id="1491" interp="linr"  time="0/1" value="0" leadInLength="0/1"  />
               <InterpolatingParam id="1492" interp="linr"  time="0/1" value="0" leadInLength="0/1"  />
              </VectorParam>
             </Transformer>
             <Parameters>
              <VectorParam id="1493"  name="sourceCrop">
               <InterpolatingParam id="1494" interp="linr"  time="0/1" value="0" leadInLength="0/1"  />
               <InterpolatingParam id="1495" interp="linr"  time="0/1" value="0" leadInLength="0/1"  />
               <InterpolatingParam id="1496" interp="linr"  time="0/1" value="0" leadInLength="0/1"  />
               <InterpolatingParam id="1497" interp="linr"  time="0/1" value="0" leadInLength="0/1"  />
              </VectorParam>
              <VectorParam id="1498"  name="geometryCrop">
               <InterpolatingParam id="1499" interp="linr"  time="-9999999/1" value="0" leadInLength="0/1"  />
               <InterpolatingParam id="1500" interp="linr"  time="-9999999/1" value="0" leadInLength="0/1"  />
               <InterpolatingParam id="1501" interp="linr"  time="-9999999/1" value="0" leadInLength="0/1"  />
               <InterpolatingParam id="1502" interp="linr"  time="-9999999/1" value="0" leadInLength="0/1"  />
              </VectorParam>
              <InterpolatingParam id="1503" interp="linr"  time="-9999999/1" value="1" leadInLength="0/1"  name="opacity"/>
              <InterpolatingParam id="1504" interp="linr"  time="0/1" value="0" leadInLength="0/1"  name="cursorOpacity"/>
              <InterpolatingParam id="1505" interp="linr"  time="0/1" value="0" leadInLength="0/1"  name="cursorScale"/>
             </Parameters>
             <Attributes>
              <Attribute id="1506" value="" name="ident"/>
             </Attributes>
             <ExtraData>
              <Entry key="ZoomPanBin">
               <ZoomPanBin id="1507"  >
                <ZoomPanKeyframes>
                 <ZoomPanKeyframe id="1508" timeRangeEnd="-9999999/1" timeRangeDuration="0/1" interpolaterName=""  />
                </ZoomPanKeyframes>
               </ZoomPanBin>
              </Entry>
              <Entry key="CursorEffectBin">
               <CursorEffectBin id="1509"  >
                <CursorEffectKeyframes>
                </CursorEffectKeyframes>
               </CursorEffectBin>
              </Entry>
             </ExtraData>
            </ScreenVMFile>
            <MetaData>
             <entry key="AutoAppliedSmartFocus" val="False"/>
             <entry key="WinSubProjectDisplayName" val=""/>
            </MetaData>
           </UnifiedMedia>
          </Medias>
         </GenericTrack>
        </StitchedMedia>
       </Medias>
      </GenericTrack>
      <GenericTrack id="1510"  >
       <Attributes>
        <Attribute id="1511" value="" name="ident"/>
        <Attribute id="1512" value="0" name="audioMuted"/>
        <Attribute id="1513" value="0" name="videoHidden"/>
       </Attributes>
       <MetaData>
        <entry key="IsLocked" val="False"/>
        <entry key="WinTrackHeight" val="62"/>
       </MetaData>
       <Medias>
        <IMFile id="1514" start="0" duration="5071" scalar="1/1" mediaStart="0/1" mediaDuration="1/1" trackNumber="0" src="6" trimStartSum="-4703/1" >
         <Transformer>
          <VectorParam id="1515"  name="translation">
           <InterpolatingParam id="1516" interp="linr"  time="-9999999/1" value="586.64516129012338" leadInLength="0/1"  />
           <InterpolatingParam id="1517" interp="linr"  time="-9999999/1" value="-346.24000000017372" leadInLength="0/1"  />
           <InterpolatingParam id="1518" interp="linr"  time="-9999999/1" value="-3.4106051316482881e-010" leadInLength="0/1"  />
          </VectorParam>
          <VectorParam id="1519"  name="rotation">
           <InterpolatingParam id="1520" interp="linr"  time="-9999999/1" value="0" leadInLength="0/1"  />
           <InterpolatingParam id="1521" interp="linr"  time="-9999999/1" value="0" leadInLength="0/1"  />
           <InterpolatingParam id="1522" interp="linr"  time="-9999999/1" value="0" leadInLength="0/1"  />
          </VectorParam>
          <VectorParam id="1523"  name="shear">
           <InterpolatingParam id="1524" interp="linr"  time="-9999999/1" value="0" leadInLength="0/1"  />
           <InterpolatingParam id="1525" interp="linr"  time="-9999999/1" value="0" leadInLength="0/1"  />
           <InterpolatingParam id="1526" interp="linr"  time="-9999999/1" value="0" leadInLength="0/1"  />
          </VectorParam>
          <VectorParam id="1527"  name="scale">
           <InterpolatingParam id="1528" interp="linr"  time="-9999999/1" value="0.18739454094274918" leadInLength="0/1"  />
           <InterpolatingParam id="1529" interp="linr"  time="-9999999/1" value="0.18739454094274907" leadInLength="0/1"  />
           <InterpolatingParam id="1530" interp="linr"  time="-9999999/1" value="0.99999999999999956" leadInLength="0/1"  />
          </VectorParam>
          <VectorParam id="1531"  name="anchor">
           <InterpolatingParam id="1532" interp="linr"  time="0/1" value="0" leadInLength="0/1"  />
           <InterpolatingParam id="1533" interp="linr"  time="0/1" value="0" leadInLength="0/1"  />
           <InterpolatingParam id="1534" interp="linr"  time="0/1" value="0" leadInLength="0/1"  />
          </VectorParam>
         </Transformer>
         <Parameters>
          <VectorParam id="1535"  name="sourceCrop">
           <InterpolatingParam id="1536" interp="linr"  time="0/1" value="0" leadInLength="0/1"  />
           <InterpolatingParam id="1537" interp="linr"  time="0/1" value="0" leadInLength="0/1"  />
           <InterpolatingParam id="1538" interp="linr"  time="0/1" value="0" leadInLength="0/1"  />
           <InterpolatingParam id="1539" interp="linr"  time="0/1" value="0" leadInLength="0/1"  />
          </VectorParam>
          <VectorParam id="1540"  name="geometryCrop">
           <InterpolatingParam id="1541" interp="linr"  time="-9999999/1" value="0" leadInLength="0/1"  />
           <InterpolatingParam id="1542" interp="linr"  time="-9999999/1" value="0" leadInLength="0/1"  />
           <InterpolatingParam id="1543" interp="linr"  time="-9999999/1" value="0" leadInLength="0/1"  />
           <InterpolatingParam id="1544" interp="linr"  time="-9999999/1" value="0" leadInLength="0/1"  />
          </VectorParam>
          <InterpolatingParam id="1545" interp="linr"  time="-9999999/1" value="1" leadInLength="0/1"  name="opacity"/>
         </Parameters>
         <Attributes>
          <Attribute id="1546" value="" name="ident"/>
         </Attributes>
         <MetaData>
          <entry key="WinSubProjectDisplayName" val=""/>
         </MetaData>
         <ExtraData>
          <Entry key="ZoomPanBin">
           <ZoomPanBin id="1547"  >
            <ZoomPanKeyframes>
             <ZoomPanKeyframe id="1548" timeRangeEnd="-9999999/1" timeRangeDuration="0/1" interpolaterName="linr"  />
            </ZoomPanKeyframes>
           </ZoomPanBin>
          </Entry>
         </ExtraData>
        </IMFile>
        <UnifiedMedia id="1549"  >
         <AudioTransition id="1550" start="5071" duration="30" >
          <Parameters>
           <InterpolatingParam id="1551" interp="linr"  time="0/1" value="1" leadInLength="0/1"  name="volume"/>
           <Parameter id="1552"  name="captions"/>
          </Parameters>
          <Effects>
           <GenericEffect id="1553" name = "AudioTransition" >
            <Parameters>
            <Parameter id="1554"   name="audioEdgeModType">
             <Keyframes>
             <Keyframe id="1555"  time="0/1" value="0" leadInLength="0/1"  />
             </Keyframes>
            </Parameter>
            <Parameter id="1556"   name="audioTransitionType">
             <Keyframes>
             <Keyframe id="1557"  time="0/1" value="" leadInLength="0/1"  />
             </Keyframes>
            </Parameter>
            </Parameters>
            <MetaData>
            </MetaData>
           </GenericEffect>
          </Effects>
          <Attributes>
           <Attribute id="1558" value="" name="ident"/>
           <Attribute id="1559" value="0" name="sampleRate"/>
           <Attribute id="1560" value="0" name="bitDepth"/>
           <Attribute id="1561" value="1" name="gain"/>
           <Attribute id="1562" value="0" name="mixToMono"/>
          </Attributes>
         </AudioTransition>
         <ImageTransition id="1563" start="5071" duration="30" >
          <Transformer>
           <VectorParam id="1564"  name="translation">
            <InterpolatingParam id="1565" interp="linr"  time="0/1" value="0" leadInLength="0/1"  />
            <InterpolatingParam id="1566" interp="linr"  time="0/1" value="0" leadInLength="0/1"  />
            <InterpolatingParam id="1567" interp="linr"  time="0/1" value="0" leadInLength="0/1"  />
           </VectorParam>
           <VectorParam id="1568"  name="rotation">
            <InterpolatingParam id="1569" interp="linr"  time="0/1" value="0" leadInLength="0/1"  />
            <InterpolatingParam id="1570" interp="linr"  time="0/1" value="0" leadInLength="0/1"  />
            <InterpolatingParam id="1571" interp="linr"  time="0/1" value="0" leadInLength="0/1"  />
           </VectorParam>
           <VectorParam id="1572"  name="shear">
            <InterpolatingParam id="1573" interp="linr"  time="0/1" value="0" leadInLength="0/1"  />
            <InterpolatingParam id="1574" interp="linr"  time="0/1" value="0" leadInLength="0/1"  />
            <InterpolatingParam id="1575" interp="linr"  time="0/1" value="0" leadInLength="0/1"  />
           </VectorParam>
           <VectorParam id="1576"  name="scale">
            <InterpolatingParam id="1577" interp="linr"  time="0/1" value="1" leadInLength="0/1"  />
            <InterpolatingParam id="1578" interp="linr"  time="0/1" value="1" leadInLength="0/1"  />
            <InterpolatingParam id="1579" interp="linr"  time="0/1" value="1" leadInLength="0/1"  />
           </VectorParam>
           <VectorParam id="1580"  name="anchor">
            <InterpolatingParam id="1581" interp="linr"  time="0/1" value="0" leadInLength="0/1"  />
            <InterpolatingParam id="1582" interp="linr"  time="0/1" value="0" leadInLength="0/1"  />
            <InterpolatingParam id="1583" interp="linr"  time="0/1" value="0" leadInLength="0/1"  />
           </VectorParam>
          </Transformer>
          <Parameters>
           <VectorParam id="1584"  name="sourceCrop">
            <InterpolatingParam id="1585" interp="linr"  time="0/1" value="0" leadInLength="0/1"  />
            <InterpolatingParam id="1586" interp="linr"  time="0/1" value="0" leadInLength="0/1"  />
            <InterpolatingParam id="1587" interp="linr"  time="0/1" value="0" leadInLength="0/1"  />
            <InterpolatingParam id="1588" interp="linr"  time="0/1" value="0" leadInLength="0/1"  />
           </VectorParam>
           <VectorParam id="1589"  name="geometryCrop">
            <InterpolatingParam id="1590" interp="linr"  time="0/1" value="0" leadInLength="0/1"  />
            <InterpolatingParam id="1591" interp="linr"  time="0/1" value="0" leadInLength="0/1"  />
            <InterpolatingParam id="1592" interp="linr"  time="0/1" value="0" leadInLength="0/1"  />
            <InterpolatingParam id="1593" interp="linr"  time="0/1" value="0" leadInLength="0/1"  />
           </VectorParam>
           <InterpolatingParam id="1594" interp="linr"  time="0/1" value="1" leadInLength="0/1"  name="opacity"/>
          </Parameters>
          <Effects>
           <GenericEffect id="1595" name = "VisualTransition" >
            <Parameters>
            <InterpolatingParam id="1596" interp="linr"  time="0/1" value="1" leadInLength="0/1"   name="leftFramePercentage"/>
            <InterpolatingParam id="1597" interp="linr"  time="0/1" value="1" leadInLength="0/1"   name="rightFramePercentage"/>
            <Parameter id="1598"   name="visualEdgeModType">
             <Keyframes>
             <Keyframe id="1599"  time="0/1" value="0" leadInLength="0/1"  />
             </Keyframes>
            </Parameter>
            <Parameter id="1600"   name="visualTransitionType">
             <Keyframes>
             <Keyframe id="1601"  time="0/1" value="CircleStretch" leadInLength="0/1"  />
             </Keyframes>
            </Parameter>
            </Parameters>
            <MetaData>
            </MetaData>
           </GenericEffect>
          </Effects>
          <Attributes>
           <Attribute id="1602" value="" name="ident"/>
          </Attributes>
          <ExtraData>
           <Entry key="ZoomPanBin">
            <ZoomPanBin id="1603"  >
             <ZoomPanKeyframes>
             </ZoomPanKeyframes>
            </ZoomPanBin>
           </Entry>
          </ExtraData>
         </ImageTransition>
         <MetaData>
          <entry key="WinSubProjectDisplayName" val=""/>
         </MetaData>
        </UnifiedMedia>
        <UnifiedMedia id="1604"  >
         <AMFile id="1605" start="5101" duration="178" scalar="1/1" mediaStart="248/1" mediaDuration="178/1" trackNumber="1" src="5" channelNumber="0,1" >
          <Parameters>
           <InterpolatingParam id="1606" interp="linr"  time="0/1" value="1" leadInLength="0/1"  name="volume"/>
           <Parameter id="1607"  name="captions"/>
          </Parameters>
          <Attributes>
           <Attribute id="1608" value="" name="ident"/>
           <Attribute id="1609" value="44100" name="sampleRate"/>
           <Attribute id="1610" value="16" name="bitDepth"/>
           <Attribute id="1611" value="1" name="gain"/>
           <Attribute id="1612" value="0" name="mixToMono"/>
          </Attributes>
         </AMFile>
         <VMFile id="1613" start="5101" duration="178" scalar="1/1" mediaStart="248/1" mediaDuration="178/1" trackNumber="0" src="5" >
          <Transformer>
           <VectorParam id="1614"  name="translation">
            <InterpolatingParam id="1615" interp="linr"  time="-9999999/1" value="0" leadInLength="0/1"  />
            <InterpolatingParam id="1616" interp="linr"  time="-9999999/1" value="0" leadInLength="0/1"  />
            <InterpolatingParam id="1617" interp="linr"  time="-9999999/1" value="0" leadInLength="0/1"  />
           </VectorParam>
           <VectorParam id="1618"  name="rotation">
            <InterpolatingParam id="1619" interp="linr"  time="-9999999/1" value="0" leadInLength="0/1"  />
            <InterpolatingParam id="1620" interp="linr"  time="-9999999/1" value="0" leadInLength="0/1"  />
            <InterpolatingParam id="1621" interp="linr"  time="-9999999/1" value="0" leadInLength="0/1"  />
           </VectorParam>
           <VectorParam id="1622"  name="shear">
            <InterpolatingParam id="1623" interp="linr"  time="-9999999/1" value="0" leadInLength="0/1"  />
            <InterpolatingParam id="1624" interp="linr"  time="-9999999/1" value="0" leadInLength="0/1"  />
            <InterpolatingParam id="1625" interp="linr"  time="-9999999/1" value="0" leadInLength="0/1"  />
           </VectorParam>
           <VectorParam id="1626"  name="scale">
            <InterpolatingParam id="1627" interp="linr"  time="-9999999/1" value="1" leadInLength="0/1"  />
            <InterpolatingParam id="1628" interp="linr"  time="-9999999/1" value="1" leadInLength="0/1"  />
            <InterpolatingParam id="1629" interp="linr"  time="-9999999/1" value="1" leadInLength="0/1"  />
           </VectorParam>
           <VectorParam id="1630"  name="anchor">
            <InterpolatingParam id="1631" interp="linr"  time="0/1" value="0" leadInLength="0/1"  />
            <InterpolatingParam id="1632" interp="linr"  time="0/1" value="0" leadInLength="0/1"  />
            <InterpolatingParam id="1633" interp="linr"  time="0/1" value="0" leadInLength="0/1"  />
           </VectorParam>
          </Transformer>
          <Parameters>
           <VectorParam id="1634"  name="sourceCrop">
            <InterpolatingParam id="1635" interp="linr"  time="0/1" value="0" leadInLength="0/1"  />
            <InterpolatingParam id="1636" interp="linr"  time="0/1" value="0" leadInLength="0/1"  />
            <InterpolatingParam id="1637" interp="linr"  time="0/1" value="0" leadInLength="0/1"  />
            <InterpolatingParam id="1638" interp="linr"  time="0/1" value="0" leadInLength="0/1"  />
           </VectorParam>
           <VectorParam id="1639"  name="geometryCrop">
            <InterpolatingParam id="1640" interp="linr"  time="-9999999/1" value="0" leadInLength="0/1"  />
            <InterpolatingParam id="1641" interp="linr"  time="-9999999/1" value="0" leadInLength="0/1"  />
            <InterpolatingParam id="1642" interp="linr"  time="-9999999/1" value="0" leadInLength="0/1"  />
            <InterpolatingParam id="1643" interp="linr"  time="-9999999/1" value="0" leadInLength="0/1"  />
           </VectorParam>
           <InterpolatingParam id="1644" interp="linr"  time="-9999999/1" value="1" leadInLength="0/1"  name="opacity"/>
          </Parameters>
          <Attributes>
           <Attribute id="1645" value="" name="ident"/>
          </Attributes>
          <ExtraData>
           <Entry key="ZoomPanBin">
            <ZoomPanBin id="1646"  >
             <ZoomPanKeyframes>
              <ZoomPanKeyframe id="1647" timeRangeEnd="-9999999/1" timeRangeDuration="0/1" interpolaterName="linr"  />
             </ZoomPanKeyframes>
            </ZoomPanBin>
           </Entry>
          </ExtraData>
         </VMFile>
         <MetaData>
          <entry key="WinSubProjectDisplayName" val=""/>
         </MetaData>
        </UnifiedMedia>
       </Medias>
      </GenericTrack>
      <GenericTrack id="1648"  >
       <Attributes>
        <Attribute id="1649" value="" name="ident"/>
        <Attribute id="1650" value="0" name="audioMuted"/>
        <Attribute id="1651" value="0" name="videoHidden"/>
       </Attributes>
       <MetaData>
        <entry key="IsLocked" val="False"/>
        <entry key="WinTrackHeight" val="62"/>
       </MetaData>
       <Medias>
       </Medias>
      </GenericTrack>
     </Tracks>
    </GenericMixer>
   <CaptionAttributes id="1652"  >
    <Attribute id="1653" value="1" name="captionsEnabled"/>
    <Attribute id="1654" value="Arial" name="captionsFontName"/>
    <Attribute id="1655" value="28" name="captionsFontSize"/>
    <Attribute id="1656" value="(0,0,0,255)" name="captionsBackgroundColor"/>
    <Attribute id="1657" value="(255,255,255,255)" name="captionsForegroundColor"/>
    <Attribute id="1658" value="en" name="lang"/>
    <Attribute id="1659" value="0" name="captionsAlignment"/>
    <Attribute id="1660" value="1" name="captionsDefaultFontSize"/>
    <Attribute id="1661" value="0.5" name="captionsOpacity"/>
    <Attribute id="1662" value="1" name="captionsBackgroundEnabled"/>
    <Attribute id="1663" value="1" name="captionsBackgroundOnlyAroundText"/>
   </CaptionAttributes>
   <Parameters>
    <VectorParam id="1664"  name="eyePosition">
     <InterpolatingParam id="1665" interp="linr"  time="0/1" value="0" leadInLength="0/1"  />
     <InterpolatingParam id="1666" interp="linr"  time="0/1" value="0" leadInLength="0/1"  />
     <InterpolatingParam id="1667" interp="linr"  time="0/1" value="3000" leadInLength="0/1"  />
    </VectorParam>
    <VectorParam id="1668"  name="eyeLookAtPosition">
     <InterpolatingParam id="1669" interp="linr"  time="0/1" value="0" leadInLength="0/1"  />
     <InterpolatingParam id="1670" interp="linr"  time="0/1" value="0" leadInLength="0/1"  />
     <InterpolatingParam id="1671" interp="linr"  time="0/1" value="0" leadInLength="0/1"  />
    </VectorParam>
    <VectorParam id="1672"  name="eyeUpVector">
     <InterpolatingParam id="1673" interp="linr"  time="0/1" value="0" leadInLength="0/1"  />
     <InterpolatingParam id="1674" interp="linr"  time="0/1" value="1" leadInLength="0/1"  />
     <InterpolatingParam id="1675" interp="linr"  time="0/1" value="0" leadInLength="0/1"  />
    </VectorParam>
    <InterpolatingParam id="1676" interp="linr"  time="0/1" value="0.254615486" leadInLength="0/1"  name="fov"/>
    <InterpolatingParam id="1677" interp="linr"  time="0/1" value="1.5" leadInLength="0/1"  name="nearClipDistance"/>
    <InterpolatingParam id="1678" interp="linr"  time="0/1" value="6000" leadInLength="0/1"  name="farClipDistance"/>
   </Parameters>
  </Timeline>
 </Project>
</GoProject>
</CSMLData>

</Project_Data>
